%TF.GenerationSoftware,KiCad,Pcbnew,9.0.6*%
%TF.CreationDate,2025-12-16T12:18:39+05:30*%
%TF.ProjectId,Headphone Amplifier,48656164-7068-46f6-9e65-20416d706c69,rev?*%
%TF.SameCoordinates,Original*%
%TF.FileFunction,Copper,L2,Bot*%
%TF.FilePolarity,Positive*%
%FSLAX46Y46*%
G04 Gerber Fmt 4.6, Leading zero omitted, Abs format (unit mm)*
G04 Created by KiCad (PCBNEW 9.0.6) date 2025-12-16 12:18:39*
%MOMM*%
%LPD*%
G01*
G04 APERTURE LIST*
G04 Aperture macros list*
%AMRoundRect*
0 Rectangle with rounded corners*
0 $1 Rounding radius*
0 $2 $3 $4 $5 $6 $7 $8 $9 X,Y pos of 4 corners*
0 Add a 4 corners polygon primitive as box body*
4,1,4,$2,$3,$4,$5,$6,$7,$8,$9,$2,$3,0*
0 Add four circle primitives for the rounded corners*
1,1,$1+$1,$2,$3*
1,1,$1+$1,$4,$5*
1,1,$1+$1,$6,$7*
1,1,$1+$1,$8,$9*
0 Add four rect primitives between the rounded corners*
20,1,$1+$1,$2,$3,$4,$5,0*
20,1,$1+$1,$4,$5,$6,$7,0*
20,1,$1+$1,$6,$7,$8,$9,0*
20,1,$1+$1,$8,$9,$2,$3,0*%
G04 Aperture macros list end*
%TA.AperFunction,NonConductor*%
%ADD10C,0.200000*%
%TD*%
%TA.AperFunction,ComponentPad*%
%ADD11C,1.600000*%
%TD*%
%TA.AperFunction,ComponentPad*%
%ADD12C,1.400000*%
%TD*%
%TA.AperFunction,ComponentPad*%
%ADD13C,1.200000*%
%TD*%
%TA.AperFunction,ComponentPad*%
%ADD14RoundRect,0.250000X-0.550000X-0.550000X0.550000X-0.550000X0.550000X0.550000X-0.550000X0.550000X0*%
%TD*%
%TA.AperFunction,ComponentPad*%
%ADD15R,1.700000X1.700000*%
%TD*%
%TA.AperFunction,ComponentPad*%
%ADD16C,1.700000*%
%TD*%
%TA.AperFunction,ComponentPad*%
%ADD17C,1.620000*%
%TD*%
%TA.AperFunction,ViaPad*%
%ADD18C,0.600000*%
%TD*%
%TA.AperFunction,Conductor*%
%ADD19C,0.200000*%
%TD*%
G04 APERTURE END LIST*
D10*
X75438000Y-66294000D02*
X122174000Y-66294000D01*
X122174000Y-90170000D01*
X75438000Y-90170000D01*
X75438000Y-66294000D01*
D11*
%TO.P,C2,1*%
%TO.N,Net-(C2-Pad1)*%
X150876000Y-64018000D03*
%TO.P,C2,2*%
%TO.N,Net-(C2-Pad2)*%
X150876000Y-59018000D03*
%TD*%
%TO.P,C1,1*%
%TO.N,Net-(C1-Pad1)*%
X151638000Y-56388000D03*
%TO.P,C1,2*%
%TO.N,GND*%
X156638000Y-56388000D03*
%TD*%
%TO.P,C3,1*%
%TO.N,Net-(C1-Pad1)*%
X157226000Y-64018000D03*
%TO.P,C3,2*%
%TO.N,Net-(U1A--)*%
X157226000Y-59018000D03*
%TD*%
D12*
%TO.P,R3,1*%
%TO.N,Net-(C4-Pad2)*%
X185674000Y-62738000D03*
%TO.P,R3,2*%
%TO.N,GND*%
X185674000Y-57658000D03*
%TD*%
D13*
%TO.P,C6,1*%
%TO.N,Net-(C4-Pad1)*%
X168402000Y-59182000D03*
%TO.P,C6,2*%
%TO.N,Net-(J2-Pin_1)*%
X170402000Y-59182000D03*
%TD*%
%TO.P,C5,1*%
%TO.N,Net-(U2--)*%
X163846000Y-52832000D03*
%TO.P,C5,2*%
%TO.N,Net-(U2-BYPASS)*%
X165846000Y-52832000D03*
%TD*%
D14*
%TO.P,U1,1*%
%TO.N,Net-(C2-Pad1)*%
X148844000Y-43942000D03*
D11*
%TO.P,U1,2,-*%
%TO.N,Net-(U1A--)*%
X148844000Y-46482000D03*
%TO.P,U1,3,+*%
%TO.N,Net-(U1A-+)*%
X148844000Y-49022000D03*
%TO.P,U1,4,V-*%
%TO.N,GND*%
X148844000Y-51562000D03*
%TO.P,U1,5*%
%TO.N,N/C*%
X159004000Y-51562000D03*
%TO.P,U1,6*%
X159004000Y-49022000D03*
%TO.P,U1,7*%
X159004000Y-46482000D03*
%TO.P,U1,8,V+*%
%TO.N,+12V*%
X159004000Y-43942000D03*
%TD*%
D12*
%TO.P,R2,1*%
%TO.N,Net-(C1-Pad1)*%
X181102000Y-58166000D03*
%TO.P,R2,2*%
%TO.N,Net-(U1A-+)*%
X176022000Y-58166000D03*
%TD*%
D15*
%TO.P,J1,1,Pin_1*%
%TO.N,GND*%
X145288000Y-45969000D03*
D16*
%TO.P,J1,2,Pin_2*%
%TO.N,Net-(J1-Pin_2)*%
X145288000Y-48509000D03*
%TD*%
D17*
%TO.P,RV1,1,1*%
%TO.N,Net-(C2-Pad2)*%
X162854000Y-47070000D03*
%TO.P,RV1,2,2*%
%TO.N,Net-(U2-+)*%
X165354000Y-44570000D03*
%TO.P,RV1,3,3*%
%TO.N,GND*%
X167854000Y-47070000D03*
%TD*%
D14*
%TO.P,U2,1,GAIN*%
%TO.N,unconnected-(U2-GAIN-Pad1)*%
X171704000Y-44958000D03*
D11*
%TO.P,U2,2,-*%
%TO.N,Net-(U2--)*%
X171704000Y-47498000D03*
%TO.P,U2,3,+*%
%TO.N,Net-(U2-+)*%
X171704000Y-50038000D03*
%TO.P,U2,4,GND*%
%TO.N,GND*%
X171704000Y-52578000D03*
%TO.P,U2,5*%
%TO.N,Net-(C4-Pad1)*%
X181864000Y-52578000D03*
%TO.P,U2,6,V+*%
%TO.N,+12V*%
X181864000Y-50038000D03*
%TO.P,U2,7,BYPASS*%
%TO.N,Net-(U2-BYPASS)*%
X181864000Y-47498000D03*
%TO.P,U2,8,GAIN*%
%TO.N,unconnected-(U2-GAIN-Pad8)*%
X181864000Y-44958000D03*
%TD*%
D15*
%TO.P,J2,1,Pin_1*%
%TO.N,Net-(J2-Pin_1)*%
X185674000Y-47498000D03*
D16*
%TO.P,J2,2,Pin_2*%
%TO.N,GND*%
X185674000Y-50038000D03*
%TD*%
D12*
%TO.P,R1,1*%
%TO.N,Net-(J1-Pin_2)*%
X181610000Y-62738000D03*
%TO.P,R1,2*%
%TO.N,Net-(C1-Pad1)*%
X176530000Y-62738000D03*
%TD*%
D11*
%TO.P,C4,1*%
%TO.N,Net-(C4-Pad1)*%
X163322000Y-63978000D03*
%TO.P,C4,2*%
%TO.N,Net-(C4-Pad2)*%
X163322000Y-58978000D03*
%TD*%
D18*
%TO.N,Net-(U2-BYPASS)*%
X180664415Y-50539001D03*
X180340000Y-51978000D03*
%TD*%
D19*
%TO.N,Net-(C1-Pad1)*%
X182024628Y-61737000D02*
X182611000Y-62323372D01*
X181102000Y-58166000D02*
X176530000Y-62738000D01*
X182611000Y-62323372D02*
X182611000Y-63152628D01*
X177531000Y-61737000D02*
X182024628Y-61737000D01*
X158287000Y-65079000D02*
X157226000Y-64018000D01*
X176530000Y-62738000D02*
X177531000Y-61737000D01*
X182611000Y-63152628D02*
X180684628Y-65079000D01*
X180684628Y-65079000D02*
X158287000Y-65079000D01*
%TO.N,Net-(C2-Pad1)*%
X148844000Y-44924950D02*
X148844000Y-43942000D01*
X146410950Y-47358000D02*
X148844000Y-44924950D01*
X144137000Y-48032240D02*
X144811240Y-47358000D01*
X150876000Y-64018000D02*
X144137000Y-57279000D01*
X144137000Y-57279000D02*
X144137000Y-48032240D01*
X144811240Y-47358000D02*
X146410950Y-47358000D01*
%TO.N,Net-(U1A--)*%
X149945000Y-51737000D02*
X149945000Y-50767950D01*
X149300050Y-50123000D02*
X148387950Y-50123000D01*
X157226000Y-59018000D02*
X149945000Y-51737000D01*
X149945000Y-50767950D02*
X149300050Y-50123000D01*
X147743000Y-47583000D02*
X148844000Y-46482000D01*
X148387950Y-50123000D02*
X147743000Y-49478050D01*
X147743000Y-49478050D02*
X147743000Y-47583000D01*
%TO.N,Net-(C4-Pad1)*%
X181864000Y-52578000D02*
X175006000Y-52578000D01*
X175006000Y-52578000D02*
X168402000Y-59182000D01*
%TO.N,Net-(U2-BYPASS)*%
X180664415Y-51653585D02*
X180340000Y-51978000D01*
X180664415Y-50539001D02*
X180664415Y-51653585D01*
%TO.N,Net-(U2--)*%
X172805000Y-50494050D02*
X171822050Y-51477000D01*
X171704000Y-47498000D02*
X172805000Y-48599000D01*
X172805000Y-48599000D02*
X172805000Y-50494050D01*
X171822050Y-51477000D02*
X165201000Y-51477000D01*
X165201000Y-51477000D02*
X163846000Y-52832000D01*
%TO.N,Net-(J2-Pin_1)*%
X178834050Y-57165000D02*
X172419000Y-57165000D01*
X182965000Y-50207000D02*
X182965000Y-53034050D01*
X182965000Y-53034050D02*
X178834050Y-57165000D01*
X185674000Y-47498000D02*
X182965000Y-50207000D01*
X172419000Y-57165000D02*
X170402000Y-59182000D01*
%TO.N,Net-(J1-Pin_2)*%
X145288000Y-56872950D02*
X151292050Y-62877000D01*
X180609000Y-63739000D02*
X181610000Y-62738000D01*
X151292050Y-62877000D02*
X175253372Y-62877000D01*
X175253372Y-62877000D02*
X176115372Y-63739000D01*
X176115372Y-63739000D02*
X180609000Y-63739000D01*
X145288000Y-48509000D02*
X145288000Y-56872950D01*
%TO.N,Net-(U1A-+)*%
X150829050Y-49022000D02*
X148844000Y-49022000D01*
X174105000Y-60083000D02*
X161890050Y-60083000D01*
X176022000Y-58166000D02*
X174105000Y-60083000D01*
X161890050Y-60083000D02*
X150829050Y-49022000D01*
%TO.N,Net-(U2-+)*%
X159255808Y-45043000D02*
X164250808Y-50038000D01*
X165354000Y-44570000D02*
X163625000Y-42841000D01*
X164250808Y-50038000D02*
X171704000Y-50038000D01*
X157903000Y-44398050D02*
X158547950Y-45043000D01*
X163625000Y-42841000D02*
X158547950Y-42841000D01*
X157903000Y-43485950D02*
X157903000Y-44398050D01*
X158547950Y-42841000D02*
X157903000Y-43485950D01*
X158547950Y-45043000D02*
X159255808Y-45043000D01*
%TO.N,+12V*%
X159004000Y-43942000D02*
X160743000Y-45681000D01*
X160743000Y-45681000D02*
X170540840Y-45681000D01*
X178054000Y-46228000D02*
X181864000Y-50038000D01*
X170540840Y-45681000D02*
X171087840Y-46228000D01*
X171087840Y-46228000D02*
X178054000Y-46228000D01*
%TD*%
%TA.AperFunction,Conductor*%
%TO.N,GND*%
G36*
X188926539Y-40652185D02*
G01*
X188972294Y-40704989D01*
X188983500Y-40756500D01*
X188983500Y-65669500D01*
X188963815Y-65736539D01*
X188911011Y-65782294D01*
X188859500Y-65793500D01*
X181110852Y-65793500D01*
X181043813Y-65773815D01*
X180998058Y-65721011D01*
X180988114Y-65651853D01*
X181017139Y-65588297D01*
X181025528Y-65579523D01*
X181036159Y-65569440D01*
X181053344Y-65559520D01*
X181165148Y-65447716D01*
X181165149Y-65447713D01*
X182969506Y-63643356D01*
X182969511Y-63643352D01*
X182979714Y-63633148D01*
X182979716Y-63633148D01*
X183091520Y-63521344D01*
X183170577Y-63384412D01*
X183204320Y-63258480D01*
X183211500Y-63231686D01*
X183211500Y-63073571D01*
X183211500Y-62643513D01*
X184473500Y-62643513D01*
X184473500Y-62832486D01*
X184503059Y-63019118D01*
X184561454Y-63198836D01*
X184647240Y-63367199D01*
X184758310Y-63520073D01*
X184891927Y-63653690D01*
X185044801Y-63764760D01*
X185124347Y-63805290D01*
X185213163Y-63850545D01*
X185213165Y-63850545D01*
X185213168Y-63850547D01*
X185309497Y-63881846D01*
X185392881Y-63908940D01*
X185579514Y-63938500D01*
X185579519Y-63938500D01*
X185768486Y-63938500D01*
X185955118Y-63908940D01*
X186134832Y-63850547D01*
X186303199Y-63764760D01*
X186456073Y-63653690D01*
X186589690Y-63520073D01*
X186700760Y-63367199D01*
X186786547Y-63198832D01*
X186844940Y-63019118D01*
X186848744Y-62995102D01*
X186874500Y-62832486D01*
X186874500Y-62643513D01*
X186844940Y-62456881D01*
X186806150Y-62337500D01*
X186786547Y-62277168D01*
X186786545Y-62277165D01*
X186786545Y-62277163D01*
X186700759Y-62108800D01*
X186688253Y-62091587D01*
X186589690Y-61955927D01*
X186456073Y-61822310D01*
X186303199Y-61711240D01*
X186134836Y-61625454D01*
X185955118Y-61567059D01*
X185768486Y-61537500D01*
X185768481Y-61537500D01*
X185579519Y-61537500D01*
X185579514Y-61537500D01*
X185392881Y-61567059D01*
X185213163Y-61625454D01*
X185044800Y-61711240D01*
X184957579Y-61774610D01*
X184891927Y-61822310D01*
X184891925Y-61822312D01*
X184891924Y-61822312D01*
X184758312Y-61955924D01*
X184758312Y-61955925D01*
X184758310Y-61955927D01*
X184710610Y-62021579D01*
X184647240Y-62108800D01*
X184561454Y-62277163D01*
X184503059Y-62456881D01*
X184473500Y-62643513D01*
X183211500Y-62643513D01*
X183211500Y-62244315D01*
X183210392Y-62240181D01*
X183204999Y-62220051D01*
X183204321Y-62217520D01*
X183170577Y-62091587D01*
X183141639Y-62041467D01*
X183091520Y-61954656D01*
X182979716Y-61842852D01*
X182979715Y-61842851D01*
X182975385Y-61838521D01*
X182975374Y-61838511D01*
X182512218Y-61375355D01*
X182512216Y-61375352D01*
X182393344Y-61256480D01*
X182393342Y-61256479D01*
X182393340Y-61256478D01*
X182306532Y-61206360D01*
X182306532Y-61206359D01*
X182306528Y-61206358D01*
X182256413Y-61177423D01*
X182103685Y-61136499D01*
X181945571Y-61136499D01*
X181937975Y-61136499D01*
X181937959Y-61136500D01*
X179280097Y-61136500D01*
X179213058Y-61116815D01*
X179167303Y-61064011D01*
X179157359Y-60994853D01*
X179186384Y-60931297D01*
X179192416Y-60924819D01*
X179553716Y-60563519D01*
X180741169Y-59376064D01*
X180802490Y-59342581D01*
X180848246Y-59341274D01*
X181007514Y-59366500D01*
X181007519Y-59366500D01*
X181196486Y-59366500D01*
X181383118Y-59336940D01*
X181413753Y-59326986D01*
X181562832Y-59278547D01*
X181731199Y-59192760D01*
X181884073Y-59081690D01*
X182017690Y-58948073D01*
X182128760Y-58795199D01*
X182194650Y-58665882D01*
X185019669Y-58665882D01*
X185019670Y-58665883D01*
X185045059Y-58684329D01*
X185213362Y-58770085D01*
X185392997Y-58828451D01*
X185579553Y-58858000D01*
X185768447Y-58858000D01*
X185955002Y-58828451D01*
X186134637Y-58770085D01*
X186302937Y-58684331D01*
X186328328Y-58665883D01*
X186328328Y-58665882D01*
X185674001Y-58011554D01*
X185674000Y-58011554D01*
X185019669Y-58665882D01*
X182194650Y-58665882D01*
X182214547Y-58626832D01*
X182272940Y-58447118D01*
X182302500Y-58260486D01*
X182302500Y-58071513D01*
X182272940Y-57884881D01*
X182236516Y-57772781D01*
X182214547Y-57705168D01*
X182214545Y-57705165D01*
X182214544Y-57705160D01*
X182168596Y-57614982D01*
X182168595Y-57614981D01*
X182142390Y-57563552D01*
X184474000Y-57563552D01*
X184474000Y-57752447D01*
X184503548Y-57939002D01*
X184561914Y-58118637D01*
X184647666Y-58286933D01*
X184666116Y-58312328D01*
X185320446Y-57658000D01*
X185320446Y-57657999D01*
X185274369Y-57611922D01*
X185324000Y-57611922D01*
X185324000Y-57704078D01*
X185347852Y-57793095D01*
X185393930Y-57872905D01*
X185459095Y-57938070D01*
X185538905Y-57984148D01*
X185627922Y-58008000D01*
X185720078Y-58008000D01*
X185809095Y-57984148D01*
X185888905Y-57938070D01*
X185954070Y-57872905D01*
X186000148Y-57793095D01*
X186024000Y-57704078D01*
X186024000Y-57657999D01*
X186027554Y-57657999D01*
X186027554Y-57658000D01*
X186681882Y-58312328D01*
X186681883Y-58312328D01*
X186700331Y-58286937D01*
X186786085Y-58118637D01*
X186844451Y-57939002D01*
X186874000Y-57752447D01*
X186874000Y-57563552D01*
X186844451Y-57376997D01*
X186786085Y-57197362D01*
X186700329Y-57029059D01*
X186681883Y-57003670D01*
X186681882Y-57003669D01*
X186027554Y-57657999D01*
X186024000Y-57657999D01*
X186024000Y-57611922D01*
X186000148Y-57522905D01*
X185954070Y-57443095D01*
X185888905Y-57377930D01*
X185809095Y-57331852D01*
X185720078Y-57308000D01*
X185627922Y-57308000D01*
X185538905Y-57331852D01*
X185459095Y-57377930D01*
X185393930Y-57443095D01*
X185347852Y-57522905D01*
X185324000Y-57611922D01*
X185274369Y-57611922D01*
X184666116Y-57003669D01*
X184666116Y-57003670D01*
X184647669Y-57029060D01*
X184561914Y-57197362D01*
X184503548Y-57376997D01*
X184474000Y-57563552D01*
X182142390Y-57563552D01*
X182128760Y-57536801D01*
X182017690Y-57383927D01*
X181884073Y-57250310D01*
X181731199Y-57139240D01*
X181681508Y-57113921D01*
X181562836Y-57053454D01*
X181383118Y-56995059D01*
X181196486Y-56965500D01*
X181196481Y-56965500D01*
X181007519Y-56965500D01*
X181007514Y-56965500D01*
X180820881Y-56995059D01*
X180641163Y-57053454D01*
X180472800Y-57139240D01*
X180399729Y-57192330D01*
X180319927Y-57250310D01*
X180319925Y-57250312D01*
X180319924Y-57250312D01*
X180186312Y-57383924D01*
X180186312Y-57383925D01*
X180186310Y-57383927D01*
X180143322Y-57443095D01*
X180075240Y-57536800D01*
X179989454Y-57705163D01*
X179931059Y-57884881D01*
X179901500Y-58071513D01*
X179901500Y-58260486D01*
X179926725Y-58419751D01*
X179917770Y-58489045D01*
X179891933Y-58526830D01*
X178408798Y-60009966D01*
X177162286Y-61256478D01*
X177162284Y-61256480D01*
X177050480Y-61368284D01*
X176890829Y-61527934D01*
X176829506Y-61561418D01*
X176783750Y-61562725D01*
X176624486Y-61537500D01*
X176624481Y-61537500D01*
X176435519Y-61537500D01*
X176435514Y-61537500D01*
X176248881Y-61567059D01*
X176069163Y-61625454D01*
X175900800Y-61711240D01*
X175813579Y-61774610D01*
X175747927Y-61822310D01*
X175747925Y-61822312D01*
X175747924Y-61822312D01*
X175614312Y-61955924D01*
X175614312Y-61955925D01*
X175614310Y-61955927D01*
X175566610Y-62021579D01*
X175503240Y-62108800D01*
X175452213Y-62208948D01*
X175441726Y-62220051D01*
X175435370Y-62233938D01*
X175418225Y-62244935D01*
X175404239Y-62259744D01*
X175388520Y-62263988D01*
X175376559Y-62271661D01*
X175353522Y-62273438D01*
X175341620Y-62276653D01*
X175332975Y-62276645D01*
X175332429Y-62276499D01*
X175174315Y-62276499D01*
X175174311Y-62276500D01*
X151592147Y-62276500D01*
X151525108Y-62256815D01*
X151504466Y-62240181D01*
X145924819Y-56660534D01*
X145891334Y-56599211D01*
X145888500Y-56572853D01*
X145888500Y-49794718D01*
X145908185Y-49727679D01*
X145956207Y-49684233D01*
X145995815Y-49664052D01*
X145995815Y-49664051D01*
X145995816Y-49664051D01*
X146143013Y-49557107D01*
X146167786Y-49539109D01*
X146167788Y-49539106D01*
X146167792Y-49539104D01*
X146318104Y-49388792D01*
X146318106Y-49388788D01*
X146318109Y-49388786D01*
X146443048Y-49216820D01*
X146443047Y-49216820D01*
X146443051Y-49216816D01*
X146539557Y-49027412D01*
X146605246Y-48825243D01*
X146638500Y-48615287D01*
X146638500Y-48402713D01*
X146605246Y-48192757D01*
X146566307Y-48072918D01*
X146565383Y-48040563D01*
X146563068Y-48008267D01*
X146564391Y-48005841D01*
X146564313Y-48003079D01*
X146581030Y-47975355D01*
X146596541Y-47946937D01*
X146599265Y-47945116D01*
X146600393Y-47943246D01*
X146624791Y-47925781D01*
X146636991Y-47919116D01*
X146642735Y-47917577D01*
X146692854Y-47888639D01*
X146779666Y-47838520D01*
X146891470Y-47726716D01*
X146891471Y-47726713D01*
X146930822Y-47687361D01*
X146992144Y-47653879D01*
X147061836Y-47658865D01*
X147117768Y-47700737D01*
X147142184Y-47766202D01*
X147142500Y-47775046D01*
X147142500Y-49391380D01*
X147142499Y-49391398D01*
X147142499Y-49557104D01*
X147142498Y-49557104D01*
X147142499Y-49557107D01*
X147176489Y-49683958D01*
X147183424Y-49709837D01*
X147193032Y-49726478D01*
X147193033Y-49726480D01*
X147262477Y-49846762D01*
X147262481Y-49846767D01*
X147381349Y-49965635D01*
X147381355Y-49965640D01*
X147903089Y-50487374D01*
X147903099Y-50487385D01*
X147907429Y-50491715D01*
X147907430Y-50491716D01*
X148019234Y-50603520D01*
X148044050Y-50617847D01*
X148106045Y-50653639D01*
X148106047Y-50653641D01*
X148144101Y-50675611D01*
X148156165Y-50682577D01*
X148308893Y-50723501D01*
X148308895Y-50723501D01*
X148316953Y-50724562D01*
X148316742Y-50726158D01*
X148374731Y-50743186D01*
X148395373Y-50759820D01*
X148797554Y-51162000D01*
X148791339Y-51162000D01*
X148689606Y-51189259D01*
X148598394Y-51241920D01*
X148523920Y-51316394D01*
X148471259Y-51407606D01*
X148444000Y-51509339D01*
X148444000Y-51515553D01*
X147764524Y-50836077D01*
X147764523Y-50836077D01*
X147732143Y-50880644D01*
X147639244Y-51062968D01*
X147576009Y-51257582D01*
X147544000Y-51459682D01*
X147544000Y-51664317D01*
X147576009Y-51866417D01*
X147639244Y-52061031D01*
X147732141Y-52243350D01*
X147732147Y-52243359D01*
X147764523Y-52287921D01*
X147764524Y-52287922D01*
X148444000Y-51608446D01*
X148444000Y-51614661D01*
X148471259Y-51716394D01*
X148523920Y-51807606D01*
X148598394Y-51882080D01*
X148689606Y-51934741D01*
X148791339Y-51962000D01*
X148797553Y-51962000D01*
X148118076Y-52641474D01*
X148162650Y-52673859D01*
X148344968Y-52766755D01*
X148539582Y-52829990D01*
X148741683Y-52862000D01*
X148946317Y-52862000D01*
X149148417Y-52829990D01*
X149343031Y-52766755D01*
X149525349Y-52673859D01*
X149569921Y-52641474D01*
X148890447Y-51962000D01*
X148896661Y-51962000D01*
X148998394Y-51934741D01*
X149089606Y-51882080D01*
X149164080Y-51807606D01*
X149216741Y-51716394D01*
X149244000Y-51614661D01*
X149244000Y-51608446D01*
X149308180Y-51672626D01*
X149341665Y-51733949D01*
X149344499Y-51760307D01*
X149344499Y-51816054D01*
X149344498Y-51816054D01*
X149383604Y-51962000D01*
X149385423Y-51968785D01*
X149414082Y-52018423D01*
X149459555Y-52097185D01*
X149464479Y-52105714D01*
X149464481Y-52105717D01*
X149583349Y-52224585D01*
X149583355Y-52224590D01*
X152407978Y-55049213D01*
X152441463Y-55110536D01*
X152436479Y-55180228D01*
X152394607Y-55236161D01*
X152329143Y-55260578D01*
X152264002Y-55247379D01*
X152137223Y-55182781D01*
X151942534Y-55119522D01*
X151767995Y-55091878D01*
X151740352Y-55087500D01*
X151535648Y-55087500D01*
X151511329Y-55091351D01*
X151333465Y-55119522D01*
X151138776Y-55182781D01*
X150956386Y-55275715D01*
X150790786Y-55396028D01*
X150646028Y-55540786D01*
X150525715Y-55706386D01*
X150432781Y-55888776D01*
X150369522Y-56083465D01*
X150337500Y-56285648D01*
X150337500Y-56490352D01*
X150341878Y-56517995D01*
X150369522Y-56692534D01*
X150432781Y-56887223D01*
X150525715Y-57069613D01*
X150646028Y-57235213D01*
X150646034Y-57235219D01*
X150790781Y-57379966D01*
X150946610Y-57493182D01*
X150989276Y-57548511D01*
X150995255Y-57618125D01*
X150962650Y-57679920D01*
X150901811Y-57714277D01*
X150873725Y-57717500D01*
X150773648Y-57717500D01*
X150749329Y-57721351D01*
X150571465Y-57749522D01*
X150376776Y-57812781D01*
X150194386Y-57905715D01*
X150028786Y-58026028D01*
X149884028Y-58170786D01*
X149763715Y-58336386D01*
X149670781Y-58518776D01*
X149607522Y-58713465D01*
X149575500Y-58915648D01*
X149575500Y-59120351D01*
X149607522Y-59322534D01*
X149670781Y-59517223D01*
X149763715Y-59699613D01*
X149884028Y-59865213D01*
X150028786Y-60009971D01*
X150183749Y-60122556D01*
X150194390Y-60130287D01*
X150310607Y-60189503D01*
X150376776Y-60223218D01*
X150376778Y-60223218D01*
X150376781Y-60223220D01*
X150481137Y-60257127D01*
X150571465Y-60286477D01*
X150672557Y-60302488D01*
X150773648Y-60318500D01*
X150773649Y-60318500D01*
X150978351Y-60318500D01*
X150978352Y-60318500D01*
X151180534Y-60286477D01*
X151375219Y-60223220D01*
X151557610Y-60130287D01*
X151650590Y-60062732D01*
X151723213Y-60009971D01*
X151723215Y-60009968D01*
X151723219Y-60009966D01*
X151867966Y-59865219D01*
X151867968Y-59865215D01*
X151867971Y-59865213D01*
X151920732Y-59792590D01*
X151988287Y-59699610D01*
X152081220Y-59517219D01*
X152144477Y-59322534D01*
X152176500Y-59120352D01*
X152176500Y-58915648D01*
X152162689Y-58828451D01*
X152144477Y-58713465D01*
X152081218Y-58518776D01*
X152044706Y-58447118D01*
X151988287Y-58336390D01*
X151952355Y-58286933D01*
X151867971Y-58170786D01*
X151723219Y-58026034D01*
X151665567Y-57984148D01*
X151567389Y-57912817D01*
X151524724Y-57857489D01*
X151518745Y-57787875D01*
X151551350Y-57726080D01*
X151612189Y-57691723D01*
X151640275Y-57688500D01*
X151740351Y-57688500D01*
X151740352Y-57688500D01*
X151942534Y-57656477D01*
X152137219Y-57593220D01*
X152319610Y-57500287D01*
X152412590Y-57432732D01*
X152485213Y-57379971D01*
X152485215Y-57379968D01*
X152485219Y-57379966D01*
X152629966Y-57235219D01*
X152629968Y-57235215D01*
X152629971Y-57235213D01*
X152718093Y-57113921D01*
X152750287Y-57069610D01*
X152843220Y-56887219D01*
X152906477Y-56692534D01*
X152938500Y-56490352D01*
X152938500Y-56285648D01*
X152916856Y-56148997D01*
X152906477Y-56083465D01*
X152843218Y-55888776D01*
X152778620Y-55761997D01*
X152765724Y-55693328D01*
X152792000Y-55628587D01*
X152849106Y-55588330D01*
X152918912Y-55585338D01*
X152976786Y-55618021D01*
X155931922Y-58573157D01*
X155965407Y-58634480D01*
X155962173Y-58699155D01*
X155957522Y-58713468D01*
X155925500Y-58915648D01*
X155925500Y-59120351D01*
X155957522Y-59322534D01*
X156020781Y-59517223D01*
X156113715Y-59699613D01*
X156234028Y-59865213D01*
X156378786Y-60009971D01*
X156533749Y-60122556D01*
X156544390Y-60130287D01*
X156660607Y-60189503D01*
X156726776Y-60223218D01*
X156726778Y-60223218D01*
X156726781Y-60223220D01*
X156831137Y-60257127D01*
X156921465Y-60286477D01*
X157022557Y-60302488D01*
X157123648Y-60318500D01*
X157123649Y-60318500D01*
X157328351Y-60318500D01*
X157328352Y-60318500D01*
X157530534Y-60286477D01*
X157725219Y-60223220D01*
X157907610Y-60130287D01*
X158000590Y-60062732D01*
X158073213Y-60009971D01*
X158073215Y-60009968D01*
X158073219Y-60009966D01*
X158217966Y-59865219D01*
X158217968Y-59865215D01*
X158217971Y-59865213D01*
X158270732Y-59792590D01*
X158338287Y-59699610D01*
X158431220Y-59517219D01*
X158494477Y-59322534D01*
X158526500Y-59120352D01*
X158526500Y-58915648D01*
X158512689Y-58828451D01*
X158494477Y-58713465D01*
X158431218Y-58518776D01*
X158394706Y-58447118D01*
X158338287Y-58336390D01*
X158302355Y-58286933D01*
X158217971Y-58170786D01*
X158073213Y-58026028D01*
X157907613Y-57905715D01*
X157907612Y-57905714D01*
X157907610Y-57905713D01*
X157829106Y-57865713D01*
X157725223Y-57812781D01*
X157530534Y-57749522D01*
X157370695Y-57724206D01*
X157307560Y-57694276D01*
X157270629Y-57634965D01*
X157271627Y-57565102D01*
X157310237Y-57506870D01*
X157317207Y-57501415D01*
X157363921Y-57467474D01*
X156684446Y-56788000D01*
X156690661Y-56788000D01*
X156792394Y-56760741D01*
X156883606Y-56708080D01*
X156958080Y-56633606D01*
X157010741Y-56542394D01*
X157038000Y-56440661D01*
X157038000Y-56434446D01*
X157717474Y-57113921D01*
X157749859Y-57069349D01*
X157765975Y-57037718D01*
X157813948Y-56986921D01*
X157881768Y-56970123D01*
X157947904Y-56992658D01*
X157964143Y-57006328D01*
X161405189Y-60447374D01*
X161405199Y-60447385D01*
X161409529Y-60451715D01*
X161409530Y-60451716D01*
X161521334Y-60563520D01*
X161608145Y-60613639D01*
X161608147Y-60613641D01*
X161658263Y-60642576D01*
X161658265Y-60642577D01*
X161810992Y-60683500D01*
X161810993Y-60683500D01*
X174018331Y-60683500D01*
X174018347Y-60683501D01*
X174025943Y-60683501D01*
X174184054Y-60683501D01*
X174184057Y-60683501D01*
X174336785Y-60642577D01*
X174386904Y-60613639D01*
X174473716Y-60563520D01*
X174585520Y-60451716D01*
X174585520Y-60451714D01*
X174595728Y-60441507D01*
X174595730Y-60441504D01*
X175661169Y-59376064D01*
X175722490Y-59342581D01*
X175768246Y-59341274D01*
X175927514Y-59366500D01*
X175927519Y-59366500D01*
X176116486Y-59366500D01*
X176303118Y-59336940D01*
X176333753Y-59326986D01*
X176482832Y-59278547D01*
X176651199Y-59192760D01*
X176804073Y-59081690D01*
X176937690Y-58948073D01*
X177048760Y-58795199D01*
X177131396Y-58633014D01*
X177134545Y-58626836D01*
X177134545Y-58626835D01*
X177134547Y-58626832D01*
X177192940Y-58447118D01*
X177222500Y-58260486D01*
X177222500Y-58071513D01*
X177196744Y-57908898D01*
X177205699Y-57839605D01*
X177250695Y-57786153D01*
X177317446Y-57765513D01*
X177319217Y-57765500D01*
X178747381Y-57765500D01*
X178747397Y-57765501D01*
X178754993Y-57765501D01*
X178913104Y-57765501D01*
X178913107Y-57765501D01*
X179065835Y-57724577D01*
X179133551Y-57685481D01*
X179202766Y-57645520D01*
X179314570Y-57533716D01*
X179314570Y-57533714D01*
X179324774Y-57523511D01*
X179324777Y-57523506D01*
X180198168Y-56650116D01*
X185019669Y-56650116D01*
X185674000Y-57304446D01*
X185674001Y-57304446D01*
X186328328Y-56650116D01*
X186302933Y-56631666D01*
X186134637Y-56545914D01*
X185955002Y-56487548D01*
X185768447Y-56458000D01*
X185579553Y-56458000D01*
X185392997Y-56487548D01*
X185213362Y-56545914D01*
X185045060Y-56631669D01*
X185019670Y-56650116D01*
X185019669Y-56650116D01*
X180198168Y-56650116D01*
X183445520Y-53402766D01*
X183524577Y-53265834D01*
X183565501Y-53113107D01*
X183565501Y-52954992D01*
X183565501Y-52947397D01*
X183565500Y-52947379D01*
X183565500Y-50507096D01*
X183585185Y-50440057D01*
X183601814Y-50419420D01*
X184112320Y-49908914D01*
X184173642Y-49875430D01*
X184243334Y-49880414D01*
X184299267Y-49922286D01*
X184323684Y-49987750D01*
X184324000Y-49996596D01*
X184324000Y-50144246D01*
X184357242Y-50354127D01*
X184357242Y-50354130D01*
X184422904Y-50556217D01*
X184519375Y-50745550D01*
X184558728Y-50799716D01*
X185191037Y-50167408D01*
X185208075Y-50230993D01*
X185273901Y-50345007D01*
X185366993Y-50438099D01*
X185481007Y-50503925D01*
X185544590Y-50520962D01*
X184912282Y-51153269D01*
X184912282Y-51153270D01*
X184966449Y-51192624D01*
X185155782Y-51289095D01*
X185357870Y-51354757D01*
X185567754Y-51388000D01*
X185780246Y-51388000D01*
X185990127Y-51354757D01*
X185990130Y-51354757D01*
X186192217Y-51289095D01*
X186381554Y-51192622D01*
X186435716Y-51153270D01*
X186435717Y-51153270D01*
X185803408Y-50520962D01*
X185866993Y-50503925D01*
X185981007Y-50438099D01*
X186074099Y-50345007D01*
X186139925Y-50230993D01*
X186156962Y-50167408D01*
X186789270Y-50799717D01*
X186789270Y-50799716D01*
X186828622Y-50745554D01*
X186925095Y-50556217D01*
X186990757Y-50354130D01*
X186990757Y-50354127D01*
X187024000Y-50144246D01*
X187024000Y-49931753D01*
X186990757Y-49721872D01*
X186990757Y-49721869D01*
X186925095Y-49519782D01*
X186828624Y-49330449D01*
X186789270Y-49276282D01*
X186789269Y-49276282D01*
X186156962Y-49908590D01*
X186139925Y-49845007D01*
X186074099Y-49730993D01*
X185981007Y-49637901D01*
X185866993Y-49572075D01*
X185803408Y-49555037D01*
X186473627Y-48884818D01*
X186534950Y-48851333D01*
X186561308Y-48848499D01*
X186571871Y-48848499D01*
X186571872Y-48848499D01*
X186631483Y-48842091D01*
X186766331Y-48791796D01*
X186881546Y-48705546D01*
X186967796Y-48590331D01*
X187018091Y-48455483D01*
X187024500Y-48395873D01*
X187024499Y-46600128D01*
X187018091Y-46540517D01*
X187005227Y-46506028D01*
X186967797Y-46405671D01*
X186967793Y-46405664D01*
X186881547Y-46290455D01*
X186881544Y-46290452D01*
X186766335Y-46204206D01*
X186766328Y-46204202D01*
X186631482Y-46153908D01*
X186631483Y-46153908D01*
X186571883Y-46147501D01*
X186571881Y-46147500D01*
X186571873Y-46147500D01*
X186571864Y-46147500D01*
X184776129Y-46147500D01*
X184776123Y-46147501D01*
X184716516Y-46153908D01*
X184581671Y-46204202D01*
X184581664Y-46204206D01*
X184466455Y-46290452D01*
X184466452Y-46290455D01*
X184380206Y-46405664D01*
X184380202Y-46405671D01*
X184329908Y-46540517D01*
X184325196Y-46584351D01*
X184323501Y-46600123D01*
X184323500Y-46600135D01*
X184323500Y-47947901D01*
X184303815Y-48014940D01*
X184287181Y-48035582D01*
X183074777Y-49247985D01*
X183013454Y-49281470D01*
X182943762Y-49276486D01*
X182887829Y-49234614D01*
X182886778Y-49233189D01*
X182855971Y-49190787D01*
X182855967Y-49190782D01*
X182711213Y-49046028D01*
X182545614Y-48925715D01*
X182533707Y-48919648D01*
X182452917Y-48878483D01*
X182402123Y-48830511D01*
X182385328Y-48762690D01*
X182407865Y-48696555D01*
X182452917Y-48657516D01*
X182545610Y-48610287D01*
X182573081Y-48590328D01*
X182711213Y-48489971D01*
X182711215Y-48489968D01*
X182711219Y-48489966D01*
X182855966Y-48345219D01*
X182855968Y-48345215D01*
X182855971Y-48345213D01*
X182939470Y-48230284D01*
X182976287Y-48179610D01*
X183069220Y-47997219D01*
X183132477Y-47802534D01*
X183164500Y-47600352D01*
X183164500Y-47395648D01*
X183143006Y-47259941D01*
X183132477Y-47193465D01*
X183089464Y-47061086D01*
X183069220Y-46998781D01*
X183069218Y-46998778D01*
X183069218Y-46998776D01*
X183007414Y-46877480D01*
X182976287Y-46816390D01*
X182941468Y-46768465D01*
X182855971Y-46650786D01*
X182711213Y-46506028D01*
X182545614Y-46385715D01*
X182483348Y-46353989D01*
X182452917Y-46338483D01*
X182402123Y-46290511D01*
X182385328Y-46222690D01*
X182407865Y-46156555D01*
X182452917Y-46117516D01*
X182545610Y-46070287D01*
X182666060Y-45982776D01*
X182711213Y-45949971D01*
X182711215Y-45949968D01*
X182711219Y-45949966D01*
X182855966Y-45805219D01*
X182855968Y-45805215D01*
X182855971Y-45805213D01*
X182918607Y-45719000D01*
X182976287Y-45639610D01*
X183069220Y-45457219D01*
X183132477Y-45262534D01*
X183164500Y-45060352D01*
X183164500Y-44855648D01*
X183149637Y-44761809D01*
X183132477Y-44653465D01*
X183075174Y-44477107D01*
X183069220Y-44458781D01*
X183069218Y-44458778D01*
X183069218Y-44458776D01*
X183017865Y-44357991D01*
X182976287Y-44276390D01*
X182954593Y-44246530D01*
X182855971Y-44110786D01*
X182711213Y-43966028D01*
X182545613Y-43845715D01*
X182545612Y-43845714D01*
X182545610Y-43845713D01*
X182485898Y-43815288D01*
X182363223Y-43752781D01*
X182168534Y-43689522D01*
X181993995Y-43661878D01*
X181966352Y-43657500D01*
X181761648Y-43657500D01*
X181737329Y-43661351D01*
X181559465Y-43689522D01*
X181364776Y-43752781D01*
X181182386Y-43845715D01*
X181016786Y-43966028D01*
X180872028Y-44110786D01*
X180751715Y-44276386D01*
X180658781Y-44458776D01*
X180595522Y-44653465D01*
X180570519Y-44811331D01*
X180563500Y-44855648D01*
X180563500Y-45060352D01*
X180564916Y-45069294D01*
X180595522Y-45262534D01*
X180658781Y-45457223D01*
X180710135Y-45558009D01*
X180749252Y-45634781D01*
X180751715Y-45639613D01*
X180872028Y-45805213D01*
X181016786Y-45949971D01*
X181171749Y-46062556D01*
X181182390Y-46070287D01*
X181273840Y-46116883D01*
X181275080Y-46117515D01*
X181325876Y-46165490D01*
X181342671Y-46233311D01*
X181320134Y-46299446D01*
X181275080Y-46338485D01*
X181182386Y-46385715D01*
X181016786Y-46506028D01*
X180872028Y-46650786D01*
X180751715Y-46816386D01*
X180658781Y-46998776D01*
X180595522Y-47193465D01*
X180563500Y-47395648D01*
X180563500Y-47588902D01*
X180543815Y-47655941D01*
X180491011Y-47701696D01*
X180421853Y-47711640D01*
X180358297Y-47682615D01*
X180351819Y-47676583D01*
X178541590Y-45866355D01*
X178541588Y-45866352D01*
X178422717Y-45747481D01*
X178422716Y-45747480D01*
X178312742Y-45683987D01*
X178312741Y-45683986D01*
X178285783Y-45668422D01*
X178229881Y-45653443D01*
X178133057Y-45627499D01*
X177974943Y-45627499D01*
X177967347Y-45627499D01*
X177967331Y-45627500D01*
X173128500Y-45627500D01*
X173061461Y-45607815D01*
X173015706Y-45555011D01*
X173004500Y-45503500D01*
X173004499Y-44357998D01*
X173004498Y-44357981D01*
X172993999Y-44255203D01*
X172993998Y-44255200D01*
X172966081Y-44170952D01*
X172938814Y-44088666D01*
X172846712Y-43939344D01*
X172722656Y-43815288D01*
X172573334Y-43723186D01*
X172406797Y-43668001D01*
X172406795Y-43668000D01*
X172304010Y-43657500D01*
X171103998Y-43657500D01*
X171103981Y-43657501D01*
X171001203Y-43668000D01*
X171001200Y-43668001D01*
X170834668Y-43723185D01*
X170834663Y-43723187D01*
X170685342Y-43815289D01*
X170561289Y-43939342D01*
X170469187Y-44088663D01*
X170469186Y-44088666D01*
X170414001Y-44255203D01*
X170414001Y-44255204D01*
X170414000Y-44255204D01*
X170403500Y-44357983D01*
X170403500Y-44357991D01*
X170403500Y-44675649D01*
X170403501Y-44956500D01*
X170383817Y-45023539D01*
X170331013Y-45069294D01*
X170279501Y-45080500D01*
X166736741Y-45080500D01*
X166669702Y-45060815D01*
X166623947Y-45008011D01*
X166614003Y-44938853D01*
X166618810Y-44918181D01*
X166632231Y-44876876D01*
X166664500Y-44673138D01*
X166664500Y-44466861D01*
X166651826Y-44386842D01*
X166632231Y-44263124D01*
X166632230Y-44263120D01*
X166632230Y-44263119D01*
X166568489Y-44066945D01*
X166474839Y-43883147D01*
X166447643Y-43845715D01*
X166353593Y-43716267D01*
X166207733Y-43570407D01*
X166040852Y-43449160D01*
X165857054Y-43355510D01*
X165660879Y-43291769D01*
X165508073Y-43267567D01*
X165457139Y-43259500D01*
X165250861Y-43259500D01*
X165226355Y-43263381D01*
X165047123Y-43291768D01*
X165027214Y-43298237D01*
X164957373Y-43300229D01*
X164901220Y-43267985D01*
X164112590Y-42479355D01*
X164112588Y-42479352D01*
X163993717Y-42360481D01*
X163993716Y-42360480D01*
X163906904Y-42310360D01*
X163906904Y-42310359D01*
X163906900Y-42310358D01*
X163856785Y-42281423D01*
X163704057Y-42240499D01*
X163545943Y-42240499D01*
X163538347Y-42240499D01*
X163538331Y-42240500D01*
X158634619Y-42240500D01*
X158634603Y-42240499D01*
X158627007Y-42240499D01*
X158468893Y-42240499D01*
X158361537Y-42269265D01*
X158316160Y-42281424D01*
X158316159Y-42281425D01*
X158266046Y-42310359D01*
X158266045Y-42310360D01*
X158222639Y-42335420D01*
X158179235Y-42360479D01*
X158179232Y-42360481D01*
X157422481Y-43117232D01*
X157422479Y-43117235D01*
X157372361Y-43204044D01*
X157372359Y-43204046D01*
X157343425Y-43254159D01*
X157343424Y-43254160D01*
X157343423Y-43254165D01*
X157302499Y-43406893D01*
X157302499Y-43406895D01*
X157302499Y-43574996D01*
X157302500Y-43575009D01*
X157302500Y-44311380D01*
X157302499Y-44311398D01*
X157302499Y-44477104D01*
X157302498Y-44477104D01*
X157343423Y-44629835D01*
X157354521Y-44649057D01*
X157422477Y-44766762D01*
X157422481Y-44766767D01*
X157541349Y-44885635D01*
X157541355Y-44885640D01*
X158063513Y-45407798D01*
X158063760Y-45408046D01*
X158065665Y-45411553D01*
X158070667Y-45415672D01*
X158070677Y-45415684D01*
X158068772Y-45417270D01*
X158080498Y-45438849D01*
X158097067Y-45469192D01*
X158097057Y-45469322D01*
X158097120Y-45469437D01*
X158094569Y-45504112D01*
X158092083Y-45538884D01*
X158092003Y-45539008D01*
X158091995Y-45539119D01*
X158091560Y-45539696D01*
X158063583Y-45583230D01*
X158012036Y-45634777D01*
X158012030Y-45634784D01*
X157891715Y-45800386D01*
X157798781Y-45982776D01*
X157735522Y-46177465D01*
X157703500Y-46379648D01*
X157703500Y-46584351D01*
X157735522Y-46786534D01*
X157798781Y-46981223D01*
X157891715Y-47163613D01*
X158012028Y-47329213D01*
X158156786Y-47473971D01*
X158292909Y-47572868D01*
X158322390Y-47594287D01*
X158413840Y-47640883D01*
X158415080Y-47641515D01*
X158465876Y-47689490D01*
X158482671Y-47757311D01*
X158460134Y-47823446D01*
X158415080Y-47862485D01*
X158322386Y-47909715D01*
X158156786Y-48030028D01*
X158012028Y-48174786D01*
X157891715Y-48340386D01*
X157798781Y-48522776D01*
X157735522Y-48717465D01*
X157703500Y-48919648D01*
X157703500Y-49124351D01*
X157735522Y-49326534D01*
X157798781Y-49521223D01*
X157859001Y-49639409D01*
X157878654Y-49677981D01*
X157891715Y-49703613D01*
X158012028Y-49869213D01*
X158156786Y-50013971D01*
X158311749Y-50126556D01*
X158322390Y-50134287D01*
X158413840Y-50180883D01*
X158415080Y-50181515D01*
X158465876Y-50229490D01*
X158482671Y-50297311D01*
X158460134Y-50363446D01*
X158415080Y-50402485D01*
X158322386Y-50449715D01*
X158156786Y-50570028D01*
X158012028Y-50714786D01*
X157891715Y-50880386D01*
X157798781Y-51062776D01*
X157735522Y-51257465D01*
X157703500Y-51459648D01*
X157703500Y-51664352D01*
X157707878Y-51691995D01*
X157735522Y-51866534D01*
X157798781Y-52061223D01*
X157858283Y-52178000D01*
X157891585Y-52243359D01*
X157891715Y-52243613D01*
X158012028Y-52409213D01*
X158156786Y-52553971D01*
X158262343Y-52630661D01*
X158322390Y-52674287D01*
X158436431Y-52732394D01*
X158504776Y-52767218D01*
X158504778Y-52767218D01*
X158504781Y-52767220D01*
X158609137Y-52801127D01*
X158699465Y-52830477D01*
X158800557Y-52846488D01*
X158901648Y-52862500D01*
X158901649Y-52862500D01*
X159106351Y-52862500D01*
X159106352Y-52862500D01*
X159308534Y-52830477D01*
X159503219Y-52767220D01*
X159685610Y-52674287D01*
X159818139Y-52578000D01*
X159851213Y-52553971D01*
X159851215Y-52553968D01*
X159851219Y-52553966D01*
X159995966Y-52409219D01*
X159995968Y-52409215D01*
X159995971Y-52409213D01*
X160051782Y-52332394D01*
X160116287Y-52243610D01*
X160209220Y-52061219D01*
X160272477Y-51866534D01*
X160304500Y-51664352D01*
X160304500Y-51459648D01*
X160272477Y-51257465D01*
X160235300Y-51143048D01*
X160209220Y-51062781D01*
X160209218Y-51062778D01*
X160209218Y-51062776D01*
X160164274Y-50974570D01*
X160116287Y-50880390D01*
X160099300Y-50857009D01*
X159995971Y-50714786D01*
X159851213Y-50570028D01*
X159685614Y-50449715D01*
X159662816Y-50438099D01*
X159592917Y-50402483D01*
X159542123Y-50354511D01*
X159525328Y-50286690D01*
X159547865Y-50220555D01*
X159592917Y-50181516D01*
X159685610Y-50134287D01*
X159818139Y-50038000D01*
X159851213Y-50013971D01*
X159851215Y-50013968D01*
X159851219Y-50013966D01*
X159995966Y-49869219D01*
X159995968Y-49869215D01*
X159995971Y-49869213D01*
X160068587Y-49769264D01*
X160116287Y-49703610D01*
X160209220Y-49521219D01*
X160272477Y-49326534D01*
X160304500Y-49124352D01*
X160304500Y-48919648D01*
X160289699Y-48826198D01*
X160272477Y-48717465D01*
X160237651Y-48610284D01*
X160209220Y-48522781D01*
X160209218Y-48522778D01*
X160209218Y-48522776D01*
X160174929Y-48455482D01*
X160116287Y-48340390D01*
X160108556Y-48329749D01*
X159995971Y-48174786D01*
X159851213Y-48030028D01*
X159685614Y-47909715D01*
X159644250Y-47888639D01*
X159592917Y-47862483D01*
X159542123Y-47814511D01*
X159525328Y-47746690D01*
X159547865Y-47680555D01*
X159592917Y-47641516D01*
X159685610Y-47594287D01*
X159744202Y-47551718D01*
X159851213Y-47473971D01*
X159851215Y-47473968D01*
X159851219Y-47473966D01*
X159995966Y-47329219D01*
X159995968Y-47329215D01*
X159995971Y-47329213D01*
X160080298Y-47213144D01*
X160116287Y-47163610D01*
X160177498Y-47043474D01*
X160225471Y-46992681D01*
X160293292Y-46975885D01*
X160359427Y-46998422D01*
X160375662Y-47012089D01*
X163882092Y-50518520D01*
X163882094Y-50518521D01*
X163882098Y-50518524D01*
X163976640Y-50573107D01*
X164019024Y-50597577D01*
X164171751Y-50638501D01*
X164171753Y-50638501D01*
X164337462Y-50638501D01*
X164337478Y-50638500D01*
X165068296Y-50638500D01*
X165135335Y-50658185D01*
X165181090Y-50710989D01*
X165191034Y-50780147D01*
X165162009Y-50843703D01*
X165103231Y-50881477D01*
X165100390Y-50882275D01*
X164969214Y-50917423D01*
X164969209Y-50917426D01*
X164832290Y-50996475D01*
X164832282Y-50996481D01*
X164720478Y-51108286D01*
X164119427Y-51709336D01*
X164058104Y-51742821D01*
X164012349Y-51744128D01*
X163932617Y-51731500D01*
X163932611Y-51731500D01*
X163759389Y-51731500D01*
X163743927Y-51733949D01*
X163588302Y-51758597D01*
X163423552Y-51812128D01*
X163269211Y-51890768D01*
X163189256Y-51948859D01*
X163129072Y-51992586D01*
X163129070Y-51992588D01*
X163129069Y-51992588D01*
X163006588Y-52115069D01*
X163006588Y-52115070D01*
X163006586Y-52115072D01*
X162999820Y-52124385D01*
X162904768Y-52255211D01*
X162826128Y-52409552D01*
X162772597Y-52574302D01*
X162756829Y-52673859D01*
X162745500Y-52745389D01*
X162745500Y-52918611D01*
X162772598Y-53089701D01*
X162826127Y-53254445D01*
X162904768Y-53408788D01*
X163006586Y-53548928D01*
X163129072Y-53671414D01*
X163269212Y-53773232D01*
X163423555Y-53851873D01*
X163588299Y-53905402D01*
X163759389Y-53932500D01*
X163759390Y-53932500D01*
X163932610Y-53932500D01*
X163932611Y-53932500D01*
X164103701Y-53905402D01*
X164268445Y-53851873D01*
X164422788Y-53773232D01*
X164562928Y-53671414D01*
X164685414Y-53548928D01*
X164745682Y-53465975D01*
X164801012Y-53423311D01*
X164870626Y-53417332D01*
X164932421Y-53449938D01*
X164946315Y-53465973D01*
X165006586Y-53548928D01*
X165129072Y-53671414D01*
X165269212Y-53773232D01*
X165423555Y-53851873D01*
X165588299Y-53905402D01*
X165759389Y-53932500D01*
X165759390Y-53932500D01*
X165932610Y-53932500D01*
X165932611Y-53932500D01*
X166103701Y-53905402D01*
X166268445Y-53851873D01*
X166422788Y-53773232D01*
X166562928Y-53671414D01*
X166685414Y-53548928D01*
X166787232Y-53408788D01*
X166865873Y-53254445D01*
X166919402Y-53089701D01*
X166946500Y-52918611D01*
X166946500Y-52745389D01*
X166919402Y-52574299D01*
X166865873Y-52409555D01*
X166788547Y-52257794D01*
X166775652Y-52189125D01*
X166801929Y-52124385D01*
X166859035Y-52084128D01*
X166899033Y-52077500D01*
X170329049Y-52077500D01*
X170396088Y-52097185D01*
X170441843Y-52149989D01*
X170451787Y-52219147D01*
X170446980Y-52239817D01*
X170436011Y-52273574D01*
X170436010Y-52273581D01*
X170404000Y-52475682D01*
X170404000Y-52680317D01*
X170436009Y-52882417D01*
X170499244Y-53077031D01*
X170592141Y-53259350D01*
X170592147Y-53259359D01*
X170624523Y-53303921D01*
X170624524Y-53303922D01*
X171304000Y-52624446D01*
X171304000Y-52630661D01*
X171331259Y-52732394D01*
X171383920Y-52823606D01*
X171458394Y-52898080D01*
X171549606Y-52950741D01*
X171651339Y-52978000D01*
X171657553Y-52978000D01*
X170978076Y-53657474D01*
X171022650Y-53689859D01*
X171204968Y-53782755D01*
X171399582Y-53845990D01*
X171601683Y-53878000D01*
X171806317Y-53878000D01*
X172008417Y-53845990D01*
X172203031Y-53782755D01*
X172385349Y-53689859D01*
X172429921Y-53657474D01*
X171750447Y-52978000D01*
X171756661Y-52978000D01*
X171858394Y-52950741D01*
X171949606Y-52898080D01*
X172024080Y-52823606D01*
X172076741Y-52732394D01*
X172104000Y-52630661D01*
X172104000Y-52624447D01*
X172783474Y-53303921D01*
X172815859Y-53259349D01*
X172908755Y-53077031D01*
X172971990Y-52882417D01*
X173004000Y-52680317D01*
X173004000Y-52475682D01*
X172971990Y-52273582D01*
X172908755Y-52078968D01*
X172815859Y-51896650D01*
X172783474Y-51852077D01*
X172783474Y-51852076D01*
X172104000Y-52531551D01*
X172104000Y-52525339D01*
X172076741Y-52423606D01*
X172024080Y-52332394D01*
X171949606Y-52257920D01*
X171858394Y-52205259D01*
X171756661Y-52178000D01*
X171750446Y-52178000D01*
X171814626Y-52113820D01*
X171875949Y-52080335D01*
X171895752Y-52078205D01*
X171901104Y-52077501D01*
X171901107Y-52077501D01*
X172053835Y-52036577D01*
X172137025Y-51988547D01*
X172190766Y-51957520D01*
X172302570Y-51845716D01*
X172302570Y-51845714D01*
X172312774Y-51835511D01*
X172312778Y-51835506D01*
X173163506Y-50984778D01*
X173163511Y-50984774D01*
X173173714Y-50974570D01*
X173173716Y-50974570D01*
X173285520Y-50862766D01*
X173342550Y-50763987D01*
X173364577Y-50725835D01*
X173405500Y-50573108D01*
X173405500Y-50414993D01*
X173405500Y-48519943D01*
X173376164Y-48410459D01*
X173364577Y-48367215D01*
X173316814Y-48284488D01*
X173285520Y-48230284D01*
X173173716Y-48118480D01*
X173173715Y-48118479D01*
X173169385Y-48114149D01*
X173169374Y-48114139D01*
X172998077Y-47942842D01*
X172964592Y-47881519D01*
X172967828Y-47816841D01*
X172968585Y-47814511D01*
X172972477Y-47802534D01*
X173004500Y-47600352D01*
X173004500Y-47395648D01*
X172983006Y-47259941D01*
X172972477Y-47193465D01*
X172929464Y-47061086D01*
X172909220Y-46998781D01*
X172909218Y-46998777D01*
X172907714Y-46994148D01*
X172909035Y-46993718D01*
X172902236Y-46930486D01*
X172933509Y-46868006D01*
X172993597Y-46832352D01*
X173024266Y-46828500D01*
X177753903Y-46828500D01*
X177820942Y-46848185D01*
X177841584Y-46864819D01*
X180529707Y-49552943D01*
X180563192Y-49614266D01*
X180558208Y-49683958D01*
X180516336Y-49739891D01*
X180466220Y-49762241D01*
X180430921Y-49769263D01*
X180430913Y-49769265D01*
X180285242Y-49829603D01*
X180285229Y-49829610D01*
X180154126Y-49917211D01*
X180154122Y-49917214D01*
X180042628Y-50028708D01*
X180042625Y-50028712D01*
X179955024Y-50159815D01*
X179955017Y-50159828D01*
X179894679Y-50305499D01*
X179894676Y-50305511D01*
X179863915Y-50460154D01*
X179863915Y-50617847D01*
X179894676Y-50772490D01*
X179894679Y-50772502D01*
X179955017Y-50918173D01*
X179955024Y-50918186D01*
X180043017Y-51049875D01*
X180048667Y-51067921D01*
X180058892Y-51083831D01*
X180063343Y-51114790D01*
X180063895Y-51116552D01*
X180063915Y-51118766D01*
X180063915Y-51143048D01*
X180044230Y-51210087D01*
X179991426Y-51255842D01*
X179987370Y-51257608D01*
X179960826Y-51268603D01*
X179960814Y-51268609D01*
X179829711Y-51356210D01*
X179829707Y-51356213D01*
X179718213Y-51467707D01*
X179718210Y-51467711D01*
X179630609Y-51598814D01*
X179630602Y-51598827D01*
X179570264Y-51744498D01*
X179570261Y-51744508D01*
X179543769Y-51877692D01*
X179511384Y-51939603D01*
X179450668Y-51974177D01*
X179422152Y-51977500D01*
X174926940Y-51977500D01*
X174886019Y-51988464D01*
X174886019Y-51988465D01*
X174848751Y-51998451D01*
X174774214Y-52018423D01*
X174774209Y-52018426D01*
X174637290Y-52097475D01*
X174637282Y-52097481D01*
X174525478Y-52209286D01*
X168675427Y-58059336D01*
X168614104Y-58092821D01*
X168568349Y-58094128D01*
X168488617Y-58081500D01*
X168488611Y-58081500D01*
X168315389Y-58081500D01*
X168275728Y-58087781D01*
X168144302Y-58108597D01*
X167979552Y-58162128D01*
X167825211Y-58240768D01*
X167761666Y-58286937D01*
X167685072Y-58342586D01*
X167685070Y-58342588D01*
X167685069Y-58342588D01*
X167562588Y-58465069D01*
X167562588Y-58465070D01*
X167562586Y-58465072D01*
X167552626Y-58478781D01*
X167460768Y-58605211D01*
X167382128Y-58759552D01*
X167328597Y-58924302D01*
X167314129Y-59015652D01*
X167301500Y-59095389D01*
X167301500Y-59268611D01*
X167312322Y-59336940D01*
X167312665Y-59339102D01*
X167303711Y-59408395D01*
X167258714Y-59461847D01*
X167191963Y-59482487D01*
X167190192Y-59482500D01*
X164696176Y-59482500D01*
X164629137Y-59462815D01*
X164583382Y-59410011D01*
X164573438Y-59340853D01*
X164578245Y-59320182D01*
X164590476Y-59282538D01*
X164590476Y-59282537D01*
X164590477Y-59282534D01*
X164622500Y-59080352D01*
X164622500Y-58875648D01*
X164596813Y-58713468D01*
X164590477Y-58673465D01*
X164527218Y-58478776D01*
X164457826Y-58342588D01*
X164434287Y-58296390D01*
X164426556Y-58285749D01*
X164313971Y-58130786D01*
X164169213Y-57986028D01*
X164003613Y-57865715D01*
X164003612Y-57865714D01*
X164003610Y-57865713D01*
X163946653Y-57836691D01*
X163821223Y-57772781D01*
X163626534Y-57709522D01*
X163439631Y-57679920D01*
X163424352Y-57677500D01*
X163219648Y-57677500D01*
X163204369Y-57679920D01*
X163017465Y-57709522D01*
X162822776Y-57772781D01*
X162640386Y-57865715D01*
X162474786Y-57986028D01*
X162330028Y-58130786D01*
X162209715Y-58296386D01*
X162116781Y-58478776D01*
X162053522Y-58673465D01*
X162021500Y-58875648D01*
X162021500Y-59065853D01*
X162001815Y-59132892D01*
X161949011Y-59178647D01*
X161879853Y-59188591D01*
X161816297Y-59159566D01*
X161809819Y-59153534D01*
X151316640Y-48660355D01*
X151316638Y-48660352D01*
X151197767Y-48541481D01*
X151197766Y-48541480D01*
X151108540Y-48489966D01*
X151108539Y-48489965D01*
X151060833Y-48462422D01*
X151004931Y-48447443D01*
X150908107Y-48421499D01*
X150749993Y-48421499D01*
X150742397Y-48421499D01*
X150742381Y-48421500D01*
X150073602Y-48421500D01*
X150006563Y-48401815D01*
X149963117Y-48353795D01*
X149956287Y-48340390D01*
X149956285Y-48340387D01*
X149956284Y-48340385D01*
X149835971Y-48174786D01*
X149691213Y-48030028D01*
X149525614Y-47909715D01*
X149484250Y-47888639D01*
X149432917Y-47862483D01*
X149382123Y-47814511D01*
X149365328Y-47746690D01*
X149387865Y-47680555D01*
X149432917Y-47641516D01*
X149525610Y-47594287D01*
X149584202Y-47551718D01*
X149691213Y-47473971D01*
X149691215Y-47473968D01*
X149691219Y-47473966D01*
X149835966Y-47329219D01*
X149835968Y-47329215D01*
X149835971Y-47329213D01*
X149898103Y-47243694D01*
X149956287Y-47163610D01*
X150049220Y-46981219D01*
X150112477Y-46786534D01*
X150144500Y-46584352D01*
X150144500Y-46379648D01*
X150134707Y-46317819D01*
X150112477Y-46177465D01*
X150049218Y-45982776D01*
X150008658Y-45903174D01*
X149956287Y-45800390D01*
X149917846Y-45747480D01*
X149835971Y-45634786D01*
X149691219Y-45490034D01*
X149646058Y-45457223D01*
X149597547Y-45421978D01*
X149554882Y-45366649D01*
X149548903Y-45297036D01*
X149581508Y-45235240D01*
X149631426Y-45203955D01*
X149713334Y-45176814D01*
X149862656Y-45084712D01*
X149986712Y-44960656D01*
X150078814Y-44811334D01*
X150133999Y-44644797D01*
X150144500Y-44542009D01*
X150144499Y-43341992D01*
X150133999Y-43239203D01*
X150078814Y-43072666D01*
X149986712Y-42923344D01*
X149862656Y-42799288D01*
X149713334Y-42707186D01*
X149546797Y-42652001D01*
X149546795Y-42652000D01*
X149444010Y-42641500D01*
X148243998Y-42641500D01*
X148243981Y-42641501D01*
X148141203Y-42652000D01*
X148141200Y-42652001D01*
X147974668Y-42707185D01*
X147974663Y-42707187D01*
X147825342Y-42799289D01*
X147701289Y-42923342D01*
X147609187Y-43072663D01*
X147609185Y-43072668D01*
X147594417Y-43117235D01*
X147554001Y-43239203D01*
X147554001Y-43239204D01*
X147554000Y-43239204D01*
X147543500Y-43341983D01*
X147543500Y-44542001D01*
X147543501Y-44542018D01*
X147554000Y-44644796D01*
X147554001Y-44644799D01*
X147594418Y-44766767D01*
X147609186Y-44811334D01*
X147675089Y-44918181D01*
X147701289Y-44960657D01*
X147742492Y-45001860D01*
X147775977Y-45063183D01*
X147770993Y-45132875D01*
X147742492Y-45177222D01*
X146737033Y-46182681D01*
X146675710Y-46216166D01*
X146649352Y-46219000D01*
X145721012Y-46219000D01*
X145753925Y-46161993D01*
X145788000Y-46034826D01*
X145788000Y-45903174D01*
X145753925Y-45776007D01*
X145721012Y-45719000D01*
X146638000Y-45719000D01*
X146638000Y-45071172D01*
X146637999Y-45071155D01*
X146631598Y-45011627D01*
X146631596Y-45011620D01*
X146581354Y-44876913D01*
X146581350Y-44876906D01*
X146495190Y-44761812D01*
X146495187Y-44761809D01*
X146380093Y-44675649D01*
X146380086Y-44675645D01*
X146245379Y-44625403D01*
X146245372Y-44625401D01*
X146185844Y-44619000D01*
X145538000Y-44619000D01*
X145538000Y-45535988D01*
X145480993Y-45503075D01*
X145353826Y-45469000D01*
X145222174Y-45469000D01*
X145095007Y-45503075D01*
X145038000Y-45535988D01*
X145038000Y-44619000D01*
X144390155Y-44619000D01*
X144330627Y-44625401D01*
X144330620Y-44625403D01*
X144195913Y-44675645D01*
X144195906Y-44675649D01*
X144080812Y-44761809D01*
X144080809Y-44761812D01*
X143994649Y-44876906D01*
X143994645Y-44876913D01*
X143944403Y-45011620D01*
X143944401Y-45011627D01*
X143938000Y-45071155D01*
X143938000Y-45719000D01*
X144854988Y-45719000D01*
X144822075Y-45776007D01*
X144788000Y-45903174D01*
X144788000Y-46034826D01*
X144822075Y-46161993D01*
X144854988Y-46219000D01*
X143938000Y-46219000D01*
X143938000Y-46866844D01*
X143944401Y-46926372D01*
X143944403Y-46926379D01*
X143994645Y-47061086D01*
X143994647Y-47061089D01*
X144043392Y-47126204D01*
X144067809Y-47191668D01*
X144052957Y-47259941D01*
X144031807Y-47288196D01*
X143943245Y-47376759D01*
X143768286Y-47551718D01*
X143656481Y-47663522D01*
X143656480Y-47663524D01*
X143618225Y-47729784D01*
X143577423Y-47800455D01*
X143536499Y-47953183D01*
X143536499Y-47953185D01*
X143536499Y-48121286D01*
X143536500Y-48121299D01*
X143536500Y-57192330D01*
X143536499Y-57192348D01*
X143536499Y-57358054D01*
X143536498Y-57358054D01*
X143542371Y-57379971D01*
X143577423Y-57510785D01*
X143592444Y-57536801D01*
X143625016Y-57593218D01*
X143656479Y-57647715D01*
X143775349Y-57766585D01*
X143775355Y-57766590D01*
X149581922Y-63573157D01*
X149615407Y-63634480D01*
X149612173Y-63699155D01*
X149607522Y-63713468D01*
X149575500Y-63915648D01*
X149575500Y-64120351D01*
X149607522Y-64322534D01*
X149670781Y-64517223D01*
X149763715Y-64699613D01*
X149884028Y-64865213D01*
X150028786Y-65009971D01*
X150183749Y-65122556D01*
X150194390Y-65130287D01*
X150310607Y-65189503D01*
X150376776Y-65223218D01*
X150376778Y-65223218D01*
X150376781Y-65223220D01*
X150481137Y-65257127D01*
X150571465Y-65286477D01*
X150672557Y-65302488D01*
X150773648Y-65318500D01*
X150773649Y-65318500D01*
X150978351Y-65318500D01*
X150978352Y-65318500D01*
X151180534Y-65286477D01*
X151375219Y-65223220D01*
X151557610Y-65130287D01*
X151650590Y-65062732D01*
X151723213Y-65009971D01*
X151723215Y-65009968D01*
X151723219Y-65009966D01*
X151867966Y-64865219D01*
X151867968Y-64865215D01*
X151867971Y-64865213D01*
X151920732Y-64792590D01*
X151988287Y-64699610D01*
X152081220Y-64517219D01*
X152144477Y-64322534D01*
X152176500Y-64120352D01*
X152176500Y-63915648D01*
X152144477Y-63713466D01*
X152144476Y-63713462D01*
X152144476Y-63713461D01*
X152120548Y-63639818D01*
X152118553Y-63569977D01*
X152154633Y-63510144D01*
X152217334Y-63479316D01*
X152238479Y-63477500D01*
X155863521Y-63477500D01*
X155930560Y-63497185D01*
X155976315Y-63549989D01*
X155986259Y-63619147D01*
X155981452Y-63639818D01*
X155957523Y-63713461D01*
X155957523Y-63713464D01*
X155925500Y-63915648D01*
X155925500Y-64120351D01*
X155957522Y-64322534D01*
X156020781Y-64517223D01*
X156113715Y-64699613D01*
X156234028Y-64865213D01*
X156378786Y-65009971D01*
X156533749Y-65122556D01*
X156544390Y-65130287D01*
X156660607Y-65189503D01*
X156726776Y-65223218D01*
X156726778Y-65223218D01*
X156726781Y-65223220D01*
X156831137Y-65257127D01*
X156921465Y-65286477D01*
X157022557Y-65302488D01*
X157123648Y-65318500D01*
X157123649Y-65318500D01*
X157328351Y-65318500D01*
X157328352Y-65318500D01*
X157530534Y-65286477D01*
X157544842Y-65281827D01*
X157614679Y-65279831D01*
X157670841Y-65312077D01*
X157918284Y-65559520D01*
X157918285Y-65559521D01*
X157918287Y-65559522D01*
X157922773Y-65562112D01*
X157970990Y-65612678D01*
X157984214Y-65681285D01*
X157958247Y-65746150D01*
X157901333Y-65786679D01*
X157860775Y-65793500D01*
X142610500Y-65793500D01*
X142543461Y-65773815D01*
X142497706Y-65721011D01*
X142486500Y-65669500D01*
X142486500Y-41023706D01*
X142486524Y-41021276D01*
X142491641Y-40760258D01*
X142512636Y-40693621D01*
X142566326Y-40648910D01*
X142614273Y-40638699D01*
X143187102Y-40632506D01*
X143188442Y-40632500D01*
X188859500Y-40632500D01*
X188926539Y-40652185D01*
G37*
%TD.AperFunction*%
%TA.AperFunction,Conductor*%
G36*
X150595992Y-49642185D02*
G01*
X150616634Y-49658819D01*
X156019671Y-55061856D01*
X156053156Y-55123179D01*
X156048172Y-55192871D01*
X156006300Y-55248804D01*
X155988286Y-55260021D01*
X155956648Y-55276141D01*
X155956645Y-55276143D01*
X155912077Y-55308523D01*
X155912077Y-55308524D01*
X156591554Y-55988000D01*
X156585339Y-55988000D01*
X156483606Y-56015259D01*
X156392394Y-56067920D01*
X156317920Y-56142394D01*
X156265259Y-56233606D01*
X156238000Y-56335339D01*
X156238000Y-56341553D01*
X155558524Y-55662077D01*
X155558523Y-55662077D01*
X155526143Y-55706644D01*
X155433244Y-55888970D01*
X155376333Y-56064123D01*
X155336895Y-56121799D01*
X155272537Y-56148997D01*
X155203690Y-56137082D01*
X155170721Y-56113486D01*
X150581819Y-51524584D01*
X150548334Y-51463261D01*
X150545500Y-51436903D01*
X150545500Y-50857009D01*
X150545501Y-50856996D01*
X150545501Y-50688895D01*
X150545501Y-50688893D01*
X150504577Y-50536165D01*
X150463228Y-50464547D01*
X150425520Y-50399234D01*
X150313716Y-50287430D01*
X150313715Y-50287429D01*
X150309385Y-50283099D01*
X150309374Y-50283089D01*
X149935906Y-49909621D01*
X149920795Y-49881947D01*
X149904124Y-49855176D01*
X149904176Y-49851512D01*
X149902421Y-49848298D01*
X149904670Y-49816842D01*
X149905120Y-49785314D01*
X149907226Y-49781106D01*
X149907405Y-49778606D01*
X149920237Y-49753421D01*
X149921698Y-49751216D01*
X149956287Y-49703610D01*
X149966336Y-49683886D01*
X149970252Y-49677981D01*
X149991772Y-49659863D01*
X150011091Y-49639409D01*
X150018426Y-49637424D01*
X150023703Y-49632983D01*
X150045047Y-49630224D01*
X150073602Y-49622500D01*
X150528953Y-49622500D01*
X150595992Y-49642185D01*
G37*
%TD.AperFunction*%
%TA.AperFunction,Conductor*%
G36*
X166650202Y-46301185D02*
G01*
X166695957Y-46353989D01*
X166705901Y-46423147D01*
X166693648Y-46461795D01*
X166639976Y-46567131D01*
X166576256Y-46763240D01*
X166544000Y-46966895D01*
X166544000Y-47173104D01*
X166576256Y-47376759D01*
X166639976Y-47572868D01*
X166733587Y-47756590D01*
X166767365Y-47803080D01*
X166767365Y-47803081D01*
X167411861Y-47158584D01*
X167434667Y-47243694D01*
X167493910Y-47346306D01*
X167577694Y-47430090D01*
X167680306Y-47489333D01*
X167765414Y-47512137D01*
X167120917Y-48156633D01*
X167120918Y-48156634D01*
X167167404Y-48190408D01*
X167167417Y-48190416D01*
X167351131Y-48284023D01*
X167547240Y-48347743D01*
X167750896Y-48380000D01*
X167957104Y-48380000D01*
X168160759Y-48347743D01*
X168356868Y-48284023D01*
X168540590Y-48190412D01*
X168587080Y-48156634D01*
X168587080Y-48156633D01*
X167942585Y-47512138D01*
X168027694Y-47489333D01*
X168130306Y-47430090D01*
X168214090Y-47346306D01*
X168273333Y-47243694D01*
X168296138Y-47158585D01*
X168940633Y-47803080D01*
X168940634Y-47803080D01*
X168974412Y-47756590D01*
X169068023Y-47572868D01*
X169131743Y-47376759D01*
X169164000Y-47173104D01*
X169164000Y-46966895D01*
X169131743Y-46763240D01*
X169068023Y-46567131D01*
X169014352Y-46461795D01*
X169001456Y-46393126D01*
X169027732Y-46328385D01*
X169084839Y-46288128D01*
X169124837Y-46281500D01*
X170240743Y-46281500D01*
X170307782Y-46301185D01*
X170328424Y-46317819D01*
X170602986Y-46592381D01*
X170615840Y-46605237D01*
X170633024Y-46636712D01*
X170649318Y-46666553D01*
X170649317Y-46666557D01*
X170649320Y-46666562D01*
X170647121Y-46697268D01*
X170644334Y-46736245D01*
X170644330Y-46736252D01*
X170644330Y-46736254D01*
X170644327Y-46736257D01*
X170628472Y-46765794D01*
X170591712Y-46816391D01*
X170498781Y-46998776D01*
X170435522Y-47193465D01*
X170403500Y-47395648D01*
X170403500Y-47600351D01*
X170435522Y-47802534D01*
X170498781Y-47997223D01*
X170556906Y-48111297D01*
X170589252Y-48174781D01*
X170591715Y-48179613D01*
X170712028Y-48345213D01*
X170856786Y-48489971D01*
X170994928Y-48590335D01*
X171022390Y-48610287D01*
X171106776Y-48653284D01*
X171115080Y-48657515D01*
X171165876Y-48705490D01*
X171182671Y-48773311D01*
X171160134Y-48839446D01*
X171115080Y-48878485D01*
X171022386Y-48925715D01*
X170856786Y-49046028D01*
X170712028Y-49190786D01*
X170591715Y-49356385D01*
X170584883Y-49369795D01*
X170536909Y-49420591D01*
X170474398Y-49437500D01*
X164550906Y-49437500D01*
X164483867Y-49417815D01*
X164463225Y-49401181D01*
X163981692Y-48919648D01*
X163470765Y-48408722D01*
X163437281Y-48347400D01*
X163442265Y-48277709D01*
X163484137Y-48221775D01*
X163502145Y-48210561D01*
X163540852Y-48190840D01*
X163707733Y-48069593D01*
X163853593Y-47923733D01*
X163974840Y-47756852D01*
X164068488Y-47573057D01*
X164075421Y-47551720D01*
X164132230Y-47376880D01*
X164132230Y-47376879D01*
X164132231Y-47376876D01*
X164164500Y-47173139D01*
X164164500Y-46966861D01*
X164132231Y-46763124D01*
X164132230Y-46763120D01*
X164132230Y-46763119D01*
X164068488Y-46566943D01*
X164068488Y-46566942D01*
X164014913Y-46461794D01*
X164002017Y-46393125D01*
X164028294Y-46328385D01*
X164085400Y-46288128D01*
X164125398Y-46281500D01*
X166583163Y-46281500D01*
X166650202Y-46301185D01*
G37*
%TD.AperFunction*%
%TD*%
M02*
