%TF.GenerationSoftware,KiCad,Pcbnew,9.0.6*%
%TF.CreationDate,2025-12-16T12:18:39+05:30*%
%TF.ProjectId,Headphone Amplifier,48656164-7068-46f6-9e65-20416d706c69,rev?*%
%TF.SameCoordinates,Original*%
%TF.FileFunction,Copper,L1,Top*%
%TF.FilePolarity,Positive*%
%FSLAX46Y46*%
G04 Gerber Fmt 4.6, Leading zero omitted, Abs format (unit mm)*
G04 Created by KiCad (PCBNEW 9.0.6) date 2025-12-16 12:18:39*
%MOMM*%
%LPD*%
G01*
G04 APERTURE LIST*
G04 Aperture macros list*
%AMRoundRect*
0 Rectangle with rounded corners*
0 $1 Rounding radius*
0 $2 $3 $4 $5 $6 $7 $8 $9 X,Y pos of 4 corners*
0 Add a 4 corners polygon primitive as box body*
4,1,4,$2,$3,$4,$5,$6,$7,$8,$9,$2,$3,0*
0 Add four circle primitives for the rounded corners*
1,1,$1+$1,$2,$3*
1,1,$1+$1,$4,$5*
1,1,$1+$1,$6,$7*
1,1,$1+$1,$8,$9*
0 Add four rect primitives between the rounded corners*
20,1,$1+$1,$2,$3,$4,$5,0*
20,1,$1+$1,$4,$5,$6,$7,0*
20,1,$1+$1,$6,$7,$8,$9,0*
20,1,$1+$1,$8,$9,$2,$3,0*%
G04 Aperture macros list end*
%TA.AperFunction,ComponentPad*%
%ADD10C,1.600000*%
%TD*%
%TA.AperFunction,ComponentPad*%
%ADD11C,1.400000*%
%TD*%
%TA.AperFunction,ComponentPad*%
%ADD12C,1.200000*%
%TD*%
%TA.AperFunction,ComponentPad*%
%ADD13RoundRect,0.250000X-0.550000X-0.550000X0.550000X-0.550000X0.550000X0.550000X-0.550000X0.550000X0*%
%TD*%
%TA.AperFunction,ComponentPad*%
%ADD14R,1.700000X1.700000*%
%TD*%
%TA.AperFunction,ComponentPad*%
%ADD15C,1.700000*%
%TD*%
%TA.AperFunction,ComponentPad*%
%ADD16C,1.620000*%
%TD*%
%TA.AperFunction,ViaPad*%
%ADD17C,0.600000*%
%TD*%
%TA.AperFunction,Conductor*%
%ADD18C,0.200000*%
%TD*%
G04 APERTURE END LIST*
D10*
%TO.P,C2,1*%
%TO.N,Net-(C2-Pad1)*%
X150876000Y-64018000D03*
%TO.P,C2,2*%
%TO.N,Net-(C2-Pad2)*%
X150876000Y-59018000D03*
%TD*%
%TO.P,C1,1*%
%TO.N,Net-(C1-Pad1)*%
X151638000Y-56388000D03*
%TO.P,C1,2*%
%TO.N,GND*%
X156638000Y-56388000D03*
%TD*%
%TO.P,C3,1*%
%TO.N,Net-(C1-Pad1)*%
X157226000Y-64018000D03*
%TO.P,C3,2*%
%TO.N,Net-(U1A--)*%
X157226000Y-59018000D03*
%TD*%
D11*
%TO.P,R3,1*%
%TO.N,Net-(C4-Pad2)*%
X185674000Y-62738000D03*
%TO.P,R3,2*%
%TO.N,GND*%
X185674000Y-57658000D03*
%TD*%
D12*
%TO.P,C6,1*%
%TO.N,Net-(C4-Pad1)*%
X168402000Y-59182000D03*
%TO.P,C6,2*%
%TO.N,Net-(J2-Pin_1)*%
X170402000Y-59182000D03*
%TD*%
%TO.P,C5,1*%
%TO.N,Net-(U2--)*%
X163846000Y-52832000D03*
%TO.P,C5,2*%
%TO.N,Net-(U2-BYPASS)*%
X165846000Y-52832000D03*
%TD*%
D13*
%TO.P,U1,1*%
%TO.N,Net-(C2-Pad1)*%
X148844000Y-43942000D03*
D10*
%TO.P,U1,2,-*%
%TO.N,Net-(U1A--)*%
X148844000Y-46482000D03*
%TO.P,U1,3,+*%
%TO.N,Net-(U1A-+)*%
X148844000Y-49022000D03*
%TO.P,U1,4,V-*%
%TO.N,GND*%
X148844000Y-51562000D03*
%TO.P,U1,5*%
%TO.N,N/C*%
X159004000Y-51562000D03*
%TO.P,U1,6*%
X159004000Y-49022000D03*
%TO.P,U1,7*%
X159004000Y-46482000D03*
%TO.P,U1,8,V+*%
%TO.N,+12V*%
X159004000Y-43942000D03*
%TD*%
D11*
%TO.P,R2,1*%
%TO.N,Net-(C1-Pad1)*%
X181102000Y-58166000D03*
%TO.P,R2,2*%
%TO.N,Net-(U1A-+)*%
X176022000Y-58166000D03*
%TD*%
D14*
%TO.P,J1,1,Pin_1*%
%TO.N,GND*%
X145288000Y-45969000D03*
D15*
%TO.P,J1,2,Pin_2*%
%TO.N,Net-(J1-Pin_2)*%
X145288000Y-48509000D03*
%TD*%
D16*
%TO.P,RV1,1,1*%
%TO.N,Net-(C2-Pad2)*%
X162854000Y-47070000D03*
%TO.P,RV1,2,2*%
%TO.N,Net-(U2-+)*%
X165354000Y-44570000D03*
%TO.P,RV1,3,3*%
%TO.N,GND*%
X167854000Y-47070000D03*
%TD*%
D13*
%TO.P,U2,1,GAIN*%
%TO.N,unconnected-(U2-GAIN-Pad1)*%
X171704000Y-44958000D03*
D10*
%TO.P,U2,2,-*%
%TO.N,Net-(U2--)*%
X171704000Y-47498000D03*
%TO.P,U2,3,+*%
%TO.N,Net-(U2-+)*%
X171704000Y-50038000D03*
%TO.P,U2,4,GND*%
%TO.N,GND*%
X171704000Y-52578000D03*
%TO.P,U2,5*%
%TO.N,Net-(C4-Pad1)*%
X181864000Y-52578000D03*
%TO.P,U2,6,V+*%
%TO.N,+12V*%
X181864000Y-50038000D03*
%TO.P,U2,7,BYPASS*%
%TO.N,Net-(U2-BYPASS)*%
X181864000Y-47498000D03*
%TO.P,U2,8,GAIN*%
%TO.N,unconnected-(U2-GAIN-Pad8)*%
X181864000Y-44958000D03*
%TD*%
D14*
%TO.P,J2,1,Pin_1*%
%TO.N,Net-(J2-Pin_1)*%
X185674000Y-47498000D03*
D15*
%TO.P,J2,2,Pin_2*%
%TO.N,GND*%
X185674000Y-50038000D03*
%TD*%
D11*
%TO.P,R1,1*%
%TO.N,Net-(J1-Pin_2)*%
X181610000Y-62738000D03*
%TO.P,R1,2*%
%TO.N,Net-(C1-Pad1)*%
X176530000Y-62738000D03*
%TD*%
D10*
%TO.P,C4,1*%
%TO.N,Net-(C4-Pad1)*%
X163322000Y-63978000D03*
%TO.P,C4,2*%
%TO.N,Net-(C4-Pad2)*%
X163322000Y-58978000D03*
%TD*%
D17*
%TO.N,Net-(U2-BYPASS)*%
X180664415Y-50539001D03*
X180340000Y-51978000D03*
%TD*%
D18*
%TO.N,GND*%
X164131000Y-48895000D02*
X168021000Y-48895000D01*
X156638000Y-56388000D02*
X164131000Y-48895000D01*
X168021000Y-48895000D02*
X171704000Y-52578000D01*
X151812000Y-51562000D02*
X156638000Y-56388000D01*
X145288000Y-45969000D02*
X145288000Y-45974000D01*
X145288000Y-45969000D02*
X147240000Y-47921000D01*
X183806000Y-51139000D02*
X183893500Y-51051500D01*
X183893500Y-55877500D02*
X183893500Y-51051500D01*
X183893500Y-51051500D02*
X185674000Y-49271000D01*
X173143000Y-51139000D02*
X183806000Y-51139000D01*
X147240000Y-47921000D02*
X147240000Y-49958000D01*
X147240000Y-49958000D02*
X148844000Y-51562000D01*
X171704000Y-52578000D02*
X173143000Y-51139000D01*
X148844000Y-51562000D02*
X151812000Y-51562000D01*
X167854000Y-47070000D02*
X167854000Y-48728000D01*
X167854000Y-48728000D02*
X168021000Y-48895000D01*
X185674000Y-57658000D02*
X183893500Y-55877500D01*
%TO.N,Net-(C1-Pad1)*%
X158728000Y-58395850D02*
X157848150Y-57516000D01*
X157848150Y-57516000D02*
X152766000Y-57516000D01*
X157226000Y-64018000D02*
X158728000Y-62516000D01*
X152766000Y-57516000D02*
X151638000Y-56388000D01*
X158728000Y-62516000D02*
X158728000Y-58395850D01*
%TO.N,Net-(C2-Pad2)*%
X162854000Y-47070000D02*
X162854000Y-46234950D01*
X162854000Y-46234950D02*
X159059050Y-42440000D01*
X151977000Y-57917000D02*
X150876000Y-59018000D01*
X145380800Y-42440000D02*
X143335000Y-44485800D01*
X158327000Y-58561950D02*
X157682050Y-57917000D01*
X157682050Y-57917000D02*
X151977000Y-57917000D01*
X152422470Y-65520000D02*
X158327000Y-59615470D01*
X150253850Y-65520000D02*
X152422470Y-65520000D01*
X159059050Y-42440000D02*
X145380800Y-42440000D01*
X158327000Y-59615470D02*
X158327000Y-58561950D01*
X143335000Y-58601150D02*
X150253850Y-65520000D01*
X143335000Y-44485800D02*
X143335000Y-58601150D01*
%TO.N,Net-(C4-Pad1)*%
X163606000Y-63978000D02*
X163322000Y-63978000D01*
X168402000Y-59182000D02*
X163606000Y-63978000D01*
%TO.N,Net-(C4-Pad2)*%
X168775207Y-58281000D02*
X164019000Y-58281000D01*
X169303000Y-59357207D02*
X169303000Y-58808793D01*
X183019000Y-60083000D02*
X170028793Y-60083000D01*
X170028793Y-60083000D02*
X169303000Y-59357207D01*
X169303000Y-58808793D02*
X168775207Y-58281000D01*
X164019000Y-58281000D02*
X163322000Y-58978000D01*
X185674000Y-62738000D02*
X183019000Y-60083000D01*
%TO.N,Net-(U2-BYPASS)*%
X180594000Y-50738000D02*
X180594000Y-50609416D01*
X180340000Y-51978000D02*
X180279372Y-52038628D01*
X180594000Y-50609416D02*
X180664415Y-50539001D01*
X181864000Y-47498000D02*
X180763000Y-48599000D01*
X180763000Y-48599000D02*
X180763000Y-50631000D01*
X180656000Y-50738000D02*
X180594000Y-50738000D01*
X180763000Y-50631000D02*
X180656000Y-50738000D01*
X166693000Y-53679000D02*
X165846000Y-52832000D01*
X180279372Y-53679000D02*
X166693000Y-53679000D01*
X180279372Y-52038628D02*
X180279372Y-53679000D01*
%TD*%
%TA.AperFunction,Conductor*%
%TO.N,GND*%
G36*
X188926539Y-40652185D02*
G01*
X188972294Y-40704989D01*
X188983500Y-40756500D01*
X188983500Y-65669500D01*
X188963815Y-65736539D01*
X188911011Y-65782294D01*
X188859500Y-65793500D01*
X153297567Y-65793500D01*
X153230528Y-65773815D01*
X153184773Y-65721011D01*
X153174829Y-65651853D01*
X153203854Y-65588297D01*
X153209886Y-65581819D01*
X157915819Y-60875886D01*
X157977142Y-60842401D01*
X158046834Y-60847385D01*
X158102767Y-60889257D01*
X158127184Y-60954721D01*
X158127500Y-60963567D01*
X158127500Y-62215901D01*
X158107815Y-62282940D01*
X158091181Y-62303582D01*
X157670841Y-62723921D01*
X157609518Y-62757406D01*
X157544845Y-62754172D01*
X157530535Y-62749523D01*
X157429443Y-62733511D01*
X157328352Y-62717500D01*
X157123648Y-62717500D01*
X157099329Y-62721351D01*
X156921465Y-62749522D01*
X156726776Y-62812781D01*
X156544386Y-62905715D01*
X156378786Y-63026028D01*
X156234028Y-63170786D01*
X156113715Y-63336386D01*
X156020781Y-63518776D01*
X155957522Y-63713465D01*
X155925500Y-63915648D01*
X155925500Y-64120351D01*
X155957522Y-64322534D01*
X156020781Y-64517223D01*
X156084691Y-64642653D01*
X156093333Y-64659613D01*
X156113715Y-64699613D01*
X156234028Y-64865213D01*
X156378786Y-65009971D01*
X156489330Y-65090284D01*
X156544390Y-65130287D01*
X156648273Y-65183218D01*
X156726776Y-65223218D01*
X156726778Y-65223218D01*
X156726781Y-65223220D01*
X156798359Y-65246477D01*
X156921465Y-65286477D01*
X157022557Y-65302488D01*
X157123648Y-65318500D01*
X157123649Y-65318500D01*
X157328351Y-65318500D01*
X157328352Y-65318500D01*
X157530534Y-65286477D01*
X157725219Y-65223220D01*
X157907610Y-65130287D01*
X158000590Y-65062732D01*
X158073213Y-65009971D01*
X158073215Y-65009968D01*
X158073219Y-65009966D01*
X158217966Y-64865219D01*
X158217968Y-64865215D01*
X158217971Y-64865213D01*
X158270732Y-64792590D01*
X158338287Y-64699610D01*
X158431220Y-64517219D01*
X158494477Y-64322534D01*
X158526500Y-64120352D01*
X158526500Y-63915648D01*
X158494477Y-63713466D01*
X158489826Y-63699154D01*
X158487832Y-63629315D01*
X158520075Y-63573159D01*
X159208520Y-62884716D01*
X159287577Y-62747784D01*
X159328501Y-62595057D01*
X159328501Y-62436942D01*
X159328501Y-62429347D01*
X159328500Y-62429329D01*
X159328500Y-58875648D01*
X162021500Y-58875648D01*
X162021500Y-59080352D01*
X162021712Y-59081690D01*
X162053522Y-59282534D01*
X162116781Y-59477223D01*
X162209715Y-59659613D01*
X162330028Y-59825213D01*
X162474786Y-59969971D01*
X162621291Y-60076411D01*
X162640390Y-60090287D01*
X162756607Y-60149503D01*
X162822776Y-60183218D01*
X162822778Y-60183218D01*
X162822781Y-60183220D01*
X162927137Y-60217127D01*
X163017465Y-60246477D01*
X163102763Y-60259987D01*
X163219648Y-60278500D01*
X163219649Y-60278500D01*
X163424351Y-60278500D01*
X163424352Y-60278500D01*
X163626534Y-60246477D01*
X163821219Y-60183220D01*
X164003610Y-60090287D01*
X164097853Y-60021816D01*
X164169213Y-59969971D01*
X164169215Y-59969968D01*
X164169219Y-59969966D01*
X164313966Y-59825219D01*
X164313968Y-59825215D01*
X164313971Y-59825213D01*
X164405223Y-59699613D01*
X164434287Y-59659610D01*
X164527220Y-59477219D01*
X164590477Y-59282534D01*
X164622500Y-59080352D01*
X164622500Y-59005500D01*
X164642185Y-58938461D01*
X164694989Y-58892706D01*
X164746500Y-58881500D01*
X167190192Y-58881500D01*
X167257231Y-58901185D01*
X167302986Y-58953989D01*
X167312930Y-59023147D01*
X167312665Y-59024898D01*
X167301500Y-59095389D01*
X167301500Y-59268616D01*
X167314128Y-59348349D01*
X167305173Y-59417642D01*
X167279336Y-59455427D01*
X163978174Y-62756589D01*
X163916851Y-62790074D01*
X163847159Y-62785090D01*
X163834198Y-62779393D01*
X163821223Y-62772781D01*
X163626534Y-62709522D01*
X163451995Y-62681878D01*
X163424352Y-62677500D01*
X163219648Y-62677500D01*
X163195329Y-62681351D01*
X163017465Y-62709522D01*
X162822776Y-62772781D01*
X162640386Y-62865715D01*
X162474786Y-62986028D01*
X162330028Y-63130786D01*
X162209715Y-63296386D01*
X162116781Y-63478776D01*
X162053522Y-63673465D01*
X162021500Y-63875648D01*
X162021500Y-64080351D01*
X162053522Y-64282534D01*
X162116781Y-64477223D01*
X162209715Y-64659613D01*
X162330028Y-64825213D01*
X162474786Y-64969971D01*
X162629749Y-65082556D01*
X162640390Y-65090287D01*
X162756607Y-65149503D01*
X162822776Y-65183218D01*
X162822778Y-65183218D01*
X162822781Y-65183220D01*
X162927137Y-65217127D01*
X163017465Y-65246477D01*
X163118557Y-65262488D01*
X163219648Y-65278500D01*
X163219649Y-65278500D01*
X163424351Y-65278500D01*
X163424352Y-65278500D01*
X163626534Y-65246477D01*
X163821219Y-65183220D01*
X164003610Y-65090287D01*
X164096590Y-65022732D01*
X164169213Y-64969971D01*
X164169215Y-64969968D01*
X164169219Y-64969966D01*
X164313966Y-64825219D01*
X164313968Y-64825215D01*
X164313971Y-64825213D01*
X164405224Y-64699612D01*
X164434287Y-64659610D01*
X164527220Y-64477219D01*
X164590477Y-64282534D01*
X164622500Y-64080352D01*
X164622500Y-63875648D01*
X164622499Y-63875643D01*
X164622249Y-63872468D01*
X164622500Y-63871272D01*
X164622500Y-63870776D01*
X164622604Y-63870776D01*
X164636607Y-63804090D01*
X164658182Y-63775051D01*
X165789720Y-62643513D01*
X175329500Y-62643513D01*
X175329500Y-62832486D01*
X175359059Y-63019118D01*
X175417454Y-63198836D01*
X175467159Y-63296386D01*
X175503240Y-63367199D01*
X175614310Y-63520073D01*
X175747927Y-63653690D01*
X175900801Y-63764760D01*
X175977991Y-63804090D01*
X176069163Y-63850545D01*
X176069165Y-63850545D01*
X176069168Y-63850547D01*
X176146436Y-63875653D01*
X176248881Y-63908940D01*
X176435514Y-63938500D01*
X176435519Y-63938500D01*
X176624486Y-63938500D01*
X176811118Y-63908940D01*
X176990832Y-63850547D01*
X177159199Y-63764760D01*
X177312073Y-63653690D01*
X177445690Y-63520073D01*
X177556760Y-63367199D01*
X177642547Y-63198832D01*
X177700940Y-63019118D01*
X177706181Y-62986028D01*
X177730500Y-62832486D01*
X177730500Y-62643513D01*
X180409500Y-62643513D01*
X180409500Y-62832486D01*
X180439059Y-63019118D01*
X180497454Y-63198836D01*
X180547159Y-63296386D01*
X180583240Y-63367199D01*
X180694310Y-63520073D01*
X180827927Y-63653690D01*
X180980801Y-63764760D01*
X181057991Y-63804090D01*
X181149163Y-63850545D01*
X181149165Y-63850545D01*
X181149168Y-63850547D01*
X181226436Y-63875653D01*
X181328881Y-63908940D01*
X181515514Y-63938500D01*
X181515519Y-63938500D01*
X181704486Y-63938500D01*
X181891118Y-63908940D01*
X182070832Y-63850547D01*
X182239199Y-63764760D01*
X182392073Y-63653690D01*
X182525690Y-63520073D01*
X182636760Y-63367199D01*
X182722547Y-63198832D01*
X182780940Y-63019118D01*
X182786181Y-62986028D01*
X182810500Y-62832486D01*
X182810500Y-62643513D01*
X182780940Y-62456881D01*
X182722545Y-62277163D01*
X182636759Y-62108800D01*
X182525690Y-61955927D01*
X182392073Y-61822310D01*
X182239199Y-61711240D01*
X182070836Y-61625454D01*
X181891118Y-61567059D01*
X181704486Y-61537500D01*
X181704481Y-61537500D01*
X181515519Y-61537500D01*
X181515514Y-61537500D01*
X181328881Y-61567059D01*
X181149163Y-61625454D01*
X180980800Y-61711240D01*
X180893579Y-61774610D01*
X180827927Y-61822310D01*
X180827925Y-61822312D01*
X180827924Y-61822312D01*
X180694312Y-61955924D01*
X180694312Y-61955925D01*
X180694310Y-61955927D01*
X180646610Y-62021579D01*
X180583240Y-62108800D01*
X180497454Y-62277163D01*
X180439059Y-62456881D01*
X180409500Y-62643513D01*
X177730500Y-62643513D01*
X177700940Y-62456881D01*
X177642545Y-62277163D01*
X177556759Y-62108800D01*
X177445690Y-61955927D01*
X177312073Y-61822310D01*
X177159199Y-61711240D01*
X176990836Y-61625454D01*
X176811118Y-61567059D01*
X176624486Y-61537500D01*
X176624481Y-61537500D01*
X176435519Y-61537500D01*
X176435514Y-61537500D01*
X176248881Y-61567059D01*
X176069163Y-61625454D01*
X175900800Y-61711240D01*
X175813579Y-61774610D01*
X175747927Y-61822310D01*
X175747925Y-61822312D01*
X175747924Y-61822312D01*
X175614312Y-61955924D01*
X175614312Y-61955925D01*
X175614310Y-61955927D01*
X175566610Y-62021579D01*
X175503240Y-62108800D01*
X175417454Y-62277163D01*
X175359059Y-62456881D01*
X175329500Y-62643513D01*
X165789720Y-62643513D01*
X168128573Y-60304660D01*
X168189894Y-60271177D01*
X168235646Y-60269870D01*
X168288715Y-60278275D01*
X168315386Y-60282500D01*
X168315389Y-60282500D01*
X168488610Y-60282500D01*
X168488611Y-60282500D01*
X168659701Y-60255402D01*
X168824445Y-60201873D01*
X168978788Y-60123232D01*
X169032694Y-60084067D01*
X169098500Y-60060586D01*
X169166554Y-60076411D01*
X169193261Y-60096703D01*
X169543932Y-60447374D01*
X169543942Y-60447385D01*
X169548272Y-60451715D01*
X169548273Y-60451716D01*
X169660077Y-60563520D01*
X169746888Y-60613639D01*
X169746890Y-60613641D01*
X169797006Y-60642576D01*
X169797008Y-60642577D01*
X169949735Y-60683500D01*
X169949736Y-60683500D01*
X182718903Y-60683500D01*
X182785942Y-60703185D01*
X182806584Y-60719819D01*
X184463933Y-62377168D01*
X184497418Y-62438491D01*
X184498725Y-62484247D01*
X184473500Y-62643513D01*
X184473500Y-62832486D01*
X184503059Y-63019118D01*
X184561454Y-63198836D01*
X184611159Y-63296386D01*
X184647240Y-63367199D01*
X184758310Y-63520073D01*
X184891927Y-63653690D01*
X185044801Y-63764760D01*
X185121991Y-63804090D01*
X185213163Y-63850545D01*
X185213165Y-63850545D01*
X185213168Y-63850547D01*
X185290436Y-63875653D01*
X185392881Y-63908940D01*
X185579514Y-63938500D01*
X185579519Y-63938500D01*
X185768486Y-63938500D01*
X185955118Y-63908940D01*
X186134832Y-63850547D01*
X186303199Y-63764760D01*
X186456073Y-63653690D01*
X186589690Y-63520073D01*
X186700760Y-63367199D01*
X186786547Y-63198832D01*
X186844940Y-63019118D01*
X186850181Y-62986028D01*
X186874500Y-62832486D01*
X186874500Y-62643513D01*
X186844940Y-62456881D01*
X186786545Y-62277163D01*
X186700759Y-62108800D01*
X186589690Y-61955927D01*
X186456073Y-61822310D01*
X186303199Y-61711240D01*
X186134836Y-61625454D01*
X185955118Y-61567059D01*
X185768486Y-61537500D01*
X185768481Y-61537500D01*
X185579519Y-61537500D01*
X185579514Y-61537500D01*
X185420247Y-61562725D01*
X185350953Y-61553770D01*
X185313168Y-61527933D01*
X183506590Y-59721355D01*
X183506588Y-59721352D01*
X183387717Y-59602481D01*
X183387712Y-59602477D01*
X183273284Y-59536413D01*
X183250785Y-59523423D01*
X183098057Y-59482499D01*
X182939943Y-59482499D01*
X182932347Y-59482499D01*
X182932331Y-59482500D01*
X181679050Y-59482500D01*
X181612011Y-59462815D01*
X181566256Y-59410011D01*
X181556312Y-59340853D01*
X181585337Y-59277297D01*
X181622755Y-59248015D01*
X181640597Y-59238923D01*
X181731199Y-59192760D01*
X181884073Y-59081690D01*
X182017690Y-58948073D01*
X182128760Y-58795199D01*
X182194650Y-58665882D01*
X185019669Y-58665882D01*
X185019670Y-58665883D01*
X185045059Y-58684329D01*
X185213362Y-58770085D01*
X185392997Y-58828451D01*
X185579553Y-58858000D01*
X185768447Y-58858000D01*
X185955002Y-58828451D01*
X186134637Y-58770085D01*
X186302937Y-58684331D01*
X186328328Y-58665883D01*
X186328328Y-58665882D01*
X185674001Y-58011554D01*
X185674000Y-58011554D01*
X185019669Y-58665882D01*
X182194650Y-58665882D01*
X182214547Y-58626832D01*
X182229663Y-58580311D01*
X182229665Y-58580304D01*
X182272940Y-58447118D01*
X182302500Y-58260486D01*
X182302500Y-58071513D01*
X182272940Y-57884881D01*
X182236516Y-57772781D01*
X182214547Y-57705168D01*
X182214545Y-57705165D01*
X182214544Y-57705160D01*
X182168596Y-57614982D01*
X182168595Y-57614981D01*
X182142390Y-57563552D01*
X184474000Y-57563552D01*
X184474000Y-57752447D01*
X184503548Y-57939002D01*
X184561914Y-58118637D01*
X184647666Y-58286933D01*
X184666116Y-58312328D01*
X185320446Y-57658000D01*
X185320446Y-57657999D01*
X185274369Y-57611922D01*
X185324000Y-57611922D01*
X185324000Y-57704078D01*
X185347852Y-57793095D01*
X185393930Y-57872905D01*
X185459095Y-57938070D01*
X185538905Y-57984148D01*
X185627922Y-58008000D01*
X185720078Y-58008000D01*
X185809095Y-57984148D01*
X185888905Y-57938070D01*
X185954070Y-57872905D01*
X186000148Y-57793095D01*
X186024000Y-57704078D01*
X186024000Y-57657999D01*
X186027554Y-57657999D01*
X186027554Y-57658000D01*
X186681882Y-58312328D01*
X186681883Y-58312328D01*
X186700331Y-58286937D01*
X186786085Y-58118637D01*
X186844451Y-57939002D01*
X186874000Y-57752447D01*
X186874000Y-57563552D01*
X186844451Y-57376997D01*
X186786085Y-57197362D01*
X186700329Y-57029059D01*
X186681883Y-57003670D01*
X186681882Y-57003669D01*
X186027554Y-57657999D01*
X186024000Y-57657999D01*
X186024000Y-57611922D01*
X186000148Y-57522905D01*
X185954070Y-57443095D01*
X185888905Y-57377930D01*
X185809095Y-57331852D01*
X185720078Y-57308000D01*
X185627922Y-57308000D01*
X185538905Y-57331852D01*
X185459095Y-57377930D01*
X185393930Y-57443095D01*
X185347852Y-57522905D01*
X185324000Y-57611922D01*
X185274369Y-57611922D01*
X184666116Y-57003669D01*
X184666116Y-57003670D01*
X184647669Y-57029060D01*
X184561914Y-57197362D01*
X184503548Y-57376997D01*
X184474000Y-57563552D01*
X182142390Y-57563552D01*
X182128760Y-57536801D01*
X182017690Y-57383927D01*
X181884073Y-57250310D01*
X181731199Y-57139240D01*
X181562836Y-57053454D01*
X181383118Y-56995059D01*
X181196486Y-56965500D01*
X181196481Y-56965500D01*
X181007519Y-56965500D01*
X181007514Y-56965500D01*
X180820881Y-56995059D01*
X180641163Y-57053454D01*
X180472800Y-57139240D01*
X180392803Y-57197362D01*
X180319927Y-57250310D01*
X180319925Y-57250312D01*
X180319924Y-57250312D01*
X180186312Y-57383924D01*
X180186312Y-57383925D01*
X180186310Y-57383927D01*
X180143322Y-57443095D01*
X180075240Y-57536800D01*
X179989454Y-57705163D01*
X179931059Y-57884881D01*
X179901500Y-58071513D01*
X179901500Y-58260486D01*
X179931059Y-58447118D01*
X179989454Y-58626836D01*
X180062444Y-58770085D01*
X180075240Y-58795199D01*
X180186310Y-58948073D01*
X180319927Y-59081690D01*
X180472801Y-59192760D01*
X180550177Y-59232184D01*
X180581245Y-59248015D01*
X180632041Y-59295990D01*
X180648836Y-59363811D01*
X180626299Y-59429946D01*
X180571583Y-59473397D01*
X180524950Y-59482500D01*
X176599050Y-59482500D01*
X176532011Y-59462815D01*
X176486256Y-59410011D01*
X176476312Y-59340853D01*
X176505337Y-59277297D01*
X176542755Y-59248015D01*
X176560597Y-59238923D01*
X176651199Y-59192760D01*
X176804073Y-59081690D01*
X176937690Y-58948073D01*
X177048760Y-58795199D01*
X177133280Y-58629318D01*
X177134545Y-58626836D01*
X177134545Y-58626835D01*
X177134547Y-58626832D01*
X177192940Y-58447118D01*
X177202187Y-58388733D01*
X177222500Y-58260486D01*
X177222500Y-58071513D01*
X177192940Y-57884881D01*
X177148959Y-57749523D01*
X177134547Y-57705168D01*
X177134545Y-57705165D01*
X177134545Y-57705163D01*
X177062390Y-57563552D01*
X177048760Y-57536801D01*
X176937690Y-57383927D01*
X176804073Y-57250310D01*
X176651199Y-57139240D01*
X176482836Y-57053454D01*
X176303118Y-56995059D01*
X176116486Y-56965500D01*
X176116481Y-56965500D01*
X175927519Y-56965500D01*
X175927514Y-56965500D01*
X175740881Y-56995059D01*
X175561163Y-57053454D01*
X175392800Y-57139240D01*
X175312803Y-57197362D01*
X175239927Y-57250310D01*
X175239925Y-57250312D01*
X175239924Y-57250312D01*
X175106312Y-57383924D01*
X175106312Y-57383925D01*
X175106310Y-57383927D01*
X175063322Y-57443095D01*
X174995240Y-57536800D01*
X174909454Y-57705163D01*
X174851059Y-57884881D01*
X174821500Y-58071513D01*
X174821500Y-58260486D01*
X174851059Y-58447118D01*
X174909454Y-58626836D01*
X174982444Y-58770085D01*
X174995240Y-58795199D01*
X175106310Y-58948073D01*
X175239927Y-59081690D01*
X175392801Y-59192760D01*
X175470177Y-59232184D01*
X175501245Y-59248015D01*
X175552041Y-59295990D01*
X175568836Y-59363811D01*
X175546299Y-59429946D01*
X175491583Y-59473397D01*
X175444950Y-59482500D01*
X171613808Y-59482500D01*
X171546769Y-59462815D01*
X171501014Y-59410011D01*
X171491070Y-59340853D01*
X171491335Y-59339102D01*
X171491678Y-59336940D01*
X171502500Y-59268611D01*
X171502500Y-59095389D01*
X171475402Y-58924299D01*
X171421873Y-58759555D01*
X171343232Y-58605212D01*
X171241414Y-58465072D01*
X171118928Y-58342586D01*
X170978788Y-58240768D01*
X170824445Y-58162127D01*
X170659701Y-58108598D01*
X170659699Y-58108597D01*
X170659698Y-58108597D01*
X170528271Y-58087781D01*
X170488611Y-58081500D01*
X170315389Y-58081500D01*
X170275728Y-58087781D01*
X170144302Y-58108597D01*
X169979552Y-58162128D01*
X169825210Y-58240769D01*
X169825209Y-58240769D01*
X169771304Y-58279934D01*
X169705497Y-58303413D01*
X169637443Y-58287587D01*
X169610738Y-58267296D01*
X169262797Y-57919355D01*
X169262795Y-57919352D01*
X169143924Y-57800481D01*
X169143923Y-57800480D01*
X169052650Y-57747784D01*
X169006992Y-57721423D01*
X168854264Y-57680499D01*
X168696150Y-57680499D01*
X168688554Y-57680499D01*
X168688538Y-57680500D01*
X164105669Y-57680500D01*
X164105653Y-57680499D01*
X164098057Y-57680499D01*
X163939943Y-57680499D01*
X163831626Y-57709523D01*
X163787207Y-57721425D01*
X163779702Y-57724534D01*
X163778822Y-57722410D01*
X163722442Y-57736083D01*
X163690034Y-57730155D01*
X163626535Y-57709523D01*
X163525443Y-57693511D01*
X163424352Y-57677500D01*
X163219648Y-57677500D01*
X163200707Y-57680500D01*
X163017465Y-57709522D01*
X162822776Y-57772781D01*
X162640386Y-57865715D01*
X162474786Y-57986028D01*
X162330028Y-58130786D01*
X162209715Y-58296386D01*
X162116781Y-58478776D01*
X162053522Y-58673465D01*
X162028264Y-58832940D01*
X162021500Y-58875648D01*
X159328500Y-58875648D01*
X159328500Y-58484910D01*
X159328501Y-58484897D01*
X159328501Y-58316795D01*
X159328501Y-58316793D01*
X159287577Y-58164065D01*
X159208520Y-58027134D01*
X158335739Y-57154354D01*
X158335738Y-57154352D01*
X158216867Y-57035481D01*
X158216866Y-57035480D01*
X158194655Y-57022656D01*
X158139110Y-56990588D01*
X158139108Y-56990587D01*
X158130054Y-56985360D01*
X158079935Y-56956423D01*
X157961621Y-56924720D01*
X157956177Y-56922700D01*
X157932641Y-56905141D01*
X157907565Y-56889856D01*
X157904957Y-56884487D01*
X157900175Y-56880920D01*
X157889868Y-56853424D01*
X157877037Y-56827009D01*
X157877519Y-56820480D01*
X157875651Y-56815496D01*
X157879053Y-56799728D01*
X157881390Y-56768127D01*
X157905987Y-56692427D01*
X157908276Y-56677978D01*
X157908277Y-56677975D01*
X157912690Y-56650116D01*
X185019669Y-56650116D01*
X185674000Y-57304446D01*
X185674001Y-57304446D01*
X186328328Y-56650116D01*
X186302933Y-56631666D01*
X186134637Y-56545914D01*
X185955002Y-56487548D01*
X185768447Y-56458000D01*
X185579553Y-56458000D01*
X185392997Y-56487548D01*
X185213362Y-56545914D01*
X185045060Y-56631669D01*
X185019670Y-56650116D01*
X185019669Y-56650116D01*
X157912690Y-56650116D01*
X157938000Y-56490317D01*
X157938000Y-56285682D01*
X157905990Y-56083582D01*
X157842755Y-55888968D01*
X157749859Y-55706650D01*
X157717474Y-55662077D01*
X157717474Y-55662076D01*
X157038000Y-56341551D01*
X157038000Y-56335339D01*
X157010741Y-56233606D01*
X156958080Y-56142394D01*
X156883606Y-56067920D01*
X156792394Y-56015259D01*
X156690661Y-55988000D01*
X156684446Y-55988000D01*
X157363922Y-55308524D01*
X157363921Y-55308523D01*
X157319359Y-55276147D01*
X157319350Y-55276141D01*
X157137031Y-55183244D01*
X156942417Y-55120009D01*
X156740317Y-55088000D01*
X156535683Y-55088000D01*
X156333582Y-55120009D01*
X156138968Y-55183244D01*
X155956644Y-55276143D01*
X155912077Y-55308523D01*
X155912077Y-55308524D01*
X156591554Y-55988000D01*
X156585339Y-55988000D01*
X156483606Y-56015259D01*
X156392394Y-56067920D01*
X156317920Y-56142394D01*
X156265259Y-56233606D01*
X156238000Y-56335339D01*
X156238000Y-56341553D01*
X155558524Y-55662077D01*
X155558523Y-55662077D01*
X155526143Y-55706644D01*
X155433244Y-55888968D01*
X155370009Y-56083582D01*
X155338000Y-56285682D01*
X155338000Y-56490317D01*
X155370009Y-56692415D01*
X155389754Y-56753180D01*
X155391750Y-56823022D01*
X155355670Y-56882855D01*
X155292969Y-56913684D01*
X155271823Y-56915500D01*
X153066097Y-56915500D01*
X153036656Y-56906855D01*
X153006670Y-56900332D01*
X153001654Y-56896577D01*
X152999058Y-56895815D01*
X152978416Y-56879181D01*
X152932077Y-56832842D01*
X152898592Y-56771519D01*
X152901828Y-56706841D01*
X152906477Y-56692534D01*
X152938500Y-56490352D01*
X152938500Y-56285648D01*
X152930257Y-56233606D01*
X152906477Y-56083465D01*
X152875458Y-55988000D01*
X152843220Y-55888781D01*
X152843218Y-55888778D01*
X152843218Y-55888776D01*
X152750419Y-55706650D01*
X152750287Y-55706390D01*
X152718092Y-55662077D01*
X152629971Y-55540786D01*
X152485213Y-55396028D01*
X152319613Y-55275715D01*
X152319612Y-55275714D01*
X152319610Y-55275713D01*
X152262653Y-55246691D01*
X152137223Y-55182781D01*
X151942534Y-55119522D01*
X151767995Y-55091878D01*
X151740352Y-55087500D01*
X151535648Y-55087500D01*
X151511329Y-55091351D01*
X151333465Y-55119522D01*
X151138776Y-55182781D01*
X150956386Y-55275715D01*
X150790786Y-55396028D01*
X150646028Y-55540786D01*
X150525715Y-55706386D01*
X150432781Y-55888776D01*
X150369522Y-56083465D01*
X150337500Y-56285648D01*
X150337500Y-56490352D01*
X150340704Y-56510580D01*
X150369522Y-56692534D01*
X150432781Y-56887223D01*
X150468041Y-56956423D01*
X150508323Y-57035481D01*
X150525715Y-57069613D01*
X150646028Y-57235213D01*
X150646034Y-57235219D01*
X150790781Y-57379966D01*
X150946610Y-57493182D01*
X150989276Y-57548511D01*
X150995255Y-57618125D01*
X150962650Y-57679920D01*
X150901811Y-57714277D01*
X150873725Y-57717500D01*
X150773648Y-57717500D01*
X150749329Y-57721351D01*
X150571465Y-57749522D01*
X150376776Y-57812781D01*
X150194386Y-57905715D01*
X150028786Y-58026028D01*
X149884028Y-58170786D01*
X149763715Y-58336386D01*
X149670781Y-58518776D01*
X149607522Y-58713465D01*
X149575500Y-58915648D01*
X149575500Y-59120351D01*
X149607522Y-59322534D01*
X149670781Y-59517223D01*
X149714223Y-59602481D01*
X149743333Y-59659613D01*
X149763715Y-59699613D01*
X149884028Y-59865213D01*
X150028786Y-60009971D01*
X150139330Y-60090284D01*
X150194390Y-60130287D01*
X150298273Y-60183218D01*
X150376776Y-60223218D01*
X150376778Y-60223218D01*
X150376781Y-60223220D01*
X150448359Y-60246477D01*
X150571465Y-60286477D01*
X150672557Y-60302488D01*
X150773648Y-60318500D01*
X150773649Y-60318500D01*
X150978351Y-60318500D01*
X150978352Y-60318500D01*
X151180534Y-60286477D01*
X151375219Y-60223220D01*
X151557610Y-60130287D01*
X151706909Y-60021816D01*
X151723213Y-60009971D01*
X151723215Y-60009968D01*
X151723219Y-60009966D01*
X151867966Y-59865219D01*
X151867968Y-59865215D01*
X151867971Y-59865213D01*
X151972488Y-59721355D01*
X151988287Y-59699610D01*
X152081220Y-59517219D01*
X152144477Y-59322534D01*
X152176500Y-59120352D01*
X152176500Y-58915648D01*
X152144477Y-58713466D01*
X152139827Y-58699157D01*
X152139392Y-58683943D01*
X152134074Y-58669682D01*
X152138414Y-58649729D01*
X152137831Y-58629318D01*
X152145920Y-58615229D01*
X152148927Y-58601409D01*
X152170079Y-58573155D01*
X152177631Y-58565604D01*
X152189419Y-58553816D01*
X152250743Y-58520333D01*
X152277098Y-58517500D01*
X155850524Y-58517500D01*
X155917563Y-58537185D01*
X155963318Y-58589989D01*
X155973262Y-58659147D01*
X155968455Y-58679817D01*
X155957524Y-58713457D01*
X155957523Y-58713464D01*
X155925500Y-58915648D01*
X155925500Y-59120351D01*
X155957522Y-59322534D01*
X156020781Y-59517223D01*
X156064223Y-59602481D01*
X156093333Y-59659613D01*
X156113715Y-59699613D01*
X156234028Y-59865213D01*
X156378786Y-60009971D01*
X156544388Y-60130286D01*
X156669597Y-60194083D01*
X156720394Y-60242057D01*
X156737189Y-60309878D01*
X156714652Y-60376013D01*
X156700984Y-60392249D01*
X152210054Y-64883181D01*
X152183126Y-64897884D01*
X152157308Y-64914477D01*
X152151107Y-64915368D01*
X152148731Y-64916666D01*
X152122373Y-64919500D01*
X152071892Y-64919500D01*
X152004853Y-64899815D01*
X151959098Y-64847011D01*
X151949154Y-64777853D01*
X151971573Y-64722616D01*
X151980960Y-64709693D01*
X151988287Y-64699610D01*
X152081220Y-64517219D01*
X152144477Y-64322534D01*
X152176500Y-64120352D01*
X152176500Y-63915648D01*
X152166189Y-63850545D01*
X152144477Y-63713465D01*
X152081640Y-63520074D01*
X152081220Y-63518781D01*
X152081218Y-63518778D01*
X152081218Y-63518776D01*
X152047503Y-63452607D01*
X151988287Y-63336390D01*
X151959223Y-63296386D01*
X151867971Y-63170786D01*
X151723213Y-63026028D01*
X151557613Y-62905715D01*
X151557612Y-62905714D01*
X151557610Y-62905713D01*
X151479106Y-62865713D01*
X151375223Y-62812781D01*
X151180534Y-62749522D01*
X151005995Y-62721878D01*
X150978352Y-62717500D01*
X150773648Y-62717500D01*
X150749329Y-62721351D01*
X150571465Y-62749522D01*
X150376776Y-62812781D01*
X150194386Y-62905715D01*
X150028786Y-63026028D01*
X149884028Y-63170786D01*
X149763715Y-63336386D01*
X149670781Y-63518776D01*
X149607523Y-63713463D01*
X149603074Y-63741553D01*
X149573143Y-63804687D01*
X149513831Y-63841617D01*
X149443969Y-63840618D01*
X149392920Y-63809834D01*
X143971819Y-58388733D01*
X143938334Y-58327410D01*
X143935500Y-58301052D01*
X143935500Y-49326684D01*
X143955185Y-49259645D01*
X144007989Y-49213890D01*
X144077147Y-49203946D01*
X144140703Y-49232971D01*
X144159816Y-49253796D01*
X144215508Y-49330449D01*
X144257896Y-49388792D01*
X144408213Y-49539109D01*
X144580179Y-49664048D01*
X144580181Y-49664049D01*
X144580184Y-49664051D01*
X144769588Y-49760557D01*
X144971757Y-49826246D01*
X145181713Y-49859500D01*
X145181714Y-49859500D01*
X145394286Y-49859500D01*
X145394287Y-49859500D01*
X145604243Y-49826246D01*
X145806412Y-49760557D01*
X145995816Y-49664051D01*
X146031809Y-49637901D01*
X146167786Y-49539109D01*
X146167788Y-49539106D01*
X146167792Y-49539104D01*
X146318104Y-49388792D01*
X146318106Y-49388788D01*
X146318109Y-49388786D01*
X146443048Y-49216820D01*
X146443047Y-49216820D01*
X146443051Y-49216816D01*
X146539557Y-49027412D01*
X146605246Y-48825243D01*
X146638500Y-48615287D01*
X146638500Y-48402713D01*
X146605246Y-48192757D01*
X146539557Y-47990588D01*
X146443051Y-47801184D01*
X146443049Y-47801181D01*
X146443048Y-47801179D01*
X146318109Y-47629213D01*
X146204181Y-47515285D01*
X146170696Y-47453962D01*
X146175680Y-47384270D01*
X146217552Y-47328337D01*
X146248529Y-47311422D01*
X146380086Y-47262354D01*
X146380093Y-47262350D01*
X146495187Y-47176190D01*
X146495190Y-47176187D01*
X146581350Y-47061093D01*
X146581354Y-47061086D01*
X146631596Y-46926379D01*
X146631598Y-46926372D01*
X146637999Y-46866844D01*
X146638000Y-46866827D01*
X146638000Y-46219000D01*
X145721012Y-46219000D01*
X145753925Y-46161993D01*
X145788000Y-46034826D01*
X145788000Y-45903174D01*
X145753925Y-45776007D01*
X145721012Y-45719000D01*
X146638000Y-45719000D01*
X146638000Y-45071172D01*
X146637999Y-45071155D01*
X146631598Y-45011627D01*
X146631596Y-45011620D01*
X146581354Y-44876913D01*
X146581350Y-44876906D01*
X146495190Y-44761812D01*
X146495187Y-44761809D01*
X146380093Y-44675649D01*
X146380086Y-44675645D01*
X146245379Y-44625403D01*
X146245372Y-44625401D01*
X146185844Y-44619000D01*
X145538000Y-44619000D01*
X145538000Y-45535988D01*
X145480993Y-45503075D01*
X145353826Y-45469000D01*
X145222174Y-45469000D01*
X145095007Y-45503075D01*
X145038000Y-45535988D01*
X145038000Y-44619000D01*
X144390169Y-44619000D01*
X144359660Y-44622280D01*
X144290901Y-44609873D01*
X144239764Y-44562263D01*
X144222485Y-44494563D01*
X144244550Y-44428269D01*
X144258719Y-44411315D01*
X145593216Y-43076819D01*
X145654539Y-43043334D01*
X145680897Y-43040500D01*
X147448125Y-43040500D01*
X147515164Y-43060185D01*
X147560919Y-43112989D01*
X147570863Y-43182147D01*
X147565832Y-43203498D01*
X147560764Y-43218791D01*
X147554000Y-43239204D01*
X147543500Y-43341983D01*
X147543500Y-44542001D01*
X147543501Y-44542018D01*
X147554000Y-44644796D01*
X147554001Y-44644799D01*
X147564224Y-44675649D01*
X147609186Y-44811334D01*
X147701288Y-44960656D01*
X147825344Y-45084712D01*
X147974666Y-45176814D01*
X148056570Y-45203954D01*
X148114015Y-45243727D01*
X148140838Y-45308243D01*
X148128523Y-45377018D01*
X148090451Y-45421978D01*
X147996787Y-45490028D01*
X147996782Y-45490032D01*
X147852028Y-45634786D01*
X147731715Y-45800386D01*
X147638781Y-45982776D01*
X147575522Y-46177465D01*
X147543500Y-46379648D01*
X147543500Y-46584351D01*
X147575522Y-46786534D01*
X147638781Y-46981223D01*
X147702691Y-47106653D01*
X147729109Y-47158500D01*
X147731715Y-47163613D01*
X147852028Y-47329213D01*
X147996786Y-47473971D01*
X148132909Y-47572868D01*
X148162390Y-47594287D01*
X148230940Y-47629215D01*
X148255080Y-47641515D01*
X148305876Y-47689490D01*
X148322671Y-47757311D01*
X148300134Y-47823446D01*
X148255080Y-47862485D01*
X148162386Y-47909715D01*
X147996786Y-48030028D01*
X147852028Y-48174786D01*
X147731715Y-48340386D01*
X147638781Y-48522776D01*
X147575522Y-48717465D01*
X147543500Y-48919648D01*
X147543500Y-49124351D01*
X147575522Y-49326534D01*
X147638781Y-49521223D01*
X147702691Y-49646653D01*
X147721948Y-49684446D01*
X147731715Y-49703613D01*
X147852028Y-49869213D01*
X147996786Y-50013971D01*
X148162385Y-50134284D01*
X148162387Y-50134285D01*
X148162390Y-50134287D01*
X148255080Y-50181515D01*
X148255630Y-50181795D01*
X148306426Y-50229770D01*
X148323221Y-50297591D01*
X148300684Y-50363725D01*
X148255630Y-50402765D01*
X148162644Y-50450143D01*
X148118077Y-50482523D01*
X148118077Y-50482524D01*
X148797554Y-51162000D01*
X148791339Y-51162000D01*
X148689606Y-51189259D01*
X148598394Y-51241920D01*
X148523920Y-51316394D01*
X148471259Y-51407606D01*
X148444000Y-51509339D01*
X148444000Y-51515553D01*
X147764524Y-50836077D01*
X147764523Y-50836077D01*
X147732143Y-50880644D01*
X147639244Y-51062968D01*
X147576009Y-51257582D01*
X147544000Y-51459682D01*
X147544000Y-51664317D01*
X147576009Y-51866417D01*
X147639244Y-52061031D01*
X147732141Y-52243350D01*
X147732147Y-52243359D01*
X147764523Y-52287921D01*
X147764524Y-52287922D01*
X148444000Y-51608446D01*
X148444000Y-51614661D01*
X148471259Y-51716394D01*
X148523920Y-51807606D01*
X148598394Y-51882080D01*
X148689606Y-51934741D01*
X148791339Y-51962000D01*
X148797553Y-51962000D01*
X148118076Y-52641474D01*
X148162650Y-52673859D01*
X148344968Y-52766755D01*
X148539582Y-52829990D01*
X148741683Y-52862000D01*
X148946317Y-52862000D01*
X149148417Y-52829990D01*
X149343031Y-52766755D01*
X149525349Y-52673859D01*
X149569921Y-52641474D01*
X148890447Y-51962000D01*
X148896661Y-51962000D01*
X148998394Y-51934741D01*
X149089606Y-51882080D01*
X149164080Y-51807606D01*
X149216741Y-51716394D01*
X149244000Y-51614661D01*
X149244000Y-51608448D01*
X149923474Y-52287922D01*
X149923474Y-52287921D01*
X149955859Y-52243349D01*
X150048755Y-52061031D01*
X150111990Y-51866417D01*
X150144000Y-51664317D01*
X150144000Y-51459682D01*
X150111990Y-51257582D01*
X150048755Y-51062968D01*
X149955859Y-50880650D01*
X149923474Y-50836077D01*
X149923474Y-50836076D01*
X149244000Y-51515551D01*
X149244000Y-51509339D01*
X149216741Y-51407606D01*
X149164080Y-51316394D01*
X149089606Y-51241920D01*
X148998394Y-51189259D01*
X148896661Y-51162000D01*
X148890446Y-51162000D01*
X149569922Y-50482524D01*
X149569921Y-50482523D01*
X149525359Y-50450147D01*
X149525350Y-50450141D01*
X149432369Y-50402765D01*
X149381573Y-50354790D01*
X149364778Y-50286969D01*
X149387315Y-50220835D01*
X149432370Y-50181795D01*
X149432920Y-50181515D01*
X149525610Y-50134287D01*
X149658139Y-50038000D01*
X149691213Y-50013971D01*
X149691215Y-50013968D01*
X149691219Y-50013966D01*
X149835966Y-49869219D01*
X149835968Y-49869215D01*
X149835971Y-49869213D01*
X149914914Y-49760555D01*
X149956287Y-49703610D01*
X150049220Y-49521219D01*
X150112477Y-49326534D01*
X150144500Y-49124352D01*
X150144500Y-48919648D01*
X150129699Y-48826198D01*
X150112477Y-48717465D01*
X150077651Y-48610284D01*
X150049220Y-48522781D01*
X150049218Y-48522778D01*
X150049218Y-48522776D01*
X149984562Y-48395883D01*
X149956287Y-48340390D01*
X149915673Y-48284489D01*
X149835971Y-48174786D01*
X149691213Y-48030028D01*
X149525614Y-47909715D01*
X149485176Y-47889111D01*
X149432917Y-47862483D01*
X149382123Y-47814511D01*
X149365328Y-47746690D01*
X149387865Y-47680555D01*
X149432917Y-47641516D01*
X149525610Y-47594287D01*
X149555091Y-47572868D01*
X149691213Y-47473971D01*
X149691215Y-47473968D01*
X149691219Y-47473966D01*
X149835966Y-47329219D01*
X149835968Y-47329215D01*
X149835971Y-47329213D01*
X149898103Y-47243694D01*
X149956287Y-47163610D01*
X150049220Y-46981219D01*
X150112477Y-46786534D01*
X150144500Y-46584352D01*
X150144500Y-46379648D01*
X150119207Y-46219954D01*
X150112477Y-46177465D01*
X150049410Y-45983366D01*
X150049220Y-45982781D01*
X150049218Y-45982778D01*
X150049218Y-45982776D01*
X149997105Y-45880500D01*
X149956287Y-45800390D01*
X149926942Y-45760000D01*
X149835971Y-45634786D01*
X149691219Y-45490034D01*
X149646058Y-45457223D01*
X149597547Y-45421978D01*
X149554882Y-45366649D01*
X149548903Y-45297036D01*
X149581508Y-45235240D01*
X149631426Y-45203955D01*
X149713334Y-45176814D01*
X149862656Y-45084712D01*
X149986712Y-44960656D01*
X150078814Y-44811334D01*
X150133999Y-44644797D01*
X150144500Y-44542009D01*
X150144499Y-43341992D01*
X150133999Y-43239203D01*
X150122170Y-43203504D01*
X150122170Y-43203503D01*
X150119768Y-43133675D01*
X150155500Y-43073633D01*
X150218021Y-43042441D01*
X150239876Y-43040500D01*
X157808108Y-43040500D01*
X157875147Y-43060185D01*
X157920902Y-43112989D01*
X157930846Y-43182147D01*
X157908427Y-43237384D01*
X157891714Y-43260387D01*
X157798781Y-43442776D01*
X157735522Y-43637465D01*
X157703500Y-43839648D01*
X157703500Y-44044351D01*
X157735522Y-44246534D01*
X157798781Y-44441223D01*
X157859659Y-44560700D01*
X157891035Y-44622280D01*
X157891715Y-44623613D01*
X158012028Y-44789213D01*
X158156786Y-44933971D01*
X158311749Y-45046556D01*
X158322390Y-45054287D01*
X158413840Y-45100883D01*
X158415080Y-45101515D01*
X158465876Y-45149490D01*
X158482671Y-45217311D01*
X158460134Y-45283446D01*
X158415080Y-45322485D01*
X158322386Y-45369715D01*
X158156786Y-45490028D01*
X158012028Y-45634786D01*
X157891715Y-45800386D01*
X157798781Y-45982776D01*
X157735522Y-46177465D01*
X157703500Y-46379648D01*
X157703500Y-46584351D01*
X157735522Y-46786534D01*
X157798781Y-46981223D01*
X157862691Y-47106653D01*
X157889109Y-47158500D01*
X157891715Y-47163613D01*
X158012028Y-47329213D01*
X158156786Y-47473971D01*
X158292909Y-47572868D01*
X158322390Y-47594287D01*
X158390940Y-47629215D01*
X158415080Y-47641515D01*
X158465876Y-47689490D01*
X158482671Y-47757311D01*
X158460134Y-47823446D01*
X158415080Y-47862485D01*
X158322386Y-47909715D01*
X158156786Y-48030028D01*
X158012028Y-48174786D01*
X157891715Y-48340386D01*
X157798781Y-48522776D01*
X157735522Y-48717465D01*
X157703500Y-48919648D01*
X157703500Y-49124351D01*
X157735522Y-49326534D01*
X157798781Y-49521223D01*
X157862691Y-49646653D01*
X157881948Y-49684446D01*
X157891715Y-49703613D01*
X158012028Y-49869213D01*
X158156786Y-50013971D01*
X158311749Y-50126556D01*
X158322390Y-50134287D01*
X158413840Y-50180883D01*
X158415080Y-50181515D01*
X158465876Y-50229490D01*
X158482671Y-50297311D01*
X158460134Y-50363446D01*
X158415080Y-50402485D01*
X158322386Y-50449715D01*
X158156786Y-50570028D01*
X158012028Y-50714786D01*
X157891715Y-50880386D01*
X157798781Y-51062776D01*
X157735522Y-51257465D01*
X157703500Y-51459648D01*
X157703500Y-51664351D01*
X157735522Y-51866534D01*
X157798781Y-52061223D01*
X157858283Y-52178000D01*
X157891585Y-52243359D01*
X157891715Y-52243613D01*
X158012028Y-52409213D01*
X158156786Y-52553971D01*
X158275470Y-52640198D01*
X158322390Y-52674287D01*
X158436431Y-52732394D01*
X158504776Y-52767218D01*
X158504778Y-52767218D01*
X158504781Y-52767220D01*
X158609137Y-52801127D01*
X158699465Y-52830477D01*
X158800557Y-52846488D01*
X158901648Y-52862500D01*
X158901649Y-52862500D01*
X159106351Y-52862500D01*
X159106352Y-52862500D01*
X159308534Y-52830477D01*
X159503219Y-52767220D01*
X159546065Y-52745389D01*
X162745500Y-52745389D01*
X162745500Y-52918610D01*
X162770621Y-53077223D01*
X162772598Y-53089701D01*
X162826127Y-53254445D01*
X162904768Y-53408788D01*
X163006586Y-53548928D01*
X163129072Y-53671414D01*
X163269212Y-53773232D01*
X163423555Y-53851873D01*
X163588299Y-53905402D01*
X163759389Y-53932500D01*
X163759390Y-53932500D01*
X163932610Y-53932500D01*
X163932611Y-53932500D01*
X164103701Y-53905402D01*
X164268445Y-53851873D01*
X164422788Y-53773232D01*
X164562928Y-53671414D01*
X164685414Y-53548928D01*
X164745682Y-53465975D01*
X164801012Y-53423311D01*
X164870626Y-53417332D01*
X164932421Y-53449938D01*
X164946315Y-53465973D01*
X165006586Y-53548928D01*
X165129072Y-53671414D01*
X165269212Y-53773232D01*
X165423555Y-53851873D01*
X165588299Y-53905402D01*
X165759389Y-53932500D01*
X165759390Y-53932500D01*
X165932609Y-53932500D01*
X165932611Y-53932500D01*
X166012350Y-53919870D01*
X166017773Y-53920571D01*
X166022900Y-53918659D01*
X166052050Y-53925000D01*
X166081641Y-53928824D01*
X166087246Y-53932656D01*
X166091173Y-53933511D01*
X166119427Y-53954662D01*
X166208139Y-54043374D01*
X166208149Y-54043385D01*
X166212479Y-54047715D01*
X166212480Y-54047716D01*
X166324284Y-54159520D01*
X166411095Y-54209639D01*
X166411097Y-54209641D01*
X166449151Y-54231611D01*
X166461215Y-54238577D01*
X166613943Y-54279501D01*
X166613946Y-54279501D01*
X166779653Y-54279501D01*
X166779669Y-54279500D01*
X180358427Y-54279500D01*
X180358429Y-54279500D01*
X180511156Y-54238577D01*
X180648088Y-54159520D01*
X180759892Y-54047716D01*
X180838949Y-53910784D01*
X180879872Y-53758057D01*
X180879872Y-53713859D01*
X180899557Y-53646820D01*
X180952361Y-53601065D01*
X181021519Y-53591121D01*
X181076757Y-53613541D01*
X181182390Y-53690287D01*
X181298607Y-53749503D01*
X181364776Y-53783218D01*
X181364778Y-53783218D01*
X181364781Y-53783220D01*
X181469137Y-53817127D01*
X181559465Y-53846477D01*
X181593534Y-53851873D01*
X181761648Y-53878500D01*
X181761649Y-53878500D01*
X181966351Y-53878500D01*
X181966352Y-53878500D01*
X182168534Y-53846477D01*
X182363219Y-53783220D01*
X182545610Y-53690287D01*
X182668415Y-53601065D01*
X182711213Y-53569971D01*
X182711215Y-53569968D01*
X182711219Y-53569966D01*
X182855966Y-53425219D01*
X182855968Y-53425215D01*
X182855971Y-53425213D01*
X182951702Y-53293448D01*
X182976287Y-53259610D01*
X183069220Y-53077219D01*
X183132477Y-52882534D01*
X183164500Y-52680352D01*
X183164500Y-52475648D01*
X183145735Y-52357172D01*
X183132477Y-52273465D01*
X183101458Y-52178000D01*
X183069220Y-52078781D01*
X183069218Y-52078778D01*
X183069218Y-52078776D01*
X183009717Y-51962000D01*
X182976287Y-51896390D01*
X182944092Y-51852077D01*
X182855971Y-51730786D01*
X182711213Y-51586028D01*
X182545614Y-51465715D01*
X182539006Y-51462348D01*
X182452917Y-51418483D01*
X182402123Y-51370511D01*
X182385328Y-51302690D01*
X182407865Y-51236555D01*
X182452917Y-51197516D01*
X182545610Y-51150287D01*
X182600362Y-51110508D01*
X182711213Y-51029971D01*
X182711215Y-51029968D01*
X182711219Y-51029966D01*
X182855966Y-50885219D01*
X182855968Y-50885215D01*
X182855971Y-50885213D01*
X182937862Y-50772498D01*
X182976287Y-50719610D01*
X183069220Y-50537219D01*
X183132477Y-50342534D01*
X183164500Y-50140352D01*
X183164500Y-49935648D01*
X183132477Y-49733466D01*
X183131673Y-49730993D01*
X183080038Y-49572075D01*
X183069220Y-49538781D01*
X183069218Y-49538778D01*
X183069218Y-49538776D01*
X183035503Y-49472607D01*
X182976287Y-49356390D01*
X182918086Y-49276282D01*
X182855971Y-49190786D01*
X182711213Y-49046028D01*
X182545614Y-48925715D01*
X182533707Y-48919648D01*
X182452917Y-48878483D01*
X182402123Y-48830511D01*
X182385328Y-48762690D01*
X182407865Y-48696555D01*
X182452917Y-48657516D01*
X182545610Y-48610287D01*
X182666060Y-48522776D01*
X182711213Y-48489971D01*
X182711215Y-48489968D01*
X182711219Y-48489966D01*
X182855966Y-48345219D01*
X182855968Y-48345215D01*
X182855971Y-48345213D01*
X182908732Y-48272590D01*
X182976287Y-48179610D01*
X183069220Y-47997219D01*
X183132477Y-47802534D01*
X183164500Y-47600352D01*
X183164500Y-47395648D01*
X183141129Y-47248092D01*
X183132477Y-47193465D01*
X183069218Y-46998776D01*
X182976287Y-46816390D01*
X182869705Y-46669691D01*
X182869704Y-46669690D01*
X182855967Y-46650782D01*
X182805320Y-46600135D01*
X184323500Y-46600135D01*
X184323500Y-48395870D01*
X184323501Y-48395876D01*
X184329908Y-48455483D01*
X184380202Y-48590328D01*
X184380206Y-48590335D01*
X184466452Y-48705544D01*
X184466455Y-48705547D01*
X184581664Y-48791793D01*
X184581671Y-48791797D01*
X184626618Y-48808561D01*
X184716517Y-48842091D01*
X184776127Y-48848500D01*
X184786685Y-48848499D01*
X184853723Y-48868179D01*
X184874372Y-48884818D01*
X185544591Y-49555037D01*
X185481007Y-49572075D01*
X185366993Y-49637901D01*
X185273901Y-49730993D01*
X185208075Y-49845007D01*
X185191037Y-49908591D01*
X184558728Y-49276282D01*
X184558727Y-49276282D01*
X184519380Y-49330439D01*
X184422904Y-49519782D01*
X184357242Y-49721869D01*
X184357242Y-49721872D01*
X184324000Y-49931753D01*
X184324000Y-50144246D01*
X184357242Y-50354127D01*
X184357242Y-50354130D01*
X184422904Y-50556217D01*
X184519375Y-50745550D01*
X184558728Y-50799716D01*
X185191037Y-50167408D01*
X185208075Y-50230993D01*
X185273901Y-50345007D01*
X185366993Y-50438099D01*
X185481007Y-50503925D01*
X185544590Y-50520962D01*
X184912282Y-51153269D01*
X184912282Y-51153270D01*
X184966449Y-51192624D01*
X185155782Y-51289095D01*
X185357870Y-51354757D01*
X185567754Y-51388000D01*
X185780246Y-51388000D01*
X185990127Y-51354757D01*
X185990130Y-51354757D01*
X186192217Y-51289095D01*
X186381554Y-51192622D01*
X186435716Y-51153270D01*
X186435717Y-51153270D01*
X185803408Y-50520962D01*
X185866993Y-50503925D01*
X185981007Y-50438099D01*
X186074099Y-50345007D01*
X186139925Y-50230993D01*
X186156962Y-50167408D01*
X186789270Y-50799717D01*
X186789270Y-50799716D01*
X186828622Y-50745554D01*
X186925095Y-50556217D01*
X186990757Y-50354130D01*
X186990757Y-50354127D01*
X187024000Y-50144246D01*
X187024000Y-49931753D01*
X186990757Y-49721872D01*
X186990757Y-49721869D01*
X186925095Y-49519782D01*
X186828624Y-49330449D01*
X186789270Y-49276282D01*
X186789269Y-49276282D01*
X186156962Y-49908590D01*
X186139925Y-49845007D01*
X186074099Y-49730993D01*
X185981007Y-49637901D01*
X185866993Y-49572075D01*
X185803409Y-49555037D01*
X186473627Y-48884818D01*
X186534950Y-48851333D01*
X186561307Y-48848499D01*
X186571872Y-48848499D01*
X186631483Y-48842091D01*
X186766331Y-48791796D01*
X186881546Y-48705546D01*
X186967796Y-48590331D01*
X187018091Y-48455483D01*
X187024500Y-48395873D01*
X187024499Y-46600128D01*
X187018091Y-46540517D01*
X187005227Y-46506028D01*
X186967797Y-46405671D01*
X186967793Y-46405664D01*
X186881547Y-46290455D01*
X186881544Y-46290452D01*
X186766335Y-46204206D01*
X186766328Y-46204202D01*
X186631482Y-46153908D01*
X186631483Y-46153908D01*
X186571883Y-46147501D01*
X186571881Y-46147500D01*
X186571873Y-46147500D01*
X186571864Y-46147500D01*
X184776129Y-46147500D01*
X184776123Y-46147501D01*
X184716516Y-46153908D01*
X184581671Y-46204202D01*
X184581664Y-46204206D01*
X184466455Y-46290452D01*
X184466452Y-46290455D01*
X184380206Y-46405664D01*
X184380202Y-46405671D01*
X184329908Y-46540517D01*
X184325196Y-46584351D01*
X184323501Y-46600123D01*
X184323500Y-46600135D01*
X182805320Y-46600135D01*
X182711213Y-46506028D01*
X182545614Y-46385715D01*
X182513003Y-46369099D01*
X182452917Y-46338483D01*
X182402123Y-46290511D01*
X182385328Y-46222690D01*
X182407865Y-46156555D01*
X182452917Y-46117516D01*
X182545610Y-46070287D01*
X182594418Y-46034826D01*
X182711213Y-45949971D01*
X182711215Y-45949968D01*
X182711219Y-45949966D01*
X182855966Y-45805219D01*
X182855968Y-45805215D01*
X182855971Y-45805213D01*
X182918607Y-45719000D01*
X182976287Y-45639610D01*
X183069220Y-45457219D01*
X183132477Y-45262534D01*
X183164500Y-45060352D01*
X183164500Y-44855648D01*
X183145317Y-44734535D01*
X183132477Y-44653465D01*
X183069218Y-44458776D01*
X183017865Y-44357991D01*
X182976287Y-44276390D01*
X182954596Y-44246534D01*
X182855971Y-44110786D01*
X182711213Y-43966028D01*
X182545613Y-43845715D01*
X182545612Y-43845714D01*
X182545610Y-43845713D01*
X182485898Y-43815288D01*
X182363223Y-43752781D01*
X182168534Y-43689522D01*
X181993995Y-43661878D01*
X181966352Y-43657500D01*
X181761648Y-43657500D01*
X181737329Y-43661351D01*
X181559465Y-43689522D01*
X181364776Y-43752781D01*
X181182386Y-43845715D01*
X181016786Y-43966028D01*
X180872028Y-44110786D01*
X180751715Y-44276386D01*
X180658781Y-44458776D01*
X180595522Y-44653465D01*
X180563500Y-44855648D01*
X180563500Y-45060351D01*
X180595522Y-45262534D01*
X180658781Y-45457223D01*
X180722691Y-45582653D01*
X180749252Y-45634781D01*
X180751715Y-45639613D01*
X180872028Y-45805213D01*
X181016786Y-45949971D01*
X181171749Y-46062556D01*
X181182390Y-46070287D01*
X181273840Y-46116883D01*
X181275080Y-46117515D01*
X181325876Y-46165490D01*
X181342671Y-46233311D01*
X181320134Y-46299446D01*
X181275080Y-46338485D01*
X181182386Y-46385715D01*
X181016786Y-46506028D01*
X180872028Y-46650786D01*
X180751715Y-46816386D01*
X180658781Y-46998776D01*
X180595522Y-47193465D01*
X180563500Y-47395648D01*
X180563500Y-47600351D01*
X180595522Y-47802534D01*
X180600173Y-47816848D01*
X180600606Y-47832059D01*
X180605924Y-47846315D01*
X180601582Y-47866271D01*
X180602165Y-47886690D01*
X180594076Y-47900775D01*
X180591072Y-47914588D01*
X180569921Y-47942842D01*
X180394286Y-48118478D01*
X180282481Y-48230282D01*
X180282479Y-48230285D01*
X180251187Y-48284486D01*
X180251186Y-48284488D01*
X180203423Y-48367214D01*
X180203423Y-48367215D01*
X180162499Y-48519943D01*
X180162499Y-48519945D01*
X180162499Y-48688046D01*
X180162500Y-48688059D01*
X180162500Y-49857475D01*
X180142815Y-49924514D01*
X180126181Y-49945156D01*
X180042628Y-50028708D01*
X180042625Y-50028712D01*
X179955024Y-50159815D01*
X179955017Y-50159828D01*
X179894679Y-50305499D01*
X179894676Y-50305511D01*
X179863915Y-50460154D01*
X179863915Y-50617847D01*
X179894676Y-50772490D01*
X179894679Y-50772502D01*
X179955017Y-50918173D01*
X179955024Y-50918186D01*
X180042625Y-51049289D01*
X180046491Y-51054000D01*
X180045564Y-51054760D01*
X180076005Y-51110508D01*
X180071021Y-51180200D01*
X180029149Y-51236133D01*
X180002294Y-51251426D01*
X179960826Y-51268603D01*
X179960814Y-51268609D01*
X179829711Y-51356210D01*
X179829707Y-51356213D01*
X179718213Y-51467707D01*
X179718210Y-51467711D01*
X179630609Y-51598814D01*
X179630602Y-51598827D01*
X179570264Y-51744498D01*
X179570261Y-51744510D01*
X179539500Y-51899153D01*
X179539500Y-52056846D01*
X179570261Y-52211489D01*
X179570264Y-52211501D01*
X179630602Y-52357172D01*
X179630610Y-52357187D01*
X179657973Y-52398137D01*
X179678852Y-52464814D01*
X179678872Y-52467029D01*
X179678872Y-52954500D01*
X179659187Y-53021539D01*
X179606383Y-53067294D01*
X179554872Y-53078500D01*
X173078951Y-53078500D01*
X173011912Y-53058815D01*
X172966157Y-53006011D01*
X172956213Y-52936853D01*
X172961020Y-52916183D01*
X172971988Y-52882425D01*
X172971989Y-52882418D01*
X173004000Y-52680317D01*
X173004000Y-52475682D01*
X172971990Y-52273582D01*
X172908755Y-52078968D01*
X172815859Y-51896650D01*
X172783474Y-51852077D01*
X172783474Y-51852076D01*
X172104000Y-52531551D01*
X172104000Y-52525339D01*
X172076741Y-52423606D01*
X172024080Y-52332394D01*
X171949606Y-52257920D01*
X171858394Y-52205259D01*
X171756661Y-52178000D01*
X171750446Y-52178000D01*
X172429922Y-51498524D01*
X172429921Y-51498523D01*
X172385359Y-51466147D01*
X172385350Y-51466141D01*
X172292369Y-51418765D01*
X172241573Y-51370790D01*
X172224778Y-51302969D01*
X172247315Y-51236835D01*
X172292370Y-51197795D01*
X172302523Y-51192622D01*
X172385610Y-51150287D01*
X172440362Y-51110508D01*
X172551213Y-51029971D01*
X172551215Y-51029968D01*
X172551219Y-51029966D01*
X172695966Y-50885219D01*
X172695968Y-50885215D01*
X172695971Y-50885213D01*
X172777862Y-50772498D01*
X172816287Y-50719610D01*
X172909220Y-50537219D01*
X172972477Y-50342534D01*
X173004500Y-50140352D01*
X173004500Y-49935648D01*
X172972477Y-49733466D01*
X172971673Y-49730993D01*
X172920038Y-49572075D01*
X172909220Y-49538781D01*
X172909218Y-49538778D01*
X172909218Y-49538776D01*
X172875503Y-49472607D01*
X172816287Y-49356390D01*
X172758086Y-49276282D01*
X172695971Y-49190786D01*
X172551213Y-49046028D01*
X172385614Y-48925715D01*
X172373707Y-48919648D01*
X172292917Y-48878483D01*
X172242123Y-48830511D01*
X172225328Y-48762690D01*
X172247865Y-48696555D01*
X172292917Y-48657516D01*
X172385610Y-48610287D01*
X172506060Y-48522776D01*
X172551213Y-48489971D01*
X172551215Y-48489968D01*
X172551219Y-48489966D01*
X172695966Y-48345219D01*
X172695968Y-48345215D01*
X172695971Y-48345213D01*
X172748732Y-48272590D01*
X172816287Y-48179610D01*
X172909220Y-47997219D01*
X172972477Y-47802534D01*
X173004500Y-47600352D01*
X173004500Y-47395648D01*
X172981129Y-47248092D01*
X172972477Y-47193465D01*
X172909218Y-46998776D01*
X172857006Y-46896306D01*
X172816287Y-46816390D01*
X172777672Y-46763240D01*
X172695971Y-46650786D01*
X172551219Y-46506034D01*
X172551211Y-46506028D01*
X172457547Y-46437978D01*
X172414882Y-46382649D01*
X172408903Y-46313036D01*
X172441508Y-46251240D01*
X172491426Y-46219955D01*
X172573334Y-46192814D01*
X172722656Y-46100712D01*
X172846712Y-45976656D01*
X172938814Y-45827334D01*
X172993999Y-45660797D01*
X173004500Y-45558009D01*
X173004499Y-44357992D01*
X172993999Y-44255203D01*
X172938814Y-44088666D01*
X172846712Y-43939344D01*
X172722656Y-43815288D01*
X172573334Y-43723186D01*
X172406797Y-43668001D01*
X172406795Y-43668000D01*
X172304010Y-43657500D01*
X171103998Y-43657500D01*
X171103981Y-43657501D01*
X171001203Y-43668000D01*
X171001200Y-43668001D01*
X170834668Y-43723185D01*
X170834663Y-43723187D01*
X170685342Y-43815289D01*
X170561289Y-43939342D01*
X170469187Y-44088663D01*
X170469186Y-44088666D01*
X170414001Y-44255203D01*
X170414001Y-44255204D01*
X170414000Y-44255204D01*
X170403500Y-44357983D01*
X170403500Y-45558001D01*
X170403501Y-45558018D01*
X170414000Y-45660796D01*
X170414001Y-45660799D01*
X170457562Y-45792256D01*
X170469186Y-45827334D01*
X170561288Y-45976656D01*
X170685344Y-46100712D01*
X170834666Y-46192814D01*
X170916570Y-46219954D01*
X170974015Y-46259727D01*
X171000838Y-46324243D01*
X170988523Y-46393018D01*
X170950451Y-46437978D01*
X170856787Y-46506028D01*
X170856782Y-46506032D01*
X170712028Y-46650786D01*
X170591715Y-46816386D01*
X170498781Y-46998776D01*
X170435522Y-47193465D01*
X170403500Y-47395648D01*
X170403500Y-47600351D01*
X170435522Y-47802534D01*
X170498781Y-47997223D01*
X170535655Y-48069591D01*
X170589252Y-48174781D01*
X170591715Y-48179613D01*
X170712028Y-48345213D01*
X170856786Y-48489971D01*
X170994928Y-48590335D01*
X171022390Y-48610287D01*
X171113840Y-48656883D01*
X171115080Y-48657515D01*
X171165876Y-48705490D01*
X171182671Y-48773311D01*
X171160134Y-48839446D01*
X171115080Y-48878485D01*
X171022386Y-48925715D01*
X170856786Y-49046028D01*
X170712028Y-49190786D01*
X170591715Y-49356386D01*
X170498781Y-49538776D01*
X170435522Y-49733465D01*
X170403500Y-49935648D01*
X170403500Y-50140351D01*
X170435522Y-50342534D01*
X170498781Y-50537223D01*
X170539860Y-50617843D01*
X170589252Y-50714781D01*
X170591715Y-50719613D01*
X170712028Y-50885213D01*
X170856786Y-51029971D01*
X171022385Y-51150284D01*
X171022387Y-51150285D01*
X171022390Y-51150287D01*
X171105477Y-51192622D01*
X171115630Y-51197795D01*
X171166426Y-51245770D01*
X171183221Y-51313591D01*
X171160684Y-51379725D01*
X171115630Y-51418765D01*
X171022644Y-51466143D01*
X170978077Y-51498523D01*
X170978077Y-51498524D01*
X171657554Y-52178000D01*
X171651339Y-52178000D01*
X171549606Y-52205259D01*
X171458394Y-52257920D01*
X171383920Y-52332394D01*
X171331259Y-52423606D01*
X171304000Y-52525339D01*
X171304000Y-52531553D01*
X170624524Y-51852077D01*
X170624523Y-51852077D01*
X170592143Y-51896644D01*
X170499244Y-52078968D01*
X170436009Y-52273582D01*
X170404000Y-52475682D01*
X170404000Y-52680317D01*
X170436010Y-52882418D01*
X170436011Y-52882425D01*
X170446980Y-52916183D01*
X170448975Y-52986024D01*
X170412894Y-53045856D01*
X170350193Y-53076684D01*
X170329049Y-53078500D01*
X167066361Y-53078500D01*
X166999322Y-53058815D01*
X166953567Y-53006011D01*
X166943623Y-52936853D01*
X166943888Y-52935102D01*
X166946500Y-52918610D01*
X166946500Y-52745389D01*
X166939403Y-52700580D01*
X166919402Y-52574299D01*
X166865873Y-52409555D01*
X166787232Y-52255212D01*
X166685414Y-52115072D01*
X166562928Y-51992586D01*
X166422788Y-51890768D01*
X166268445Y-51812127D01*
X166103701Y-51758598D01*
X166103699Y-51758597D01*
X166103698Y-51758597D01*
X165972271Y-51737781D01*
X165932611Y-51731500D01*
X165759389Y-51731500D01*
X165719728Y-51737781D01*
X165588302Y-51758597D01*
X165423552Y-51812128D01*
X165269211Y-51890768D01*
X165189256Y-51948859D01*
X165129072Y-51992586D01*
X165129070Y-51992588D01*
X165129069Y-51992588D01*
X165006588Y-52115069D01*
X165006581Y-52115078D01*
X164946317Y-52198023D01*
X164890987Y-52240689D01*
X164821374Y-52246667D01*
X164759579Y-52214061D01*
X164745683Y-52198023D01*
X164685418Y-52115078D01*
X164685414Y-52115072D01*
X164562928Y-51992586D01*
X164422788Y-51890768D01*
X164268445Y-51812127D01*
X164103701Y-51758598D01*
X164103699Y-51758597D01*
X164103698Y-51758597D01*
X163972271Y-51737781D01*
X163932611Y-51731500D01*
X163759389Y-51731500D01*
X163719728Y-51737781D01*
X163588302Y-51758597D01*
X163423552Y-51812128D01*
X163269211Y-51890768D01*
X163189256Y-51948859D01*
X163129072Y-51992586D01*
X163129070Y-51992588D01*
X163129069Y-51992588D01*
X163006588Y-52115069D01*
X163006588Y-52115070D01*
X163006586Y-52115072D01*
X163006582Y-52115078D01*
X162904768Y-52255211D01*
X162826128Y-52409552D01*
X162772597Y-52574302D01*
X162745500Y-52745389D01*
X159546065Y-52745389D01*
X159685610Y-52674287D01*
X159704331Y-52660684D01*
X159732531Y-52640198D01*
X159732531Y-52640197D01*
X159745657Y-52630661D01*
X159851219Y-52553966D01*
X159995966Y-52409219D01*
X159995968Y-52409215D01*
X159995971Y-52409213D01*
X160051782Y-52332394D01*
X160116287Y-52243610D01*
X160209220Y-52061219D01*
X160272477Y-51866534D01*
X160304500Y-51664352D01*
X160304500Y-51459648D01*
X160283479Y-51326928D01*
X160272477Y-51257465D01*
X160224727Y-51110508D01*
X160209220Y-51062781D01*
X160209218Y-51062778D01*
X160209218Y-51062776D01*
X160175503Y-50996607D01*
X160116287Y-50880390D01*
X160084092Y-50836077D01*
X159995971Y-50714786D01*
X159851213Y-50570028D01*
X159685614Y-50449715D01*
X159662816Y-50438099D01*
X159592917Y-50402483D01*
X159542123Y-50354511D01*
X159525328Y-50286690D01*
X159547865Y-50220555D01*
X159592917Y-50181516D01*
X159685610Y-50134287D01*
X159818139Y-50038000D01*
X159851213Y-50013971D01*
X159851215Y-50013968D01*
X159851219Y-50013966D01*
X159995966Y-49869219D01*
X159995968Y-49869215D01*
X159995971Y-49869213D01*
X160074914Y-49760555D01*
X160116287Y-49703610D01*
X160209220Y-49521219D01*
X160272477Y-49326534D01*
X160304500Y-49124352D01*
X160304500Y-48919648D01*
X160289699Y-48826198D01*
X160272477Y-48717465D01*
X160237651Y-48610284D01*
X160209220Y-48522781D01*
X160209218Y-48522778D01*
X160209218Y-48522776D01*
X160144562Y-48395883D01*
X160116287Y-48340390D01*
X160075673Y-48284489D01*
X159995971Y-48174786D01*
X159851213Y-48030028D01*
X159685614Y-47909715D01*
X159645176Y-47889111D01*
X159592917Y-47862483D01*
X159542123Y-47814511D01*
X159525328Y-47746690D01*
X159547865Y-47680555D01*
X159592917Y-47641516D01*
X159685610Y-47594287D01*
X159715091Y-47572868D01*
X159851213Y-47473971D01*
X159851215Y-47473968D01*
X159851219Y-47473966D01*
X159995966Y-47329219D01*
X159995968Y-47329215D01*
X159995971Y-47329213D01*
X160058103Y-47243694D01*
X160116287Y-47163610D01*
X160209220Y-46981219D01*
X160272477Y-46786534D01*
X160304500Y-46584352D01*
X160304500Y-46379648D01*
X160279207Y-46219954D01*
X160272477Y-46177465D01*
X160209410Y-45983366D01*
X160209220Y-45982781D01*
X160209218Y-45982778D01*
X160209218Y-45982776D01*
X160157105Y-45880500D01*
X160116287Y-45800390D01*
X160086942Y-45760000D01*
X159995971Y-45634786D01*
X159851213Y-45490028D01*
X159685614Y-45369715D01*
X159679006Y-45366348D01*
X159592917Y-45322483D01*
X159542123Y-45274511D01*
X159525328Y-45206690D01*
X159547865Y-45140555D01*
X159592917Y-45101516D01*
X159685610Y-45054287D01*
X159814482Y-44960657D01*
X159851213Y-44933971D01*
X159851215Y-44933968D01*
X159851219Y-44933966D01*
X159995966Y-44789219D01*
X159995968Y-44789215D01*
X159995971Y-44789213D01*
X160116286Y-44623612D01*
X160123286Y-44609873D01*
X160132348Y-44592087D01*
X160180320Y-44541292D01*
X160248140Y-44524495D01*
X160314276Y-44547031D01*
X160330514Y-44560700D01*
X161834930Y-46065115D01*
X161868415Y-46126438D01*
X161863431Y-46196130D01*
X161847568Y-46225679D01*
X161823723Y-46258500D01*
X161733160Y-46383147D01*
X161639510Y-46566945D01*
X161575769Y-46763119D01*
X161575769Y-46763122D01*
X161572061Y-46786534D01*
X161543500Y-46966861D01*
X161543500Y-47173139D01*
X161556853Y-47257443D01*
X161575769Y-47376877D01*
X161575769Y-47376880D01*
X161639510Y-47573054D01*
X161650329Y-47594287D01*
X161733160Y-47756852D01*
X161854407Y-47923733D01*
X162000267Y-48069593D01*
X162167148Y-48190840D01*
X162350030Y-48284023D01*
X162350945Y-48284489D01*
X162547120Y-48348230D01*
X162547121Y-48348230D01*
X162547124Y-48348231D01*
X162750861Y-48380500D01*
X162750862Y-48380500D01*
X162957138Y-48380500D01*
X162957139Y-48380500D01*
X163160876Y-48348231D01*
X163160879Y-48348230D01*
X163160880Y-48348230D01*
X163357054Y-48284489D01*
X163357054Y-48284488D01*
X163357057Y-48284488D01*
X163540852Y-48190840D01*
X163707733Y-48069593D01*
X163853593Y-47923733D01*
X163974840Y-47756852D01*
X164068488Y-47573057D01*
X164132231Y-47376876D01*
X164164500Y-47173139D01*
X164164500Y-46966895D01*
X166544000Y-46966895D01*
X166544000Y-47173104D01*
X166576256Y-47376759D01*
X166639976Y-47572868D01*
X166733587Y-47756590D01*
X166767365Y-47803080D01*
X166767365Y-47803081D01*
X167411861Y-47158584D01*
X167434667Y-47243694D01*
X167493910Y-47346306D01*
X167577694Y-47430090D01*
X167680306Y-47489333D01*
X167765414Y-47512137D01*
X167120917Y-48156633D01*
X167120918Y-48156634D01*
X167167404Y-48190408D01*
X167167417Y-48190416D01*
X167351131Y-48284023D01*
X167547240Y-48347743D01*
X167750896Y-48380000D01*
X167957104Y-48380000D01*
X168160759Y-48347743D01*
X168356868Y-48284023D01*
X168540590Y-48190412D01*
X168587080Y-48156634D01*
X168587080Y-48156633D01*
X167942585Y-47512138D01*
X168027694Y-47489333D01*
X168130306Y-47430090D01*
X168214090Y-47346306D01*
X168273333Y-47243694D01*
X168296138Y-47158585D01*
X168940633Y-47803080D01*
X168940634Y-47803080D01*
X168974412Y-47756590D01*
X169068023Y-47572868D01*
X169131743Y-47376759D01*
X169164000Y-47173104D01*
X169164000Y-46966895D01*
X169131743Y-46763240D01*
X169068023Y-46567131D01*
X168974416Y-46383417D01*
X168974408Y-46383404D01*
X168940634Y-46336918D01*
X168940633Y-46336917D01*
X168296137Y-46981413D01*
X168273333Y-46896306D01*
X168214090Y-46793694D01*
X168130306Y-46709910D01*
X168027694Y-46650667D01*
X167942583Y-46627861D01*
X168587081Y-45983365D01*
X168540590Y-45949587D01*
X168356868Y-45855976D01*
X168160759Y-45792256D01*
X167957104Y-45760000D01*
X167750896Y-45760000D01*
X167547240Y-45792256D01*
X167351131Y-45855976D01*
X167167413Y-45949585D01*
X167120918Y-45983365D01*
X167120918Y-45983366D01*
X167765414Y-46627861D01*
X167680306Y-46650667D01*
X167577694Y-46709910D01*
X167493910Y-46793694D01*
X167434667Y-46896306D01*
X167411861Y-46981414D01*
X166767366Y-46336918D01*
X166767365Y-46336918D01*
X166733585Y-46383413D01*
X166639976Y-46567131D01*
X166576256Y-46763240D01*
X166544000Y-46966895D01*
X164164500Y-46966895D01*
X164164500Y-46966861D01*
X164132231Y-46763124D01*
X164132230Y-46763120D01*
X164132230Y-46763119D01*
X164068489Y-46566945D01*
X164037450Y-46506028D01*
X163974840Y-46383148D01*
X163853593Y-46216267D01*
X163707733Y-46070407D01*
X163540852Y-45949160D01*
X163357058Y-45855512D01*
X163336099Y-45848702D01*
X163286739Y-45818453D01*
X162017956Y-44549670D01*
X161935147Y-44466861D01*
X164043500Y-44466861D01*
X164043500Y-44673138D01*
X164075769Y-44876877D01*
X164075769Y-44876880D01*
X164139510Y-45073054D01*
X164206207Y-45203954D01*
X164233160Y-45256852D01*
X164354407Y-45423733D01*
X164500267Y-45569593D01*
X164667148Y-45690840D01*
X164834298Y-45776007D01*
X164850945Y-45784489D01*
X165047120Y-45848230D01*
X165047121Y-45848230D01*
X165047124Y-45848231D01*
X165250861Y-45880500D01*
X165250862Y-45880500D01*
X165457138Y-45880500D01*
X165457139Y-45880500D01*
X165660876Y-45848231D01*
X165660879Y-45848230D01*
X165660880Y-45848230D01*
X165857054Y-45784489D01*
X165857054Y-45784488D01*
X165857057Y-45784488D01*
X166040852Y-45690840D01*
X166207733Y-45569593D01*
X166353593Y-45423733D01*
X166474840Y-45256852D01*
X166568488Y-45073057D01*
X166568489Y-45073054D01*
X166632230Y-44876880D01*
X166632230Y-44876879D01*
X166632231Y-44876876D01*
X166664500Y-44673139D01*
X166664500Y-44466861D01*
X166632231Y-44263124D01*
X166632230Y-44263120D01*
X166632230Y-44263119D01*
X166568489Y-44066945D01*
X166474839Y-43883147D01*
X166447643Y-43845715D01*
X166353593Y-43716267D01*
X166207733Y-43570407D01*
X166040852Y-43449160D01*
X165857054Y-43355510D01*
X165660879Y-43291769D01*
X165508073Y-43267567D01*
X165457139Y-43259500D01*
X165250861Y-43259500D01*
X165182948Y-43270256D01*
X165047122Y-43291769D01*
X165047119Y-43291769D01*
X164850945Y-43355510D01*
X164667147Y-43449160D01*
X164500265Y-43570408D01*
X164354408Y-43716265D01*
X164233160Y-43883147D01*
X164139510Y-44066945D01*
X164075769Y-44263119D01*
X164075769Y-44263122D01*
X164043500Y-44466861D01*
X161935147Y-44466861D01*
X159546640Y-42078355D01*
X159546638Y-42078352D01*
X159427767Y-41959481D01*
X159427766Y-41959480D01*
X159340954Y-41909360D01*
X159340954Y-41909359D01*
X159340950Y-41909358D01*
X159290835Y-41880423D01*
X159138107Y-41839499D01*
X158979993Y-41839499D01*
X158972397Y-41839499D01*
X158972381Y-41839500D01*
X145459857Y-41839500D01*
X145301743Y-41839500D01*
X145149015Y-41880423D01*
X145149014Y-41880423D01*
X145149012Y-41880424D01*
X145149009Y-41880425D01*
X145098896Y-41909359D01*
X145098895Y-41909360D01*
X145055489Y-41934420D01*
X145012085Y-41959479D01*
X145012082Y-41959481D01*
X142854481Y-44117082D01*
X142854479Y-44117085D01*
X142804361Y-44203894D01*
X142804359Y-44203896D01*
X142775425Y-44254009D01*
X142775424Y-44254010D01*
X142752543Y-44339401D01*
X142743211Y-44374232D01*
X142734499Y-44406744D01*
X142733439Y-44414796D01*
X142705170Y-44478692D01*
X142646845Y-44517161D01*
X142576980Y-44517990D01*
X142517758Y-44480916D01*
X142487980Y-44417710D01*
X142486500Y-44398607D01*
X142486500Y-40756500D01*
X142506185Y-40689461D01*
X142558989Y-40643706D01*
X142610500Y-40632500D01*
X188859500Y-40632500D01*
X188926539Y-40652185D01*
G37*
%TD.AperFunction*%
%TD*%
M02*
