%TF.GenerationSoftware,KiCad,Pcbnew,9.0.6*%
%TF.CreationDate,2025-12-16T12:18:39+05:30*%
%TF.ProjectId,Headphone Amplifier,48656164-7068-46f6-9e65-20416d706c69,rev?*%
%TF.SameCoordinates,Original*%
%TF.FileFunction,Legend,Bot*%
%TF.FilePolarity,Positive*%
%FSLAX46Y46*%
G04 Gerber Fmt 4.6, Leading zero omitted, Abs format (unit mm)*
G04 Created by KiCad (PCBNEW 9.0.6) date 2025-12-16 12:18:39*
%MOMM*%
%LPD*%
G01*
G04 APERTURE LIST*
G04 Aperture macros list*
%AMRoundRect*
0 Rectangle with rounded corners*
0 $1 Rounding radius*
0 $2 $3 $4 $5 $6 $7 $8 $9 X,Y pos of 4 corners*
0 Add a 4 corners polygon primitive as box body*
4,1,4,$2,$3,$4,$5,$6,$7,$8,$9,$2,$3,0*
0 Add four circle primitives for the rounded corners*
1,1,$1+$1,$2,$3*
1,1,$1+$1,$4,$5*
1,1,$1+$1,$6,$7*
1,1,$1+$1,$8,$9*
0 Add four rect primitives between the rounded corners*
20,1,$1+$1,$2,$3,$4,$5,0*
20,1,$1+$1,$4,$5,$6,$7,0*
20,1,$1+$1,$6,$7,$8,$9,0*
20,1,$1+$1,$8,$9,$2,$3,0*%
G04 Aperture macros list end*
%ADD10C,1.600000*%
%ADD11C,1.400000*%
%ADD12C,1.200000*%
%ADD13RoundRect,0.250000X-0.550000X-0.550000X0.550000X-0.550000X0.550000X0.550000X-0.550000X0.550000X0*%
%ADD14R,1.700000X1.700000*%
%ADD15C,1.700000*%
%ADD16C,1.620000*%
G04 APERTURE END LIST*
%LPC*%
D10*
%TO.C,C2*%
X150876000Y-64018000D03*
X150876000Y-59018000D03*
%TD*%
%TO.C,C1*%
X151638000Y-56388000D03*
X156638000Y-56388000D03*
%TD*%
%TO.C,C3*%
X157226000Y-64018000D03*
X157226000Y-59018000D03*
%TD*%
D11*
%TO.C,R3*%
X185674000Y-62738000D03*
X185674000Y-57658000D03*
%TD*%
D12*
%TO.C,C6*%
X168402000Y-59182000D03*
X170402000Y-59182000D03*
%TD*%
%TO.C,C5*%
X163846000Y-52832000D03*
X165846000Y-52832000D03*
%TD*%
D13*
%TO.C,U1*%
X148844000Y-43942000D03*
D10*
X148844000Y-46482000D03*
X148844000Y-49022000D03*
X148844000Y-51562000D03*
X159004000Y-51562000D03*
X159004000Y-49022000D03*
X159004000Y-46482000D03*
X159004000Y-43942000D03*
%TD*%
D11*
%TO.C,R2*%
X181102000Y-58166000D03*
X176022000Y-58166000D03*
%TD*%
D14*
%TO.C,J1*%
X145288000Y-45969000D03*
D15*
X145288000Y-48509000D03*
%TD*%
D16*
%TO.C,RV1*%
X162854000Y-47070000D03*
X165354000Y-44570000D03*
X167854000Y-47070000D03*
%TD*%
D13*
%TO.C,U2*%
X171704000Y-44958000D03*
D10*
X171704000Y-47498000D03*
X171704000Y-50038000D03*
X171704000Y-52578000D03*
X181864000Y-52578000D03*
X181864000Y-50038000D03*
X181864000Y-47498000D03*
X181864000Y-44958000D03*
%TD*%
D14*
%TO.C,J2*%
X185674000Y-47498000D03*
D15*
X185674000Y-50038000D03*
%TD*%
D11*
%TO.C,R1*%
X181610000Y-62738000D03*
X176530000Y-62738000D03*
%TD*%
D10*
%TO.C,C4*%
X163322000Y-63978000D03*
X163322000Y-58978000D03*
%TD*%
%LPD*%
M02*
