%TF.GenerationSoftware,KiCad,Pcbnew,9.0.6*%
%TF.CreationDate,2025-12-19T13:32:14+05:30*%
%TF.ProjectId,Headphone Amplifier,48656164-7068-46f6-9e65-20416d706c69,rev?*%
%TF.SameCoordinates,Original*%
%TF.FileFunction,Soldermask,Top*%
%TF.FilePolarity,Negative*%
%FSLAX46Y46*%
G04 Gerber Fmt 4.6, Leading zero omitted, Abs format (unit mm)*
G04 Created by KiCad (PCBNEW 9.0.6) date 2025-12-19 13:32:14*
%MOMM*%
%LPD*%
G01*
G04 APERTURE LIST*
G04 Aperture macros list*
%AMRoundRect*
0 Rectangle with rounded corners*
0 $1 Rounding radius*
0 $2 $3 $4 $5 $6 $7 $8 $9 X,Y pos of 4 corners*
0 Add a 4 corners polygon primitive as box body*
4,1,4,$2,$3,$4,$5,$6,$7,$8,$9,$2,$3,0*
0 Add four circle primitives for the rounded corners*
1,1,$1+$1,$2,$3*
1,1,$1+$1,$4,$5*
1,1,$1+$1,$6,$7*
1,1,$1+$1,$8,$9*
0 Add four rect primitives between the rounded corners*
20,1,$1+$1,$2,$3,$4,$5,0*
20,1,$1+$1,$4,$5,$6,$7,0*
20,1,$1+$1,$6,$7,$8,$9,0*
20,1,$1+$1,$8,$9,$2,$3,0*%
G04 Aperture macros list end*
%ADD10C,1.600000*%
%ADD11C,1.620000*%
%ADD12RoundRect,0.250000X-1.050000X-1.050000X1.050000X-1.050000X1.050000X1.050000X-1.050000X1.050000X0*%
%ADD13C,2.600000*%
%ADD14C,2.800000*%
%ADD15RoundRect,0.250000X-0.550000X-0.550000X0.550000X-0.550000X0.550000X0.550000X-0.550000X0.550000X0*%
G04 APERTURE END LIST*
D10*
%TO.C,R3*%
X70612000Y-132574000D03*
X78232000Y-132574000D03*
%TD*%
%TO.C,R2*%
X70612000Y-128524000D03*
X78232000Y-128524000D03*
%TD*%
%TO.C,C1*%
X64028000Y-135890000D03*
X66528000Y-135890000D03*
%TD*%
%TO.C,R5*%
X93726000Y-124728000D03*
X101346000Y-124728000D03*
%TD*%
%TO.C,R4*%
X70358000Y-136906000D03*
X77978000Y-136906000D03*
%TD*%
%TO.C,C2*%
X81548000Y-141986000D03*
X81548000Y-136986000D03*
%TD*%
%TO.C,C4*%
X89648000Y-141986000D03*
X89648000Y-136986000D03*
%TD*%
%TO.C,R7*%
X93726000Y-132828000D03*
X101346000Y-132828000D03*
%TD*%
%TO.C,R6*%
X93726000Y-128778000D03*
X101346000Y-128778000D03*
%TD*%
%TO.C,R1*%
X70612000Y-124474000D03*
X78232000Y-124474000D03*
%TD*%
D11*
%TO.C,RV1*%
X69930000Y-143764000D03*
X72430000Y-141264000D03*
X74930000Y-143764000D03*
%TD*%
D12*
%TO.C,J1*%
X60452000Y-127254000D03*
D13*
X65532000Y-127254000D03*
%TD*%
D10*
%TO.C,C3*%
X85598000Y-141986000D03*
X85598000Y-136986000D03*
%TD*%
D14*
%TO.C,J2*%
X109850000Y-136688000D03*
X107850000Y-128788000D03*
X109850000Y-131188000D03*
%TD*%
D15*
%TO.C,U1*%
X82296000Y-124460000D03*
D10*
X82296000Y-127000000D03*
X82296000Y-129540000D03*
X82296000Y-132080000D03*
X89916000Y-132080000D03*
X89916000Y-129540000D03*
X89916000Y-127000000D03*
X89916000Y-124460000D03*
%TD*%
%TO.C,R8*%
X93726000Y-136878000D03*
X101346000Y-136878000D03*
%TD*%
M02*
