M48
; DRILL file {KiCad 9.0.6} date 2025-12-19T13:31:07+0530
; FORMAT={-:-/ absolute / metric / decimal}
; #@! TF.CreationDate,2025-12-19T13:31:07+05:30
; #@! TF.GenerationSoftware,Kicad,Pcbnew,9.0.6
; #@! TF.FileFunction,Plated,1,2,PTH
FMAT,2
METRIC
; #@! TA.AperFunction,Plated,PTH,ComponentDrill
T1C0.800
; #@! TA.AperFunction,Plated,PTH,ComponentDrill
T2C0.900
; #@! TA.AperFunction,Plated,PTH,ComponentDrill
T3C1.300
; #@! TA.AperFunction,Plated,PTH,ComponentDrill
T4C2.000
%
G90
G05
T1
X64.028Y-135.89
X66.528Y-135.89
X70.358Y-136.906
X70.612Y-124.474
X70.612Y-128.524
X70.612Y-132.574
X77.978Y-136.906
X78.232Y-124.474
X78.232Y-128.524
X78.232Y-132.574
X81.548Y-136.986
X81.548Y-141.986
X82.296Y-124.46
X82.296Y-127.0
X82.296Y-129.54
X82.296Y-132.08
X85.598Y-136.986
X85.598Y-141.986
X89.648Y-136.986
X89.648Y-141.986
X89.916Y-124.46
X89.916Y-127.0
X89.916Y-129.54
X89.916Y-132.08
X93.726Y-124.728
X93.726Y-128.778
X93.726Y-132.828
X93.726Y-136.878
X101.346Y-124.728
X101.346Y-128.778
X101.346Y-132.828
X101.346Y-136.878
T2
X69.93Y-143.764
X72.43Y-141.264
X74.93Y-143.764
T3
X60.452Y-127.254
X65.532Y-127.254
T4
X107.85Y-128.788
X109.85Y-131.188
X109.85Y-136.688
M30
