%TF.GenerationSoftware,KiCad,Pcbnew,9.0.6*%
%TF.CreationDate,2025-12-19T13:32:14+05:30*%
%TF.ProjectId,Headphone Amplifier,48656164-7068-46f6-9e65-20416d706c69,rev?*%
%TF.SameCoordinates,Original*%
%TF.FileFunction,Copper,L1,Top*%
%TF.FilePolarity,Positive*%
%FSLAX46Y46*%
G04 Gerber Fmt 4.6, Leading zero omitted, Abs format (unit mm)*
G04 Created by KiCad (PCBNEW 9.0.6) date 2025-12-19 13:32:14*
%MOMM*%
%LPD*%
G01*
G04 APERTURE LIST*
G04 Aperture macros list*
%AMRoundRect*
0 Rectangle with rounded corners*
0 $1 Rounding radius*
0 $2 $3 $4 $5 $6 $7 $8 $9 X,Y pos of 4 corners*
0 Add a 4 corners polygon primitive as box body*
4,1,4,$2,$3,$4,$5,$6,$7,$8,$9,$2,$3,0*
0 Add four circle primitives for the rounded corners*
1,1,$1+$1,$2,$3*
1,1,$1+$1,$4,$5*
1,1,$1+$1,$6,$7*
1,1,$1+$1,$8,$9*
0 Add four rect primitives between the rounded corners*
20,1,$1+$1,$2,$3,$4,$5,0*
20,1,$1+$1,$4,$5,$6,$7,0*
20,1,$1+$1,$6,$7,$8,$9,0*
20,1,$1+$1,$8,$9,$2,$3,0*%
G04 Aperture macros list end*
%TA.AperFunction,ComponentPad*%
%ADD10C,1.600000*%
%TD*%
%TA.AperFunction,ComponentPad*%
%ADD11C,1.620000*%
%TD*%
%TA.AperFunction,ComponentPad*%
%ADD12RoundRect,0.250000X-1.050000X-1.050000X1.050000X-1.050000X1.050000X1.050000X-1.050000X1.050000X0*%
%TD*%
%TA.AperFunction,ComponentPad*%
%ADD13C,2.600000*%
%TD*%
%TA.AperFunction,ComponentPad*%
%ADD14C,2.800000*%
%TD*%
%TA.AperFunction,ComponentPad*%
%ADD15RoundRect,0.250000X-0.550000X-0.550000X0.550000X-0.550000X0.550000X0.550000X-0.550000X0.550000X0*%
%TD*%
%TA.AperFunction,Conductor*%
%ADD16C,0.200000*%
%TD*%
G04 APERTURE END LIST*
D10*
%TO.P,R3,1*%
%TO.N,GND*%
X70612000Y-132574000D03*
%TO.P,R3,2*%
%TO.N,Net-(U1A--)*%
X78232000Y-132574000D03*
%TD*%
%TO.P,R2,1*%
%TO.N,Net-(C1-Pad2)*%
X70612000Y-128524000D03*
%TO.P,R2,2*%
%TO.N,Net-(U1A-+)*%
X78232000Y-128524000D03*
%TD*%
%TO.P,C1,1*%
%TO.N,Net-(J1-Pin_2)*%
X64028000Y-135890000D03*
%TO.P,C1,2*%
%TO.N,Net-(C1-Pad2)*%
X66528000Y-135890000D03*
%TD*%
%TO.P,R5,1*%
%TO.N,GND*%
X93726000Y-124728000D03*
%TO.P,R5,2*%
%TO.N,Net-(U1B--)*%
X101346000Y-124728000D03*
%TD*%
%TO.P,R4,1*%
%TO.N,Net-(U1A--)*%
X70358000Y-136906000D03*
%TO.P,R4,2*%
%TO.N,Net-(R4-Pad2)*%
X77978000Y-136906000D03*
%TD*%
%TO.P,C2,1*%
%TO.N,GND*%
X81548000Y-141986000D03*
%TO.P,C2,2*%
%TO.N,+12V*%
X81548000Y-136986000D03*
%TD*%
%TO.P,C4,1*%
%TO.N,Net-(C4-Pad1)*%
X89648000Y-141986000D03*
%TO.P,C4,2*%
%TO.N,GND*%
X89648000Y-136986000D03*
%TD*%
%TO.P,R7,1*%
%TO.N,Net-(C4-Pad1)*%
X93726000Y-132828000D03*
%TO.P,R7,2*%
%TO.N,Net-(R6-Pad2)*%
X101346000Y-132828000D03*
%TD*%
%TO.P,R6,1*%
%TO.N,Net-(U1B--)*%
X93726000Y-128778000D03*
%TO.P,R6,2*%
%TO.N,Net-(R6-Pad2)*%
X101346000Y-128778000D03*
%TD*%
%TO.P,R1,1*%
%TO.N,Net-(C1-Pad2)*%
X70612000Y-124474000D03*
%TO.P,R1,2*%
%TO.N,GND*%
X78232000Y-124474000D03*
%TD*%
D11*
%TO.P,RV1,1,1*%
%TO.N,Net-(R4-Pad2)*%
X69930000Y-143764000D03*
%TO.P,RV1,2,2*%
%TO.N,Net-(U1B-+)*%
X72430000Y-141264000D03*
%TO.P,RV1,3,3*%
%TO.N,GND*%
X74930000Y-143764000D03*
%TD*%
D12*
%TO.P,J1,1,Pin_1*%
%TO.N,GND*%
X60452000Y-127254000D03*
D13*
%TO.P,J1,2,Pin_2*%
%TO.N,Net-(J1-Pin_2)*%
X65532000Y-127254000D03*
%TD*%
D10*
%TO.P,C3,1*%
%TO.N,GND*%
X85598000Y-141986000D03*
%TO.P,C3,2*%
%TO.N,-12V*%
X85598000Y-136986000D03*
%TD*%
D14*
%TO.P,J2,R*%
%TO.N,N/C*%
X109850000Y-136688000D03*
%TO.P,J2,S*%
%TO.N,GND*%
X107850000Y-128788000D03*
%TO.P,J2,T*%
%TO.N,Net-(J2-PadT)*%
X109850000Y-131188000D03*
%TD*%
D15*
%TO.P,U1,1*%
%TO.N,Net-(R4-Pad2)*%
X82296000Y-124460000D03*
D10*
%TO.P,U1,2,-*%
%TO.N,Net-(U1A--)*%
X82296000Y-127000000D03*
%TO.P,U1,3,+*%
%TO.N,Net-(U1A-+)*%
X82296000Y-129540000D03*
%TO.P,U1,4,V-*%
%TO.N,-12V*%
X82296000Y-132080000D03*
%TO.P,U1,5,+*%
%TO.N,Net-(U1B-+)*%
X89916000Y-132080000D03*
%TO.P,U1,6,-*%
%TO.N,Net-(U1B--)*%
X89916000Y-129540000D03*
%TO.P,U1,7*%
%TO.N,Net-(R6-Pad2)*%
X89916000Y-127000000D03*
%TO.P,U1,8,V+*%
%TO.N,+12V*%
X89916000Y-124460000D03*
%TD*%
%TO.P,R8,1*%
%TO.N,Net-(R6-Pad2)*%
X93726000Y-136878000D03*
%TO.P,R8,2*%
%TO.N,Net-(J2-PadT)*%
X101346000Y-136878000D03*
%TD*%
D16*
%TO.N,GND*%
X74930000Y-136892000D02*
X74930000Y-143764000D01*
X70612000Y-132574000D02*
X74930000Y-136892000D01*
X60452000Y-127254000D02*
X65772000Y-132574000D01*
X70612000Y-132574000D02*
X78232000Y-124954000D01*
X85598000Y-141986000D02*
X89648000Y-137936000D01*
X78232000Y-124954000D02*
X78232000Y-124474000D01*
X74930000Y-143764000D02*
X79770000Y-143764000D01*
X89648000Y-137936000D02*
X89648000Y-136986000D01*
X81548000Y-141986000D02*
X85598000Y-141986000D01*
X91017000Y-135617000D02*
X91017000Y-127437000D01*
X91017000Y-127437000D02*
X93726000Y-124728000D01*
X89648000Y-136986000D02*
X91017000Y-135617000D01*
X79770000Y-143764000D02*
X81548000Y-141986000D01*
X65772000Y-132574000D02*
X70612000Y-132574000D01*
%TO.N,Net-(U1A--)*%
X78232000Y-132574000D02*
X80165000Y-130641000D01*
X83397000Y-128101000D02*
X82296000Y-127000000D01*
X80165000Y-130641000D02*
X82752050Y-130641000D01*
X83397000Y-129996050D02*
X83397000Y-128101000D01*
X82752050Y-130641000D02*
X83397000Y-129996050D01*
%TO.N,Net-(C4-Pad1)*%
X90749000Y-136936370D02*
X93726000Y-133959370D01*
X93726000Y-133959370D02*
X93726000Y-132828000D01*
X89648000Y-141986000D02*
X90749000Y-140885000D01*
X90749000Y-140885000D02*
X90749000Y-136936370D01*
%TO.N,Net-(U1A-+)*%
X78232000Y-128524000D02*
X81280000Y-128524000D01*
X81280000Y-128524000D02*
X82296000Y-129540000D01*
%TO.N,+12V*%
X88815000Y-129719000D02*
X88815000Y-125561000D01*
X81548000Y-136986000D02*
X88815000Y-129719000D01*
X88815000Y-125561000D02*
X89916000Y-124460000D01*
%TO.N,-12V*%
X80447000Y-133929000D02*
X82296000Y-132080000D01*
X84497000Y-138087000D02*
X81091950Y-138087000D01*
X85598000Y-136986000D02*
X84497000Y-138087000D01*
X80447000Y-137442050D02*
X80447000Y-133929000D01*
X81091950Y-138087000D02*
X80447000Y-137442050D01*
%TO.N,Net-(R4-Pad2)*%
X80738950Y-124460000D02*
X82296000Y-124460000D01*
X77978000Y-136906000D02*
X77131000Y-136059000D01*
X77131000Y-136059000D02*
X77131000Y-128067950D01*
X77131000Y-128067950D02*
X80738950Y-124460000D01*
%TO.N,Net-(R6-Pad2)*%
X89916000Y-127000000D02*
X89916000Y-126980950D01*
X89916000Y-126980950D02*
X93269950Y-123627000D01*
X96802000Y-136878000D02*
X93726000Y-136878000D01*
X93269950Y-123627000D02*
X96195000Y-123627000D01*
X100852000Y-132828000D02*
X96802000Y-136878000D01*
X101346000Y-128778000D02*
X101346000Y-132828000D01*
X96195000Y-123627000D02*
X101346000Y-128778000D01*
X101346000Y-132828000D02*
X100852000Y-132828000D01*
%TD*%
%TA.AperFunction,Conductor*%
%TO.N,GND*%
G36*
X112726539Y-120916185D02*
G01*
X112772294Y-120968989D01*
X112783500Y-121020500D01*
X112783500Y-144917500D01*
X112763815Y-144984539D01*
X112711011Y-145030294D01*
X112659500Y-145041500D01*
X75782008Y-145041500D01*
X75714969Y-145021815D01*
X75669214Y-144969011D01*
X75660407Y-144907764D01*
X75658596Y-144907622D01*
X75663080Y-144850633D01*
X75018585Y-144206138D01*
X75103694Y-144183333D01*
X75206306Y-144124090D01*
X75290090Y-144040306D01*
X75349333Y-143937694D01*
X75372138Y-143852585D01*
X76016633Y-144497080D01*
X76016634Y-144497080D01*
X76050412Y-144450590D01*
X76144023Y-144266868D01*
X76207743Y-144070759D01*
X76240000Y-143867104D01*
X76240000Y-143660895D01*
X76207743Y-143457240D01*
X76144023Y-143261131D01*
X76050415Y-143077415D01*
X76050408Y-143077404D01*
X76016634Y-143030918D01*
X76016633Y-143030917D01*
X75372137Y-143675413D01*
X75349333Y-143590306D01*
X75290090Y-143487694D01*
X75206306Y-143403910D01*
X75103694Y-143344667D01*
X75018583Y-143321861D01*
X75663081Y-142677365D01*
X75616590Y-142643587D01*
X75432868Y-142549976D01*
X75236759Y-142486256D01*
X75033104Y-142454000D01*
X74826896Y-142454000D01*
X74623240Y-142486256D01*
X74427131Y-142549976D01*
X74243413Y-142643585D01*
X74196918Y-142677365D01*
X74196918Y-142677366D01*
X74841414Y-143321861D01*
X74756306Y-143344667D01*
X74653694Y-143403910D01*
X74569910Y-143487694D01*
X74510667Y-143590306D01*
X74487861Y-143675414D01*
X73843366Y-143030918D01*
X73843365Y-143030918D01*
X73809585Y-143077413D01*
X73715976Y-143261131D01*
X73652256Y-143457240D01*
X73620000Y-143660895D01*
X73620000Y-143867104D01*
X73652256Y-144070759D01*
X73715976Y-144266868D01*
X73809587Y-144450590D01*
X73843365Y-144497080D01*
X73843365Y-144497081D01*
X74487861Y-143852584D01*
X74510667Y-143937694D01*
X74569910Y-144040306D01*
X74653694Y-144124090D01*
X74756306Y-144183333D01*
X74841414Y-144206137D01*
X74196917Y-144850633D01*
X74201403Y-144907622D01*
X74196589Y-144908000D01*
X74199516Y-144942148D01*
X74166898Y-145003937D01*
X74106053Y-145038283D01*
X74077990Y-145041500D01*
X70782860Y-145041500D01*
X70715821Y-145021815D01*
X70670066Y-144969011D01*
X70660122Y-144899853D01*
X70689147Y-144836297D01*
X70709971Y-144817184D01*
X70783733Y-144763593D01*
X70929593Y-144617733D01*
X71050840Y-144450852D01*
X71144488Y-144267057D01*
X71208231Y-144070876D01*
X71240500Y-143867139D01*
X71240500Y-143660861D01*
X71208231Y-143457124D01*
X71208230Y-143457120D01*
X71208230Y-143457119D01*
X71144489Y-143260945D01*
X71108961Y-143191218D01*
X71050840Y-143077148D01*
X70929593Y-142910267D01*
X70783733Y-142764407D01*
X70616852Y-142643160D01*
X70433054Y-142549510D01*
X70236879Y-142485769D01*
X70084073Y-142461567D01*
X70033139Y-142453500D01*
X69826861Y-142453500D01*
X69758948Y-142464256D01*
X69623122Y-142485769D01*
X69623119Y-142485769D01*
X69426945Y-142549510D01*
X69243147Y-142643160D01*
X69076265Y-142764408D01*
X68930408Y-142910265D01*
X68809160Y-143077147D01*
X68715510Y-143260945D01*
X68651769Y-143457119D01*
X68651769Y-143457122D01*
X68619500Y-143660861D01*
X68619500Y-143867138D01*
X68651769Y-144070877D01*
X68651769Y-144070880D01*
X68715510Y-144267054D01*
X68715512Y-144267057D01*
X68809160Y-144450852D01*
X68930407Y-144617733D01*
X69076267Y-144763593D01*
X69150026Y-144817182D01*
X69192691Y-144872512D01*
X69198670Y-144942126D01*
X69166064Y-145003921D01*
X69105225Y-145038278D01*
X69077140Y-145041500D01*
X57012500Y-145041500D01*
X56945461Y-145021815D01*
X56899706Y-144969011D01*
X56888500Y-144917500D01*
X56888500Y-141160861D01*
X71119500Y-141160861D01*
X71119500Y-141367138D01*
X71151769Y-141570877D01*
X71151769Y-141570880D01*
X71215510Y-141767054D01*
X71215512Y-141767057D01*
X71309160Y-141950852D01*
X71430407Y-142117733D01*
X71576267Y-142263593D01*
X71743148Y-142384840D01*
X71926943Y-142478488D01*
X71926945Y-142478489D01*
X72123120Y-142542230D01*
X72123121Y-142542230D01*
X72123124Y-142542231D01*
X72326861Y-142574500D01*
X72326862Y-142574500D01*
X72533138Y-142574500D01*
X72533139Y-142574500D01*
X72736876Y-142542231D01*
X72736879Y-142542230D01*
X72736880Y-142542230D01*
X72933054Y-142478489D01*
X72933054Y-142478488D01*
X72933057Y-142478488D01*
X73116852Y-142384840D01*
X73283733Y-142263593D01*
X73429593Y-142117733D01*
X73550840Y-141950852D01*
X73585065Y-141883682D01*
X80248000Y-141883682D01*
X80248000Y-142088317D01*
X80280009Y-142290417D01*
X80343244Y-142485031D01*
X80436141Y-142667350D01*
X80436147Y-142667359D01*
X80468523Y-142711921D01*
X80468524Y-142711922D01*
X81148000Y-142032446D01*
X81148000Y-142038661D01*
X81175259Y-142140394D01*
X81227920Y-142231606D01*
X81302394Y-142306080D01*
X81393606Y-142358741D01*
X81495339Y-142386000D01*
X81501553Y-142386000D01*
X80822076Y-143065474D01*
X80866650Y-143097859D01*
X81048968Y-143190755D01*
X81243582Y-143253990D01*
X81445683Y-143286000D01*
X81650317Y-143286000D01*
X81852417Y-143253990D01*
X82047031Y-143190755D01*
X82229349Y-143097859D01*
X82273921Y-143065474D01*
X81594447Y-142386000D01*
X81600661Y-142386000D01*
X81702394Y-142358741D01*
X81793606Y-142306080D01*
X81868080Y-142231606D01*
X81920741Y-142140394D01*
X81948000Y-142038661D01*
X81948000Y-142032447D01*
X82627474Y-142711921D01*
X82659859Y-142667349D01*
X82752755Y-142485031D01*
X82815990Y-142290417D01*
X82848000Y-142088317D01*
X82848000Y-141883682D01*
X84298000Y-141883682D01*
X84298000Y-142088317D01*
X84330009Y-142290417D01*
X84393244Y-142485031D01*
X84486141Y-142667350D01*
X84486147Y-142667359D01*
X84518523Y-142711921D01*
X84518524Y-142711922D01*
X85198000Y-142032446D01*
X85198000Y-142038661D01*
X85225259Y-142140394D01*
X85277920Y-142231606D01*
X85352394Y-142306080D01*
X85443606Y-142358741D01*
X85545339Y-142386000D01*
X85551553Y-142386000D01*
X84872076Y-143065474D01*
X84916650Y-143097859D01*
X85098968Y-143190755D01*
X85293582Y-143253990D01*
X85495683Y-143286000D01*
X85700317Y-143286000D01*
X85902417Y-143253990D01*
X86097031Y-143190755D01*
X86279349Y-143097859D01*
X86323921Y-143065474D01*
X85644447Y-142386000D01*
X85650661Y-142386000D01*
X85752394Y-142358741D01*
X85843606Y-142306080D01*
X85918080Y-142231606D01*
X85970741Y-142140394D01*
X85998000Y-142038661D01*
X85998000Y-142032447D01*
X86677474Y-142711921D01*
X86709859Y-142667349D01*
X86802755Y-142485031D01*
X86865990Y-142290417D01*
X86898000Y-142088317D01*
X86898000Y-141883682D01*
X86865990Y-141681582D01*
X86802755Y-141486968D01*
X86709859Y-141304650D01*
X86677474Y-141260077D01*
X86677474Y-141260076D01*
X85998000Y-141939551D01*
X85998000Y-141933339D01*
X85970741Y-141831606D01*
X85918080Y-141740394D01*
X85843606Y-141665920D01*
X85752394Y-141613259D01*
X85650661Y-141586000D01*
X85644446Y-141586000D01*
X86323922Y-140906524D01*
X86323921Y-140906523D01*
X86279359Y-140874147D01*
X86279350Y-140874141D01*
X86097031Y-140781244D01*
X85902417Y-140718009D01*
X85700317Y-140686000D01*
X85495683Y-140686000D01*
X85293582Y-140718009D01*
X85098968Y-140781244D01*
X84916644Y-140874143D01*
X84872077Y-140906523D01*
X84872077Y-140906524D01*
X85551554Y-141586000D01*
X85545339Y-141586000D01*
X85443606Y-141613259D01*
X85352394Y-141665920D01*
X85277920Y-141740394D01*
X85225259Y-141831606D01*
X85198000Y-141933339D01*
X85198000Y-141939553D01*
X84518524Y-141260077D01*
X84518523Y-141260077D01*
X84486143Y-141304644D01*
X84393244Y-141486968D01*
X84330009Y-141681582D01*
X84298000Y-141883682D01*
X82848000Y-141883682D01*
X82815990Y-141681582D01*
X82752755Y-141486968D01*
X82659859Y-141304650D01*
X82627474Y-141260077D01*
X82627474Y-141260076D01*
X81948000Y-141939551D01*
X81948000Y-141933339D01*
X81920741Y-141831606D01*
X81868080Y-141740394D01*
X81793606Y-141665920D01*
X81702394Y-141613259D01*
X81600661Y-141586000D01*
X81594446Y-141586000D01*
X82273922Y-140906524D01*
X82273921Y-140906523D01*
X82229359Y-140874147D01*
X82229350Y-140874141D01*
X82047031Y-140781244D01*
X81852417Y-140718009D01*
X81650317Y-140686000D01*
X81445683Y-140686000D01*
X81243582Y-140718009D01*
X81048968Y-140781244D01*
X80866644Y-140874143D01*
X80822077Y-140906523D01*
X80822077Y-140906524D01*
X81501554Y-141586000D01*
X81495339Y-141586000D01*
X81393606Y-141613259D01*
X81302394Y-141665920D01*
X81227920Y-141740394D01*
X81175259Y-141831606D01*
X81148000Y-141933339D01*
X81148000Y-141939553D01*
X80468524Y-141260077D01*
X80468523Y-141260077D01*
X80436143Y-141304644D01*
X80343244Y-141486968D01*
X80280009Y-141681582D01*
X80248000Y-141883682D01*
X73585065Y-141883682D01*
X73644488Y-141767057D01*
X73653151Y-141740394D01*
X73708230Y-141570880D01*
X73708230Y-141570879D01*
X73708231Y-141570876D01*
X73740500Y-141367139D01*
X73740500Y-141160861D01*
X73708231Y-140957124D01*
X73708229Y-140957119D01*
X73708229Y-140957116D01*
X73644489Y-140760945D01*
X73636697Y-140745653D01*
X73550840Y-140577148D01*
X73429593Y-140410267D01*
X73283733Y-140264407D01*
X73116852Y-140143160D01*
X72933054Y-140049510D01*
X72736879Y-139985769D01*
X72584073Y-139961567D01*
X72533139Y-139953500D01*
X72326861Y-139953500D01*
X72258948Y-139964256D01*
X72123122Y-139985769D01*
X72123119Y-139985769D01*
X71926945Y-140049510D01*
X71743147Y-140143160D01*
X71576265Y-140264408D01*
X71430408Y-140410265D01*
X71309160Y-140577147D01*
X71215510Y-140760945D01*
X71151769Y-140957119D01*
X71151769Y-140957122D01*
X71119500Y-141160861D01*
X56888500Y-141160861D01*
X56888500Y-135787648D01*
X62727500Y-135787648D01*
X62727500Y-135992352D01*
X62731878Y-136019995D01*
X62759522Y-136194534D01*
X62822781Y-136389223D01*
X62880055Y-136501627D01*
X62913697Y-136567654D01*
X62915715Y-136571613D01*
X63036028Y-136737213D01*
X63180786Y-136881971D01*
X63316197Y-136980351D01*
X63346390Y-137002287D01*
X63458796Y-137059561D01*
X63528776Y-137095218D01*
X63528778Y-137095218D01*
X63528781Y-137095220D01*
X63633137Y-137129127D01*
X63723465Y-137158477D01*
X63824557Y-137174488D01*
X63925648Y-137190500D01*
X63925649Y-137190500D01*
X64130351Y-137190500D01*
X64130352Y-137190500D01*
X64332534Y-137158477D01*
X64527219Y-137095220D01*
X64709610Y-137002287D01*
X64804510Y-136933339D01*
X64875213Y-136881971D01*
X64875215Y-136881968D01*
X64875219Y-136881966D01*
X65019966Y-136737219D01*
X65019968Y-136737215D01*
X65019971Y-136737213D01*
X65096087Y-136632446D01*
X65140287Y-136571610D01*
X65167515Y-136518171D01*
X65215490Y-136467376D01*
X65283311Y-136450581D01*
X65349446Y-136473118D01*
X65388484Y-136518171D01*
X65413697Y-136567654D01*
X65415715Y-136571613D01*
X65536028Y-136737213D01*
X65680786Y-136881971D01*
X65816197Y-136980351D01*
X65846390Y-137002287D01*
X65958796Y-137059561D01*
X66028776Y-137095218D01*
X66028778Y-137095218D01*
X66028781Y-137095220D01*
X66133137Y-137129127D01*
X66223465Y-137158477D01*
X66324557Y-137174488D01*
X66425648Y-137190500D01*
X66425649Y-137190500D01*
X66630351Y-137190500D01*
X66630352Y-137190500D01*
X66832534Y-137158477D01*
X67027219Y-137095220D01*
X67209610Y-137002287D01*
X67304510Y-136933339D01*
X67375213Y-136881971D01*
X67375215Y-136881968D01*
X67375219Y-136881966D01*
X67453537Y-136803648D01*
X69057500Y-136803648D01*
X69057500Y-137008351D01*
X69089522Y-137210534D01*
X69152781Y-137405223D01*
X69198734Y-137495409D01*
X69231448Y-137559614D01*
X69245715Y-137587613D01*
X69366028Y-137753213D01*
X69510786Y-137897971D01*
X69620892Y-137977966D01*
X69676390Y-138018287D01*
X69769000Y-138065474D01*
X69858776Y-138111218D01*
X69858778Y-138111218D01*
X69858781Y-138111220D01*
X69963137Y-138145127D01*
X70053465Y-138174477D01*
X70154557Y-138190488D01*
X70255648Y-138206500D01*
X70255649Y-138206500D01*
X70460351Y-138206500D01*
X70460352Y-138206500D01*
X70662534Y-138174477D01*
X70857219Y-138111220D01*
X71039610Y-138018287D01*
X71142160Y-137943781D01*
X71205213Y-137897971D01*
X71205215Y-137897968D01*
X71205219Y-137897966D01*
X71349966Y-137753219D01*
X71349968Y-137753215D01*
X71349971Y-137753213D01*
X71412353Y-137667350D01*
X71470287Y-137587610D01*
X71563220Y-137405219D01*
X71626477Y-137210534D01*
X71658500Y-137008352D01*
X71658500Y-136803648D01*
X71647978Y-136737213D01*
X71626477Y-136601465D01*
X71589274Y-136486968D01*
X71563220Y-136406781D01*
X71563218Y-136406778D01*
X71563218Y-136406776D01*
X71517186Y-136316435D01*
X71470287Y-136224390D01*
X71408093Y-136138786D01*
X71407561Y-136138054D01*
X76530498Y-136138054D01*
X76571423Y-136290786D01*
X76575704Y-136298200D01*
X76579033Y-136303965D01*
X76650480Y-136427716D01*
X76692157Y-136469393D01*
X76698716Y-136479020D01*
X76706019Y-136501627D01*
X76717406Y-136522480D01*
X76716782Y-136534944D01*
X76720195Y-136545506D01*
X76715337Y-136563860D01*
X76714173Y-136587149D01*
X76709523Y-136601460D01*
X76709523Y-136601462D01*
X76677500Y-136803648D01*
X76677500Y-137008351D01*
X76709522Y-137210534D01*
X76772781Y-137405223D01*
X76818734Y-137495409D01*
X76851448Y-137559614D01*
X76865715Y-137587613D01*
X76986028Y-137753213D01*
X77130786Y-137897971D01*
X77240892Y-137977966D01*
X77296390Y-138018287D01*
X77389000Y-138065474D01*
X77478776Y-138111218D01*
X77478778Y-138111218D01*
X77478781Y-138111220D01*
X77583137Y-138145127D01*
X77673465Y-138174477D01*
X77774557Y-138190488D01*
X77875648Y-138206500D01*
X77875649Y-138206500D01*
X78080351Y-138206500D01*
X78080352Y-138206500D01*
X78282534Y-138174477D01*
X78477219Y-138111220D01*
X78659610Y-138018287D01*
X78762160Y-137943781D01*
X78825213Y-137897971D01*
X78825215Y-137897968D01*
X78825219Y-137897966D01*
X78969966Y-137753219D01*
X78969968Y-137753215D01*
X78969971Y-137753213D01*
X79032353Y-137667350D01*
X79090287Y-137587610D01*
X79183220Y-137405219D01*
X79246477Y-137210534D01*
X79278500Y-137008352D01*
X79278500Y-136803648D01*
X79267978Y-136737213D01*
X79246477Y-136601465D01*
X79209274Y-136486968D01*
X79183220Y-136406781D01*
X79183218Y-136406778D01*
X79183218Y-136406776D01*
X79137186Y-136316435D01*
X79090287Y-136224390D01*
X79028093Y-136138786D01*
X78969971Y-136058786D01*
X78825213Y-135914028D01*
X78659613Y-135793715D01*
X78659612Y-135793714D01*
X78659610Y-135793713D01*
X78602653Y-135764691D01*
X78477223Y-135700781D01*
X78282534Y-135637522D01*
X78105745Y-135609522D01*
X78080352Y-135605500D01*
X77875648Y-135605500D01*
X77874878Y-135605622D01*
X77874583Y-135605583D01*
X77870797Y-135605882D01*
X77870734Y-135605085D01*
X77805586Y-135596655D01*
X77752141Y-135551650D01*
X77731512Y-135484895D01*
X77731500Y-135483145D01*
X77731500Y-133949475D01*
X77751185Y-133882436D01*
X77803989Y-133836681D01*
X77873147Y-133826737D01*
X77893820Y-133831545D01*
X77927458Y-133842475D01*
X77927461Y-133842475D01*
X77927466Y-133842477D01*
X78129648Y-133874500D01*
X78129649Y-133874500D01*
X78334351Y-133874500D01*
X78334352Y-133874500D01*
X78536534Y-133842477D01*
X78731219Y-133779220D01*
X78913610Y-133686287D01*
X79006590Y-133618732D01*
X79079213Y-133565971D01*
X79079215Y-133565968D01*
X79079219Y-133565966D01*
X79223966Y-133421219D01*
X79223968Y-133421215D01*
X79223971Y-133421213D01*
X79282544Y-133340592D01*
X79344287Y-133255610D01*
X79437220Y-133073219D01*
X79500477Y-132878534D01*
X79532500Y-132676352D01*
X79532500Y-132471648D01*
X79500477Y-132269466D01*
X79495825Y-132255151D01*
X79493832Y-132185312D01*
X79526075Y-132129158D01*
X80377416Y-131277819D01*
X80438739Y-131244334D01*
X80465097Y-131241500D01*
X81061303Y-131241500D01*
X81128342Y-131261185D01*
X81174097Y-131313989D01*
X81184041Y-131383147D01*
X81171788Y-131421795D01*
X81090781Y-131580776D01*
X81027522Y-131775465D01*
X80995500Y-131977648D01*
X80995500Y-132182351D01*
X81027522Y-132384534D01*
X81032173Y-132398848D01*
X81034165Y-132468690D01*
X81001921Y-132524842D01*
X80078286Y-133448478D01*
X79966481Y-133560282D01*
X79966475Y-133560290D01*
X79928532Y-133626011D01*
X79928532Y-133626013D01*
X79887423Y-133697214D01*
X79887423Y-133697215D01*
X79846499Y-133849943D01*
X79846499Y-133849945D01*
X79846499Y-134018046D01*
X79846500Y-134018059D01*
X79846500Y-137355380D01*
X79846499Y-137355398D01*
X79846499Y-137521104D01*
X79846498Y-137521104D01*
X79887423Y-137673835D01*
X79909412Y-137711922D01*
X79913086Y-137718284D01*
X79929161Y-137746127D01*
X79966479Y-137810764D01*
X79966481Y-137810767D01*
X80085349Y-137929635D01*
X80085355Y-137929640D01*
X80607089Y-138451374D01*
X80607099Y-138451385D01*
X80611429Y-138455715D01*
X80611430Y-138455716D01*
X80723234Y-138567520D01*
X80810045Y-138617639D01*
X80810047Y-138617641D01*
X80848101Y-138639611D01*
X80860165Y-138646577D01*
X81012893Y-138687501D01*
X81012896Y-138687501D01*
X81178603Y-138687501D01*
X81178619Y-138687500D01*
X84410331Y-138687500D01*
X84410347Y-138687501D01*
X84417943Y-138687501D01*
X84576054Y-138687501D01*
X84576057Y-138687501D01*
X84728785Y-138646577D01*
X84778904Y-138617639D01*
X84865716Y-138567520D01*
X84977520Y-138455716D01*
X84977520Y-138455714D01*
X84987728Y-138445507D01*
X84987730Y-138445504D01*
X85153158Y-138280075D01*
X85214479Y-138246592D01*
X85279151Y-138249825D01*
X85293466Y-138254477D01*
X85495648Y-138286500D01*
X85495649Y-138286500D01*
X85700351Y-138286500D01*
X85700352Y-138286500D01*
X85902534Y-138254477D01*
X86097219Y-138191220D01*
X86279610Y-138098287D01*
X86372590Y-138030732D01*
X86445213Y-137977971D01*
X86445215Y-137977968D01*
X86445219Y-137977966D01*
X86589966Y-137833219D01*
X86589968Y-137833215D01*
X86589971Y-137833213D01*
X86648093Y-137753213D01*
X86710287Y-137667610D01*
X86803220Y-137485219D01*
X86866477Y-137290534D01*
X86898500Y-137088352D01*
X86898500Y-136883648D01*
X86881394Y-136775648D01*
X86866477Y-136681465D01*
X86822301Y-136545506D01*
X86803220Y-136486781D01*
X86803218Y-136486778D01*
X86803218Y-136486776D01*
X86762455Y-136406776D01*
X86710287Y-136304390D01*
X86700402Y-136290785D01*
X86589971Y-136138786D01*
X86445213Y-135994028D01*
X86279613Y-135873715D01*
X86279612Y-135873714D01*
X86279610Y-135873713D01*
X86222653Y-135844691D01*
X86097223Y-135780781D01*
X85902534Y-135717522D01*
X85727995Y-135689878D01*
X85700352Y-135685500D01*
X85495648Y-135685500D01*
X85471329Y-135689351D01*
X85293465Y-135717522D01*
X85098776Y-135780781D01*
X84916386Y-135873715D01*
X84750786Y-135994028D01*
X84606028Y-136138786D01*
X84485715Y-136304386D01*
X84392781Y-136486776D01*
X84329522Y-136681465D01*
X84301900Y-136855865D01*
X84297500Y-136883648D01*
X84297500Y-137088352D01*
X84298588Y-137095220D01*
X84329523Y-137290535D01*
X84334172Y-137304845D01*
X84334605Y-137320052D01*
X84339924Y-137334308D01*
X84335582Y-137354269D01*
X84336165Y-137374687D01*
X84328078Y-137388770D01*
X84325075Y-137402581D01*
X84303926Y-137430837D01*
X84284588Y-137450177D01*
X84223266Y-137483665D01*
X84196902Y-137486500D01*
X82923476Y-137486500D01*
X82856437Y-137466815D01*
X82810682Y-137414011D01*
X82800738Y-137344853D01*
X82805545Y-137324183D01*
X82816475Y-137290542D01*
X82816475Y-137290538D01*
X82816477Y-137290534D01*
X82848500Y-137088352D01*
X82848500Y-136883648D01*
X82816477Y-136681466D01*
X82811825Y-136667151D01*
X82809832Y-136597312D01*
X82842075Y-136541158D01*
X88872347Y-130510887D01*
X88933666Y-130477405D01*
X89003358Y-130482389D01*
X89047705Y-130510890D01*
X89068786Y-130531971D01*
X89223749Y-130644556D01*
X89234390Y-130652287D01*
X89304481Y-130688000D01*
X89327080Y-130699515D01*
X89377876Y-130747490D01*
X89394671Y-130815311D01*
X89372134Y-130881446D01*
X89327080Y-130920485D01*
X89234386Y-130967715D01*
X89068786Y-131088028D01*
X88924028Y-131232786D01*
X88803715Y-131398386D01*
X88710781Y-131580776D01*
X88647522Y-131775465D01*
X88615500Y-131977648D01*
X88615500Y-132182351D01*
X88647522Y-132384534D01*
X88710781Y-132579223D01*
X88760254Y-132676317D01*
X88785389Y-132725648D01*
X88803715Y-132761613D01*
X88924028Y-132927213D01*
X89068786Y-133071971D01*
X89152146Y-133132534D01*
X89234390Y-133192287D01*
X89350607Y-133251503D01*
X89416776Y-133285218D01*
X89416778Y-133285218D01*
X89416781Y-133285220D01*
X89521137Y-133319127D01*
X89611465Y-133348477D01*
X89712557Y-133364488D01*
X89813648Y-133380500D01*
X89813649Y-133380500D01*
X90018351Y-133380500D01*
X90018352Y-133380500D01*
X90220534Y-133348477D01*
X90415219Y-133285220D01*
X90597610Y-133192287D01*
X90740462Y-133088500D01*
X90763213Y-133071971D01*
X90763215Y-133071968D01*
X90763219Y-133071966D01*
X90907966Y-132927219D01*
X90907968Y-132927215D01*
X90907971Y-132927213D01*
X90960732Y-132854590D01*
X91028287Y-132761610D01*
X91121220Y-132579219D01*
X91184477Y-132384534D01*
X91216500Y-132182352D01*
X91216500Y-131977648D01*
X91203037Y-131892650D01*
X91184477Y-131775465D01*
X91147253Y-131660903D01*
X91121220Y-131580781D01*
X91121218Y-131580778D01*
X91121218Y-131580776D01*
X91077269Y-131494523D01*
X91028287Y-131398390D01*
X91007248Y-131369432D01*
X90907971Y-131232786D01*
X90763213Y-131088028D01*
X90597614Y-130967715D01*
X90591006Y-130964348D01*
X90504917Y-130920483D01*
X90454123Y-130872511D01*
X90437328Y-130804690D01*
X90459865Y-130738555D01*
X90504917Y-130699516D01*
X90597610Y-130652287D01*
X90618770Y-130636913D01*
X90763213Y-130531971D01*
X90763215Y-130531968D01*
X90763219Y-130531966D01*
X90907966Y-130387219D01*
X90907968Y-130387215D01*
X90907971Y-130387213D01*
X91023764Y-130227835D01*
X91028287Y-130221610D01*
X91121220Y-130039219D01*
X91184477Y-129844534D01*
X91216500Y-129642352D01*
X91216500Y-129437648D01*
X91189601Y-129267815D01*
X91184477Y-129235465D01*
X91133862Y-129079689D01*
X91121220Y-129040781D01*
X91121218Y-129040778D01*
X91121218Y-129040776D01*
X91055874Y-128912533D01*
X91028287Y-128858390D01*
X90977146Y-128788000D01*
X90944935Y-128743664D01*
X90944932Y-128743661D01*
X90907965Y-128692780D01*
X90890833Y-128675648D01*
X92425500Y-128675648D01*
X92425500Y-128880351D01*
X92457522Y-129082534D01*
X92520781Y-129277223D01*
X92613715Y-129459613D01*
X92734028Y-129625213D01*
X92878786Y-129769971D01*
X93027730Y-129878183D01*
X93044390Y-129890287D01*
X93126696Y-129932224D01*
X93226776Y-129983218D01*
X93226778Y-129983218D01*
X93226781Y-129983220D01*
X93301818Y-130007601D01*
X93421465Y-130046477D01*
X93522557Y-130062488D01*
X93623648Y-130078500D01*
X93623649Y-130078500D01*
X93828351Y-130078500D01*
X93828352Y-130078500D01*
X94030534Y-130046477D01*
X94225219Y-129983220D01*
X94407610Y-129890287D01*
X94500590Y-129822732D01*
X94573213Y-129769971D01*
X94573215Y-129769968D01*
X94573219Y-129769966D01*
X94717966Y-129625219D01*
X94717968Y-129625215D01*
X94717971Y-129625213D01*
X94770732Y-129552590D01*
X94838287Y-129459610D01*
X94931220Y-129277219D01*
X94994477Y-129082534D01*
X95026500Y-128880352D01*
X95026500Y-128675648D01*
X94994477Y-128473466D01*
X94989028Y-128456697D01*
X94964266Y-128380485D01*
X94931220Y-128278781D01*
X94931218Y-128278778D01*
X94931218Y-128278776D01*
X94878825Y-128175950D01*
X94838287Y-128096390D01*
X94806069Y-128052045D01*
X94717971Y-127930786D01*
X94573213Y-127786028D01*
X94407613Y-127665715D01*
X94407612Y-127665714D01*
X94407610Y-127665713D01*
X94343315Y-127632953D01*
X94225223Y-127572781D01*
X94030534Y-127509522D01*
X93855995Y-127481878D01*
X93828352Y-127477500D01*
X93623648Y-127477500D01*
X93599329Y-127481351D01*
X93421465Y-127509522D01*
X93226776Y-127572781D01*
X93044386Y-127665715D01*
X92878786Y-127786028D01*
X92734028Y-127930786D01*
X92613715Y-128096386D01*
X92520781Y-128278776D01*
X92457522Y-128473465D01*
X92425500Y-128675648D01*
X90890833Y-128675648D01*
X90763213Y-128548028D01*
X90597614Y-128427715D01*
X90575674Y-128416536D01*
X90504917Y-128380483D01*
X90454123Y-128332511D01*
X90437328Y-128264690D01*
X90459865Y-128198555D01*
X90504917Y-128159516D01*
X90597610Y-128112287D01*
X90680512Y-128052056D01*
X90763213Y-127991971D01*
X90763215Y-127991968D01*
X90763219Y-127991966D01*
X90907966Y-127847219D01*
X90907968Y-127847215D01*
X90907971Y-127847213D01*
X90972142Y-127758888D01*
X91028287Y-127681610D01*
X91121220Y-127499219D01*
X91184477Y-127304534D01*
X91216500Y-127102352D01*
X91216500Y-126897648D01*
X91184477Y-126695466D01*
X91175154Y-126666776D01*
X91173160Y-126596936D01*
X91205403Y-126540780D01*
X92399859Y-125346325D01*
X92461178Y-125312843D01*
X92530870Y-125317827D01*
X92586803Y-125359699D01*
X92598020Y-125377712D01*
X92614140Y-125409349D01*
X92614147Y-125409359D01*
X92646523Y-125453921D01*
X92646524Y-125453922D01*
X93326000Y-124774446D01*
X93326000Y-124780661D01*
X93353259Y-124882394D01*
X93405920Y-124973606D01*
X93480394Y-125048080D01*
X93571606Y-125100741D01*
X93673339Y-125128000D01*
X93679553Y-125128000D01*
X93000076Y-125807474D01*
X93044650Y-125839859D01*
X93226968Y-125932755D01*
X93421582Y-125995990D01*
X93623683Y-126028000D01*
X93828317Y-126028000D01*
X94030417Y-125995990D01*
X94225031Y-125932755D01*
X94407349Y-125839859D01*
X94451921Y-125807474D01*
X93772447Y-125128000D01*
X93778661Y-125128000D01*
X93880394Y-125100741D01*
X93971606Y-125048080D01*
X94046080Y-124973606D01*
X94098741Y-124882394D01*
X94126000Y-124780661D01*
X94126000Y-124774447D01*
X94805474Y-125453921D01*
X94837859Y-125409349D01*
X94930755Y-125227031D01*
X94993990Y-125032417D01*
X95026000Y-124830317D01*
X95026000Y-124625682D01*
X94993989Y-124423581D01*
X94993988Y-124423574D01*
X94983020Y-124389817D01*
X94981025Y-124319976D01*
X95017106Y-124260144D01*
X95079807Y-124229316D01*
X95100951Y-124227500D01*
X95894903Y-124227500D01*
X95961942Y-124247185D01*
X95982584Y-124263819D01*
X100051922Y-128333157D01*
X100085407Y-128394480D01*
X100082173Y-128459155D01*
X100077522Y-128473468D01*
X100045500Y-128675648D01*
X100045500Y-128880351D01*
X100077522Y-129082534D01*
X100140781Y-129277223D01*
X100233715Y-129459613D01*
X100354028Y-129625213D01*
X100354034Y-129625219D01*
X100498781Y-129769966D01*
X100664390Y-129890287D01*
X100677793Y-129897116D01*
X100728589Y-129945088D01*
X100745500Y-130007601D01*
X100745500Y-131598397D01*
X100725815Y-131665436D01*
X100677800Y-131708879D01*
X100664389Y-131715712D01*
X100498786Y-131836028D01*
X100354028Y-131980786D01*
X100233715Y-132146386D01*
X100140781Y-132328776D01*
X100077522Y-132523465D01*
X100045500Y-132725648D01*
X100045500Y-132733903D01*
X100025815Y-132800942D01*
X100009181Y-132821584D01*
X96589584Y-136241181D01*
X96528261Y-136274666D01*
X96501903Y-136277500D01*
X94955602Y-136277500D01*
X94888563Y-136257815D01*
X94845117Y-136209795D01*
X94838284Y-136196385D01*
X94717971Y-136030786D01*
X94573213Y-135886028D01*
X94407613Y-135765715D01*
X94407612Y-135765714D01*
X94407610Y-135765713D01*
X94334487Y-135728455D01*
X94225223Y-135672781D01*
X94030534Y-135609522D01*
X93855995Y-135581878D01*
X93828352Y-135577500D01*
X93623648Y-135577500D01*
X93599329Y-135581351D01*
X93421465Y-135609522D01*
X93226773Y-135672782D01*
X93180267Y-135696479D01*
X93111598Y-135709375D01*
X93046858Y-135683098D01*
X93006601Y-135625991D01*
X93003609Y-135556186D01*
X93036291Y-135498314D01*
X94206520Y-134328086D01*
X94285577Y-134191154D01*
X94326501Y-134038427D01*
X94326501Y-134038425D01*
X94328604Y-134030577D01*
X94330882Y-134031187D01*
X94354251Y-133978334D01*
X94392646Y-133947911D01*
X94407610Y-133940287D01*
X94498847Y-133874000D01*
X94573213Y-133819971D01*
X94573215Y-133819968D01*
X94573219Y-133819966D01*
X94717966Y-133675219D01*
X94717968Y-133675215D01*
X94717971Y-133675213D01*
X94770732Y-133602590D01*
X94838287Y-133509610D01*
X94931220Y-133327219D01*
X94994477Y-133132534D01*
X95026500Y-132930352D01*
X95026500Y-132725648D01*
X94994477Y-132523466D01*
X94968583Y-132443774D01*
X94931218Y-132328776D01*
X94893076Y-132253920D01*
X94838287Y-132146390D01*
X94825766Y-132129156D01*
X94717971Y-131980786D01*
X94573213Y-131836028D01*
X94407613Y-131715715D01*
X94407612Y-131715714D01*
X94407610Y-131715713D01*
X94350653Y-131686691D01*
X94225223Y-131622781D01*
X94030534Y-131559522D01*
X93855995Y-131531878D01*
X93828352Y-131527500D01*
X93623648Y-131527500D01*
X93599329Y-131531351D01*
X93421465Y-131559522D01*
X93226776Y-131622781D01*
X93044386Y-131715715D01*
X92878786Y-131836028D01*
X92734028Y-131980786D01*
X92613715Y-132146386D01*
X92520781Y-132328776D01*
X92457522Y-132523465D01*
X92425500Y-132725648D01*
X92425500Y-132930351D01*
X92457522Y-133132534D01*
X92520781Y-133327223D01*
X92613715Y-133509613D01*
X92734028Y-133675213D01*
X92859793Y-133800978D01*
X92893278Y-133862301D01*
X92888294Y-133931993D01*
X92859793Y-133976340D01*
X90383737Y-136452396D01*
X90383731Y-136452402D01*
X90380286Y-136455848D01*
X90380284Y-136455850D01*
X90268480Y-136567654D01*
X90239080Y-136618577D01*
X90233384Y-136628443D01*
X90189422Y-136704585D01*
X90189421Y-136704588D01*
X90163780Y-136800279D01*
X90131688Y-136855865D01*
X90048000Y-136939553D01*
X90048000Y-136933339D01*
X90020741Y-136831606D01*
X89968080Y-136740394D01*
X89893606Y-136665920D01*
X89802394Y-136613259D01*
X89700661Y-136586000D01*
X89694446Y-136586000D01*
X90373922Y-135906524D01*
X90373921Y-135906523D01*
X90329359Y-135874147D01*
X90329350Y-135874141D01*
X90147031Y-135781244D01*
X89952417Y-135718009D01*
X89750317Y-135686000D01*
X89545683Y-135686000D01*
X89343582Y-135718009D01*
X89148968Y-135781244D01*
X88966644Y-135874143D01*
X88922077Y-135906523D01*
X88922077Y-135906524D01*
X89601554Y-136586000D01*
X89595339Y-136586000D01*
X89493606Y-136613259D01*
X89402394Y-136665920D01*
X89327920Y-136740394D01*
X89275259Y-136831606D01*
X89248000Y-136933339D01*
X89248000Y-136939553D01*
X88568524Y-136260077D01*
X88568523Y-136260077D01*
X88536143Y-136304644D01*
X88443244Y-136486968D01*
X88380009Y-136681582D01*
X88348000Y-136883682D01*
X88348000Y-137088317D01*
X88380009Y-137290417D01*
X88443244Y-137485031D01*
X88536141Y-137667350D01*
X88536147Y-137667359D01*
X88568523Y-137711921D01*
X88568524Y-137711922D01*
X89248000Y-137032446D01*
X89248000Y-137038661D01*
X89275259Y-137140394D01*
X89327920Y-137231606D01*
X89402394Y-137306080D01*
X89493606Y-137358741D01*
X89595339Y-137386000D01*
X89601553Y-137386000D01*
X88922076Y-138065474D01*
X88966650Y-138097859D01*
X89148968Y-138190755D01*
X89343582Y-138253990D01*
X89545683Y-138286000D01*
X89750317Y-138286000D01*
X89952418Y-138253989D01*
X89952424Y-138253988D01*
X89986180Y-138243020D01*
X90056021Y-138241023D01*
X90115854Y-138277103D01*
X90146684Y-138339803D01*
X90148500Y-138360950D01*
X90148500Y-140584901D01*
X90139855Y-140614340D01*
X90133331Y-140644331D01*
X90129576Y-140649345D01*
X90128815Y-140651940D01*
X90112179Y-140672585D01*
X90092839Y-140691924D01*
X90031515Y-140725407D01*
X89966845Y-140722172D01*
X89952535Y-140717523D01*
X89851443Y-140701511D01*
X89750352Y-140685500D01*
X89545648Y-140685500D01*
X89521329Y-140689351D01*
X89343465Y-140717522D01*
X89148776Y-140780781D01*
X88966386Y-140873715D01*
X88800786Y-140994028D01*
X88800782Y-140994032D01*
X88656034Y-141138781D01*
X88656031Y-141138784D01*
X88535715Y-141304386D01*
X88442781Y-141486776D01*
X88379522Y-141681465D01*
X88347500Y-141883648D01*
X88347500Y-142088351D01*
X88379522Y-142290534D01*
X88442781Y-142485223D01*
X88475775Y-142549976D01*
X88535585Y-142667359D01*
X88535715Y-142667613D01*
X88656028Y-142833213D01*
X88800786Y-142977971D01*
X88921226Y-143065474D01*
X88966390Y-143098287D01*
X89082607Y-143157503D01*
X89148776Y-143191218D01*
X89148778Y-143191218D01*
X89148781Y-143191220D01*
X89253137Y-143225127D01*
X89343465Y-143254477D01*
X89444557Y-143270488D01*
X89545648Y-143286500D01*
X89545649Y-143286500D01*
X89750351Y-143286500D01*
X89750352Y-143286500D01*
X89952534Y-143254477D01*
X90147219Y-143191220D01*
X90329610Y-143098287D01*
X90422590Y-143030732D01*
X90495213Y-142977971D01*
X90495215Y-142977968D01*
X90495219Y-142977966D01*
X90639966Y-142833219D01*
X90639968Y-142833215D01*
X90639971Y-142833213D01*
X90692732Y-142760590D01*
X90760287Y-142667610D01*
X90853220Y-142485219D01*
X90916477Y-142290534D01*
X90948500Y-142088352D01*
X90948500Y-141883648D01*
X90916477Y-141681466D01*
X90911825Y-141667151D01*
X90911391Y-141651940D01*
X90906074Y-141637683D01*
X90910414Y-141617728D01*
X90909832Y-141597312D01*
X90917920Y-141583225D01*
X90920926Y-141569410D01*
X90942074Y-141541159D01*
X91107506Y-141375728D01*
X91107511Y-141375724D01*
X91117714Y-141365520D01*
X91117716Y-141365520D01*
X91229520Y-141253716D01*
X91295877Y-141138781D01*
X91308577Y-141116785D01*
X91349500Y-140964057D01*
X91349500Y-140805943D01*
X91349500Y-137236467D01*
X91369185Y-137169428D01*
X91385819Y-137148786D01*
X91853140Y-136681465D01*
X92346315Y-136188289D01*
X92407636Y-136154806D01*
X92477327Y-136159790D01*
X92533261Y-136201662D01*
X92557678Y-136267126D01*
X92544480Y-136332265D01*
X92520782Y-136378776D01*
X92520781Y-136378778D01*
X92520780Y-136378781D01*
X92517387Y-136389223D01*
X92457522Y-136573465D01*
X92431084Y-136740394D01*
X92425500Y-136775648D01*
X92425500Y-136980352D01*
X92426395Y-136986001D01*
X92457522Y-137182534D01*
X92520781Y-137377223D01*
X92613715Y-137559613D01*
X92734028Y-137725213D01*
X92878786Y-137869971D01*
X92980379Y-137943781D01*
X93044390Y-137990287D01*
X93160607Y-138049503D01*
X93226776Y-138083218D01*
X93226778Y-138083218D01*
X93226781Y-138083220D01*
X93312950Y-138111218D01*
X93421465Y-138146477D01*
X93522557Y-138162488D01*
X93623648Y-138178500D01*
X93623649Y-138178500D01*
X93828351Y-138178500D01*
X93828352Y-138178500D01*
X94030534Y-138146477D01*
X94225219Y-138083220D01*
X94407610Y-137990287D01*
X94500815Y-137922570D01*
X94573213Y-137869971D01*
X94573215Y-137869968D01*
X94573219Y-137869966D01*
X94717966Y-137725219D01*
X94717968Y-137725215D01*
X94717971Y-137725213D01*
X94838284Y-137559614D01*
X94838285Y-137559613D01*
X94838287Y-137559610D01*
X94845117Y-137546204D01*
X94893091Y-137495409D01*
X94955602Y-137478500D01*
X96715331Y-137478500D01*
X96715347Y-137478501D01*
X96722943Y-137478501D01*
X96881054Y-137478501D01*
X96881057Y-137478501D01*
X97033785Y-137437577D01*
X97089830Y-137405219D01*
X97170716Y-137358520D01*
X97282520Y-137246716D01*
X97282520Y-137246714D01*
X97292724Y-137236511D01*
X97292728Y-137236506D01*
X97753586Y-136775648D01*
X100045500Y-136775648D01*
X100045500Y-136980352D01*
X100046395Y-136986001D01*
X100077522Y-137182534D01*
X100140781Y-137377223D01*
X100233715Y-137559613D01*
X100354028Y-137725213D01*
X100498786Y-137869971D01*
X100600379Y-137943781D01*
X100664390Y-137990287D01*
X100780607Y-138049503D01*
X100846776Y-138083218D01*
X100846778Y-138083218D01*
X100846781Y-138083220D01*
X100932950Y-138111218D01*
X101041465Y-138146477D01*
X101142557Y-138162488D01*
X101243648Y-138178500D01*
X101243649Y-138178500D01*
X101448351Y-138178500D01*
X101448352Y-138178500D01*
X101650534Y-138146477D01*
X101845219Y-138083220D01*
X102027610Y-137990287D01*
X102120815Y-137922570D01*
X102193213Y-137869971D01*
X102193215Y-137869968D01*
X102193219Y-137869966D01*
X102337966Y-137725219D01*
X102337968Y-137725215D01*
X102337971Y-137725213D01*
X102390732Y-137652590D01*
X102458287Y-137559610D01*
X102551220Y-137377219D01*
X102614477Y-137182534D01*
X102646500Y-136980352D01*
X102646500Y-136775648D01*
X102614477Y-136573466D01*
X102611220Y-136563441D01*
X107949500Y-136563441D01*
X107949500Y-136812558D01*
X107949501Y-136812575D01*
X107979265Y-137038661D01*
X107982018Y-137059565D01*
X108009674Y-137162777D01*
X108046498Y-137300207D01*
X108141830Y-137530361D01*
X108141837Y-137530376D01*
X108266400Y-137746126D01*
X108418060Y-137943774D01*
X108418066Y-137943781D01*
X108594218Y-138119933D01*
X108594225Y-138119939D01*
X108791873Y-138271599D01*
X109007623Y-138396162D01*
X109007638Y-138396169D01*
X109106825Y-138437253D01*
X109237793Y-138491502D01*
X109478435Y-138555982D01*
X109725435Y-138588500D01*
X109725442Y-138588500D01*
X109974558Y-138588500D01*
X109974565Y-138588500D01*
X110221565Y-138555982D01*
X110462207Y-138491502D01*
X110692373Y-138396164D01*
X110908127Y-138271599D01*
X111105776Y-138119938D01*
X111281938Y-137943776D01*
X111433599Y-137746127D01*
X111558164Y-137530373D01*
X111653502Y-137300207D01*
X111717982Y-137059565D01*
X111750500Y-136812565D01*
X111750500Y-136563435D01*
X111717982Y-136316435D01*
X111653502Y-136075793D01*
X111586497Y-135914028D01*
X111558169Y-135845638D01*
X111558162Y-135845623D01*
X111433599Y-135629873D01*
X111281939Y-135432225D01*
X111281933Y-135432218D01*
X111105781Y-135256066D01*
X111105774Y-135256060D01*
X110908126Y-135104400D01*
X110692376Y-134979837D01*
X110692361Y-134979830D01*
X110462207Y-134884498D01*
X110221561Y-134820017D01*
X109974575Y-134787501D01*
X109974570Y-134787500D01*
X109974565Y-134787500D01*
X109725435Y-134787500D01*
X109725429Y-134787500D01*
X109725424Y-134787501D01*
X109478438Y-134820017D01*
X109237792Y-134884498D01*
X109007638Y-134979830D01*
X109007623Y-134979837D01*
X108791873Y-135104400D01*
X108594225Y-135256060D01*
X108594218Y-135256066D01*
X108418066Y-135432218D01*
X108418060Y-135432225D01*
X108266400Y-135629873D01*
X108141837Y-135845623D01*
X108141830Y-135845638D01*
X108046498Y-136075792D01*
X107982017Y-136316438D01*
X107949501Y-136563424D01*
X107949500Y-136563441D01*
X102611220Y-136563441D01*
X102551220Y-136378781D01*
X102551218Y-136378778D01*
X102551218Y-136378776D01*
X102506384Y-136290785D01*
X102458287Y-136196390D01*
X102415904Y-136138054D01*
X102337971Y-136030786D01*
X102193213Y-135886028D01*
X102027613Y-135765715D01*
X102027612Y-135765714D01*
X102027610Y-135765713D01*
X101954487Y-135728455D01*
X101845223Y-135672781D01*
X101650534Y-135609522D01*
X101475995Y-135581878D01*
X101448352Y-135577500D01*
X101243648Y-135577500D01*
X101219329Y-135581351D01*
X101041465Y-135609522D01*
X100846776Y-135672781D01*
X100664386Y-135765715D01*
X100498786Y-135886028D01*
X100354028Y-136030786D01*
X100233715Y-136196386D01*
X100140781Y-136378776D01*
X100077522Y-136573465D01*
X100051084Y-136740394D01*
X100045500Y-136775648D01*
X97753586Y-136775648D01*
X100550709Y-133978524D01*
X100612030Y-133945041D01*
X100681722Y-133950025D01*
X100694683Y-133955722D01*
X100846776Y-134033218D01*
X100846778Y-134033218D01*
X100846781Y-134033220D01*
X100951137Y-134067127D01*
X101041465Y-134096477D01*
X101142557Y-134112488D01*
X101243648Y-134128500D01*
X101243649Y-134128500D01*
X101448351Y-134128500D01*
X101448352Y-134128500D01*
X101650534Y-134096477D01*
X101845219Y-134033220D01*
X102027610Y-133940287D01*
X102120590Y-133872732D01*
X102193213Y-133819971D01*
X102193215Y-133819968D01*
X102193219Y-133819966D01*
X102337966Y-133675219D01*
X102337968Y-133675215D01*
X102337971Y-133675213D01*
X102390732Y-133602590D01*
X102458287Y-133509610D01*
X102551220Y-133327219D01*
X102614477Y-133132534D01*
X102646500Y-132930352D01*
X102646500Y-132725648D01*
X102614477Y-132523466D01*
X102588583Y-132443774D01*
X102551218Y-132328776D01*
X102513076Y-132253920D01*
X102458287Y-132146390D01*
X102445766Y-132129156D01*
X102337971Y-131980786D01*
X102193213Y-131836028D01*
X102027610Y-131715712D01*
X102014200Y-131708879D01*
X101963406Y-131660903D01*
X101946500Y-131598397D01*
X101946500Y-130007601D01*
X101966185Y-129940562D01*
X102014206Y-129897116D01*
X102027610Y-129890287D01*
X102193219Y-129769966D01*
X102337966Y-129625219D01*
X102337968Y-129625215D01*
X102337971Y-129625213D01*
X102390732Y-129552590D01*
X102458287Y-129459610D01*
X102551220Y-129277219D01*
X102614477Y-129082534D01*
X102646500Y-128880352D01*
X102646500Y-128675648D01*
X102644571Y-128663466D01*
X105950000Y-128663466D01*
X105950000Y-128912533D01*
X105982508Y-129159463D01*
X106046973Y-129400049D01*
X106142283Y-129630148D01*
X106142288Y-129630159D01*
X106266813Y-129845841D01*
X106266819Y-129845849D01*
X106341400Y-129943045D01*
X106987425Y-129297019D01*
X107073249Y-129425463D01*
X107212537Y-129564751D01*
X107340978Y-129650573D01*
X106694953Y-130296597D01*
X106694953Y-130296598D01*
X106792150Y-130371180D01*
X106792158Y-130371186D01*
X107007840Y-130495711D01*
X107007851Y-130495716D01*
X107237950Y-130591026D01*
X107478536Y-130655491D01*
X107725466Y-130688000D01*
X107857532Y-130688000D01*
X107924571Y-130707685D01*
X107970326Y-130760489D01*
X107980471Y-130828185D01*
X107949501Y-131063424D01*
X107949500Y-131063441D01*
X107949500Y-131312558D01*
X107949501Y-131312575D01*
X107977796Y-131527500D01*
X107982018Y-131559565D01*
X107998957Y-131622781D01*
X108046498Y-131800207D01*
X108141830Y-132030361D01*
X108141837Y-132030376D01*
X108266400Y-132246126D01*
X108418060Y-132443774D01*
X108418066Y-132443781D01*
X108594218Y-132619933D01*
X108594225Y-132619939D01*
X108791873Y-132771599D01*
X109007623Y-132896162D01*
X109007638Y-132896169D01*
X109090164Y-132930352D01*
X109237793Y-132991502D01*
X109478435Y-133055982D01*
X109725435Y-133088500D01*
X109725442Y-133088500D01*
X109974558Y-133088500D01*
X109974565Y-133088500D01*
X110221565Y-133055982D01*
X110462207Y-132991502D01*
X110692373Y-132896164D01*
X110908127Y-132771599D01*
X111105776Y-132619938D01*
X111281938Y-132443776D01*
X111433599Y-132246127D01*
X111558164Y-132030373D01*
X111653502Y-131800207D01*
X111717982Y-131559565D01*
X111750500Y-131312565D01*
X111750500Y-131063435D01*
X111717982Y-130816435D01*
X111653502Y-130575793D01*
X111568751Y-130371186D01*
X111558169Y-130345638D01*
X111558162Y-130345623D01*
X111433599Y-130129873D01*
X111281939Y-129932225D01*
X111281933Y-129932218D01*
X111105781Y-129756066D01*
X111105774Y-129756060D01*
X110908126Y-129604400D01*
X110692376Y-129479837D01*
X110692361Y-129479830D01*
X110462207Y-129384498D01*
X110221561Y-129320017D01*
X109974575Y-129287501D01*
X109974570Y-129287500D01*
X109974565Y-129287500D01*
X109842030Y-129287500D01*
X109774991Y-129267815D01*
X109729236Y-129215011D01*
X109719091Y-129147315D01*
X109750000Y-128912533D01*
X109750000Y-128663466D01*
X109717491Y-128416536D01*
X109653026Y-128175950D01*
X109557716Y-127945851D01*
X109557711Y-127945840D01*
X109433186Y-127730158D01*
X109433180Y-127730150D01*
X109358598Y-127632953D01*
X109358597Y-127632953D01*
X108712573Y-128278978D01*
X108626751Y-128150537D01*
X108487463Y-128011249D01*
X108359019Y-127925425D01*
X109005045Y-127279400D01*
X108907849Y-127204819D01*
X108907841Y-127204813D01*
X108692159Y-127080288D01*
X108692148Y-127080283D01*
X108462049Y-126984973D01*
X108221463Y-126920508D01*
X107974534Y-126888000D01*
X107725466Y-126888000D01*
X107478536Y-126920508D01*
X107237950Y-126984973D01*
X107007851Y-127080283D01*
X107007847Y-127080285D01*
X106792143Y-127204823D01*
X106694953Y-127279399D01*
X106694953Y-127279400D01*
X107340979Y-127925426D01*
X107212537Y-128011249D01*
X107073249Y-128150537D01*
X106987426Y-128278979D01*
X106341400Y-127632953D01*
X106341399Y-127632953D01*
X106266823Y-127730143D01*
X106142285Y-127945847D01*
X106142283Y-127945851D01*
X106046973Y-128175950D01*
X105982508Y-128416536D01*
X105950000Y-128663466D01*
X102644571Y-128663466D01*
X102614477Y-128473466D01*
X102609028Y-128456697D01*
X102584266Y-128380485D01*
X102551220Y-128278781D01*
X102551218Y-128278778D01*
X102551218Y-128278776D01*
X102498825Y-128175950D01*
X102458287Y-128096390D01*
X102426069Y-128052045D01*
X102337971Y-127930786D01*
X102193213Y-127786028D01*
X102027613Y-127665715D01*
X102027612Y-127665714D01*
X102027610Y-127665713D01*
X101963315Y-127632953D01*
X101845223Y-127572781D01*
X101650534Y-127509522D01*
X101475995Y-127481878D01*
X101448352Y-127477500D01*
X101243648Y-127477500D01*
X101205599Y-127483526D01*
X101041468Y-127509522D01*
X101032717Y-127512365D01*
X101027154Y-127514173D01*
X100957313Y-127516167D01*
X100901157Y-127483922D01*
X98042883Y-124625648D01*
X100045500Y-124625648D01*
X100045500Y-124830351D01*
X100077522Y-125032534D01*
X100140781Y-125227223D01*
X100192809Y-125329331D01*
X100233585Y-125409359D01*
X100233715Y-125409613D01*
X100354028Y-125575213D01*
X100498786Y-125719971D01*
X100645060Y-125826243D01*
X100664390Y-125840287D01*
X100776492Y-125897406D01*
X100846776Y-125933218D01*
X100846778Y-125933218D01*
X100846781Y-125933220D01*
X100951137Y-125967127D01*
X101041465Y-125996477D01*
X101114395Y-126008028D01*
X101243648Y-126028500D01*
X101243649Y-126028500D01*
X101448351Y-126028500D01*
X101448352Y-126028500D01*
X101650534Y-125996477D01*
X101845219Y-125933220D01*
X102027610Y-125840287D01*
X102120590Y-125772732D01*
X102193213Y-125719971D01*
X102193215Y-125719968D01*
X102193219Y-125719966D01*
X102337966Y-125575219D01*
X102337968Y-125575215D01*
X102337971Y-125575213D01*
X102404017Y-125484307D01*
X102458287Y-125409610D01*
X102551220Y-125227219D01*
X102614477Y-125032534D01*
X102646500Y-124830352D01*
X102646500Y-124625648D01*
X102629506Y-124518351D01*
X102614477Y-124423465D01*
X102580731Y-124319606D01*
X102551220Y-124228781D01*
X102551218Y-124228778D01*
X102551218Y-124228776D01*
X102486244Y-124101259D01*
X102458287Y-124046390D01*
X102450556Y-124035749D01*
X102337971Y-123880786D01*
X102193213Y-123736028D01*
X102027613Y-123615715D01*
X102027612Y-123615714D01*
X102027610Y-123615713D01*
X101970653Y-123586691D01*
X101845223Y-123522781D01*
X101650534Y-123459522D01*
X101475995Y-123431878D01*
X101448352Y-123427500D01*
X101243648Y-123427500D01*
X101219329Y-123431351D01*
X101041465Y-123459522D01*
X100846776Y-123522781D01*
X100664386Y-123615715D01*
X100498786Y-123736028D01*
X100354028Y-123880786D01*
X100233715Y-124046386D01*
X100140781Y-124228776D01*
X100077522Y-124423465D01*
X100045500Y-124625648D01*
X98042883Y-124625648D01*
X96682590Y-123265355D01*
X96682588Y-123265352D01*
X96563717Y-123146481D01*
X96563716Y-123146480D01*
X96476904Y-123096360D01*
X96476904Y-123096359D01*
X96476900Y-123096358D01*
X96426785Y-123067423D01*
X96274057Y-123026499D01*
X96115943Y-123026499D01*
X96108347Y-123026499D01*
X96108331Y-123026500D01*
X93356620Y-123026500D01*
X93356604Y-123026499D01*
X93349008Y-123026499D01*
X93190893Y-123026499D01*
X93114529Y-123046961D01*
X93038164Y-123067423D01*
X93038159Y-123067426D01*
X92901240Y-123146475D01*
X92901232Y-123146481D01*
X91428181Y-124619533D01*
X91366858Y-124653018D01*
X91297166Y-124648034D01*
X91241233Y-124606162D01*
X91216816Y-124540698D01*
X91216500Y-124531852D01*
X91216500Y-124357648D01*
X91184477Y-124155465D01*
X91127296Y-123979481D01*
X91121220Y-123960781D01*
X91121218Y-123960778D01*
X91121218Y-123960776D01*
X91069865Y-123859992D01*
X91028287Y-123778390D01*
X91012892Y-123757200D01*
X90907971Y-123612786D01*
X90763213Y-123468028D01*
X90597613Y-123347715D01*
X90597612Y-123347714D01*
X90597610Y-123347713D01*
X90537898Y-123317288D01*
X90415223Y-123254781D01*
X90220534Y-123191522D01*
X90045995Y-123163878D01*
X90018352Y-123159500D01*
X89813648Y-123159500D01*
X89789329Y-123163351D01*
X89611465Y-123191522D01*
X89416776Y-123254781D01*
X89234386Y-123347715D01*
X89068786Y-123468028D01*
X88924028Y-123612786D01*
X88803715Y-123778386D01*
X88710781Y-123960776D01*
X88647522Y-124155465D01*
X88630943Y-124260144D01*
X88615500Y-124357648D01*
X88615500Y-124562352D01*
X88617712Y-124576317D01*
X88647522Y-124764534D01*
X88652173Y-124778848D01*
X88652606Y-124794059D01*
X88657924Y-124808315D01*
X88653582Y-124828271D01*
X88654165Y-124848690D01*
X88646076Y-124862775D01*
X88643072Y-124876588D01*
X88621921Y-124904842D01*
X88446286Y-125080478D01*
X88334481Y-125192282D01*
X88334475Y-125192290D01*
X88296532Y-125258011D01*
X88296532Y-125258013D01*
X88255423Y-125329214D01*
X88247255Y-125359699D01*
X88214499Y-125481943D01*
X88214499Y-125481945D01*
X88214499Y-125650046D01*
X88214500Y-125650059D01*
X88214500Y-129418902D01*
X88194815Y-129485941D01*
X88178181Y-129506583D01*
X81992842Y-135691921D01*
X81931519Y-135725406D01*
X81866848Y-135722173D01*
X81852534Y-135717522D01*
X81677995Y-135689878D01*
X81650352Y-135685500D01*
X81445648Y-135685500D01*
X81405108Y-135691921D01*
X81243464Y-135717523D01*
X81243457Y-135717524D01*
X81209817Y-135728455D01*
X81139976Y-135730450D01*
X81080144Y-135694369D01*
X81049316Y-135631668D01*
X81047500Y-135610524D01*
X81047500Y-134229096D01*
X81067185Y-134162057D01*
X81083815Y-134141419D01*
X81851158Y-133374075D01*
X81912479Y-133340592D01*
X81977151Y-133343825D01*
X81991466Y-133348477D01*
X82193648Y-133380500D01*
X82193649Y-133380500D01*
X82398351Y-133380500D01*
X82398352Y-133380500D01*
X82600534Y-133348477D01*
X82795219Y-133285220D01*
X82977610Y-133192287D01*
X83120462Y-133088500D01*
X83143213Y-133071971D01*
X83143215Y-133071968D01*
X83143219Y-133071966D01*
X83287966Y-132927219D01*
X83287968Y-132927215D01*
X83287971Y-132927213D01*
X83340732Y-132854590D01*
X83408287Y-132761610D01*
X83501220Y-132579219D01*
X83564477Y-132384534D01*
X83596500Y-132182352D01*
X83596500Y-131977648D01*
X83583037Y-131892650D01*
X83564477Y-131775465D01*
X83527253Y-131660903D01*
X83501220Y-131580781D01*
X83501218Y-131580778D01*
X83501218Y-131580776D01*
X83457269Y-131494523D01*
X83408287Y-131398390D01*
X83387248Y-131369432D01*
X83287971Y-131232786D01*
X83236416Y-131181231D01*
X83232082Y-131173294D01*
X83224842Y-131167876D01*
X83215599Y-131143108D01*
X83202931Y-131119908D01*
X83203576Y-131110888D01*
X83200414Y-131102415D01*
X83206029Y-131076581D01*
X83207915Y-131050216D01*
X83213726Y-131041171D01*
X83215255Y-131034140D01*
X83236359Y-131005949D01*
X83236402Y-131005883D01*
X83239585Y-131002698D01*
X83242772Y-130999512D01*
X83242775Y-130999510D01*
X83242779Y-130999505D01*
X83755506Y-130486778D01*
X83755511Y-130486774D01*
X83765714Y-130476570D01*
X83765716Y-130476570D01*
X83877520Y-130364766D01*
X83930914Y-130272284D01*
X83956577Y-130227835D01*
X83997501Y-130075107D01*
X83997501Y-129916993D01*
X83997501Y-129909398D01*
X83997500Y-129909380D01*
X83997500Y-128021945D01*
X83997500Y-128021943D01*
X83956577Y-127869215D01*
X83908552Y-127786034D01*
X83877520Y-127732284D01*
X83765716Y-127620480D01*
X83765715Y-127620479D01*
X83761385Y-127616149D01*
X83761374Y-127616139D01*
X83590077Y-127444842D01*
X83556592Y-127383519D01*
X83559828Y-127318841D01*
X83564477Y-127304534D01*
X83596500Y-127102352D01*
X83596500Y-126897648D01*
X83572974Y-126749112D01*
X83564477Y-126695465D01*
X83501218Y-126500776D01*
X83467503Y-126434607D01*
X83408287Y-126318390D01*
X83400556Y-126307749D01*
X83287971Y-126152786D01*
X83143219Y-126008034D01*
X83103536Y-125979203D01*
X83049547Y-125939978D01*
X83006882Y-125884649D01*
X83000903Y-125815036D01*
X83033508Y-125753240D01*
X83083426Y-125721955D01*
X83165334Y-125694814D01*
X83314656Y-125602712D01*
X83438712Y-125478656D01*
X83530814Y-125329334D01*
X83585999Y-125162797D01*
X83596500Y-125060009D01*
X83596499Y-123859992D01*
X83585999Y-123757203D01*
X83530814Y-123590666D01*
X83438712Y-123441344D01*
X83314656Y-123317288D01*
X83165334Y-123225186D01*
X82998797Y-123170001D01*
X82998795Y-123170000D01*
X82896010Y-123159500D01*
X81695998Y-123159500D01*
X81695981Y-123159501D01*
X81593203Y-123170000D01*
X81593200Y-123170001D01*
X81426668Y-123225185D01*
X81426663Y-123225187D01*
X81277342Y-123317289D01*
X81153289Y-123441342D01*
X81061187Y-123590663D01*
X81061185Y-123590668D01*
X81006000Y-123757204D01*
X81005088Y-123761467D01*
X80990376Y-123788617D01*
X80977550Y-123816703D01*
X80973879Y-123819061D01*
X80971801Y-123822898D01*
X80944744Y-123837785D01*
X80918772Y-123854477D01*
X80912866Y-123855326D01*
X80910586Y-123856581D01*
X80883837Y-123859500D01*
X80825619Y-123859500D01*
X80825603Y-123859499D01*
X80818007Y-123859499D01*
X80659893Y-123859499D01*
X80552537Y-123888265D01*
X80507160Y-123900424D01*
X80507159Y-123900425D01*
X80457046Y-123929359D01*
X80457045Y-123929360D01*
X80413639Y-123954420D01*
X80370235Y-123979479D01*
X80370232Y-123979481D01*
X80258428Y-124091286D01*
X79743681Y-124606032D01*
X79682358Y-124639517D01*
X79612666Y-124634533D01*
X79556733Y-124592661D01*
X79532316Y-124527197D01*
X79532000Y-124518351D01*
X79532000Y-124371682D01*
X79499990Y-124169582D01*
X79436755Y-123974968D01*
X79343859Y-123792650D01*
X79311474Y-123748077D01*
X79311474Y-123748076D01*
X78632000Y-124427553D01*
X78632000Y-124421339D01*
X78604741Y-124319606D01*
X78552080Y-124228394D01*
X78477606Y-124153920D01*
X78386394Y-124101259D01*
X78284661Y-124074000D01*
X78278446Y-124074000D01*
X78957922Y-123394524D01*
X78957921Y-123394523D01*
X78913359Y-123362147D01*
X78913350Y-123362141D01*
X78731031Y-123269244D01*
X78536417Y-123206009D01*
X78334317Y-123174000D01*
X78129683Y-123174000D01*
X77927582Y-123206009D01*
X77732968Y-123269244D01*
X77550644Y-123362143D01*
X77506077Y-123394523D01*
X77506077Y-123394524D01*
X78185554Y-124074000D01*
X78179339Y-124074000D01*
X78077606Y-124101259D01*
X77986394Y-124153920D01*
X77911920Y-124228394D01*
X77859259Y-124319606D01*
X77832000Y-124421339D01*
X77832000Y-124427553D01*
X77152524Y-123748077D01*
X77152523Y-123748077D01*
X77120143Y-123792644D01*
X77027244Y-123974968D01*
X76964009Y-124169582D01*
X76932000Y-124371682D01*
X76932000Y-124576317D01*
X76964009Y-124778417D01*
X77027244Y-124973031D01*
X77120141Y-125155350D01*
X77120147Y-125155359D01*
X77152523Y-125199921D01*
X77152524Y-125199922D01*
X77832000Y-124520446D01*
X77832000Y-124526661D01*
X77859259Y-124628394D01*
X77911920Y-124719606D01*
X77986394Y-124794080D01*
X78077606Y-124846741D01*
X78179339Y-124874000D01*
X78185553Y-124874000D01*
X77506076Y-125553474D01*
X77550650Y-125585859D01*
X77732968Y-125678755D01*
X77927582Y-125741990D01*
X78129683Y-125774000D01*
X78276351Y-125774000D01*
X78343390Y-125793685D01*
X78389145Y-125846489D01*
X78399089Y-125915647D01*
X78370064Y-125979203D01*
X78364032Y-125985681D01*
X76765015Y-127584698D01*
X76765007Y-127584706D01*
X76762286Y-127587428D01*
X76762284Y-127587430D01*
X76650480Y-127699234D01*
X76631399Y-127732284D01*
X76571423Y-127836165D01*
X76530499Y-127988893D01*
X76530499Y-128147007D01*
X76530499Y-128147009D01*
X76530500Y-128157003D01*
X76530500Y-135972330D01*
X76530499Y-135972348D01*
X76530499Y-136138054D01*
X76530498Y-136138054D01*
X71407561Y-136138054D01*
X71349971Y-136058786D01*
X71205213Y-135914028D01*
X71039613Y-135793715D01*
X71039612Y-135793714D01*
X71039610Y-135793713D01*
X70982653Y-135764691D01*
X70857223Y-135700781D01*
X70662534Y-135637522D01*
X70485745Y-135609522D01*
X70460352Y-135605500D01*
X70255648Y-135605500D01*
X70231329Y-135609351D01*
X70053465Y-135637522D01*
X69858776Y-135700781D01*
X69676386Y-135793715D01*
X69510786Y-135914028D01*
X69366028Y-136058786D01*
X69245715Y-136224386D01*
X69152781Y-136406776D01*
X69089522Y-136601465D01*
X69057500Y-136803648D01*
X67453537Y-136803648D01*
X67519966Y-136737219D01*
X67519970Y-136737213D01*
X67528196Y-136725892D01*
X67528196Y-136725891D01*
X67640287Y-136571610D01*
X67733220Y-136389219D01*
X67796477Y-136194534D01*
X67828500Y-135992352D01*
X67828500Y-135787648D01*
X67803795Y-135631668D01*
X67796477Y-135585465D01*
X67746686Y-135432225D01*
X67733220Y-135390781D01*
X67733218Y-135390778D01*
X67733218Y-135390776D01*
X67664576Y-135256060D01*
X67640287Y-135208390D01*
X67632556Y-135197749D01*
X67519971Y-135042786D01*
X67375213Y-134898028D01*
X67209613Y-134777715D01*
X67209612Y-134777714D01*
X67209610Y-134777713D01*
X67152653Y-134748691D01*
X67027223Y-134684781D01*
X66832534Y-134621522D01*
X66657995Y-134593878D01*
X66630352Y-134589500D01*
X66425648Y-134589500D01*
X66401329Y-134593351D01*
X66223465Y-134621522D01*
X66028776Y-134684781D01*
X65846386Y-134777715D01*
X65680786Y-134898028D01*
X65536028Y-135042786D01*
X65415713Y-135208388D01*
X65388484Y-135261828D01*
X65340510Y-135312623D01*
X65272688Y-135329418D01*
X65206554Y-135306880D01*
X65167516Y-135261828D01*
X65140286Y-135208388D01*
X65019971Y-135042786D01*
X64875213Y-134898028D01*
X64709613Y-134777715D01*
X64709612Y-134777714D01*
X64709610Y-134777713D01*
X64652653Y-134748691D01*
X64527223Y-134684781D01*
X64332534Y-134621522D01*
X64157995Y-134593878D01*
X64130352Y-134589500D01*
X63925648Y-134589500D01*
X63901329Y-134593351D01*
X63723465Y-134621522D01*
X63528776Y-134684781D01*
X63346386Y-134777715D01*
X63180786Y-134898028D01*
X63036028Y-135042786D01*
X62915715Y-135208386D01*
X62822781Y-135390776D01*
X62759522Y-135585465D01*
X62727500Y-135787648D01*
X56888500Y-135787648D01*
X56888500Y-132471682D01*
X69312000Y-132471682D01*
X69312000Y-132676317D01*
X69344009Y-132878417D01*
X69407244Y-133073031D01*
X69500141Y-133255350D01*
X69500147Y-133255359D01*
X69532523Y-133299921D01*
X69532524Y-133299922D01*
X70212000Y-132620446D01*
X70212000Y-132626661D01*
X70239259Y-132728394D01*
X70291920Y-132819606D01*
X70366394Y-132894080D01*
X70457606Y-132946741D01*
X70559339Y-132974000D01*
X70565553Y-132974000D01*
X69886076Y-133653474D01*
X69930650Y-133685859D01*
X70112968Y-133778755D01*
X70307582Y-133841990D01*
X70509683Y-133874000D01*
X70714317Y-133874000D01*
X70916417Y-133841990D01*
X71111031Y-133778755D01*
X71293349Y-133685859D01*
X71337921Y-133653474D01*
X70658447Y-132974000D01*
X70664661Y-132974000D01*
X70766394Y-132946741D01*
X70857606Y-132894080D01*
X70932080Y-132819606D01*
X70984741Y-132728394D01*
X71012000Y-132626661D01*
X71012000Y-132620447D01*
X71691474Y-133299921D01*
X71723859Y-133255349D01*
X71816755Y-133073031D01*
X71879990Y-132878417D01*
X71912000Y-132676317D01*
X71912000Y-132471682D01*
X71879990Y-132269582D01*
X71816755Y-132074968D01*
X71723859Y-131892650D01*
X71691474Y-131848077D01*
X71691474Y-131848076D01*
X71012000Y-132527551D01*
X71012000Y-132521339D01*
X70984741Y-132419606D01*
X70932080Y-132328394D01*
X70857606Y-132253920D01*
X70766394Y-132201259D01*
X70664661Y-132174000D01*
X70658446Y-132174000D01*
X71337922Y-131494524D01*
X71337921Y-131494523D01*
X71293359Y-131462147D01*
X71293350Y-131462141D01*
X71111031Y-131369244D01*
X70916417Y-131306009D01*
X70714317Y-131274000D01*
X70509683Y-131274000D01*
X70307582Y-131306009D01*
X70112968Y-131369244D01*
X69930644Y-131462143D01*
X69886077Y-131494523D01*
X69886077Y-131494524D01*
X70565554Y-132174000D01*
X70559339Y-132174000D01*
X70457606Y-132201259D01*
X70366394Y-132253920D01*
X70291920Y-132328394D01*
X70239259Y-132419606D01*
X70212000Y-132521339D01*
X70212000Y-132527553D01*
X69532524Y-131848077D01*
X69532523Y-131848077D01*
X69500143Y-131892644D01*
X69407244Y-132074968D01*
X69344009Y-132269582D01*
X69312000Y-132471682D01*
X56888500Y-132471682D01*
X56888500Y-126154013D01*
X58652000Y-126154013D01*
X58652000Y-127004000D01*
X59851999Y-127004000D01*
X59826979Y-127064402D01*
X59802000Y-127189981D01*
X59802000Y-127318019D01*
X59826979Y-127443598D01*
X59851999Y-127504000D01*
X58652001Y-127504000D01*
X58652001Y-128353986D01*
X58662494Y-128456697D01*
X58717641Y-128623119D01*
X58717643Y-128623124D01*
X58809684Y-128772345D01*
X58933654Y-128896315D01*
X59082875Y-128988356D01*
X59082880Y-128988358D01*
X59249302Y-129043505D01*
X59249309Y-129043506D01*
X59352019Y-129053999D01*
X60201999Y-129053999D01*
X60202000Y-129053998D01*
X60202000Y-127854001D01*
X60262402Y-127879021D01*
X60387981Y-127904000D01*
X60516019Y-127904000D01*
X60641598Y-127879021D01*
X60702000Y-127854001D01*
X60702000Y-129053999D01*
X61551972Y-129053999D01*
X61551986Y-129053998D01*
X61654697Y-129043505D01*
X61821119Y-128988358D01*
X61821124Y-128988356D01*
X61970345Y-128896315D01*
X62094315Y-128772345D01*
X62186356Y-128623124D01*
X62186358Y-128623119D01*
X62241505Y-128456697D01*
X62241506Y-128456690D01*
X62251999Y-128353986D01*
X62252000Y-128353973D01*
X62252000Y-127504000D01*
X61052001Y-127504000D01*
X61077021Y-127443598D01*
X61102000Y-127318019D01*
X61102000Y-127189981D01*
X61091262Y-127135995D01*
X63731500Y-127135995D01*
X63731500Y-127372004D01*
X63731501Y-127372020D01*
X63762306Y-127606010D01*
X63823394Y-127833993D01*
X63913714Y-128052045D01*
X63913719Y-128052056D01*
X63984677Y-128174957D01*
X64031727Y-128256450D01*
X64031729Y-128256453D01*
X64031730Y-128256454D01*
X64175406Y-128443697D01*
X64175412Y-128443704D01*
X64342295Y-128610587D01*
X64342302Y-128610593D01*
X64362840Y-128626352D01*
X64529550Y-128754273D01*
X64658174Y-128828534D01*
X64733943Y-128872280D01*
X64733948Y-128872282D01*
X64733951Y-128872284D01*
X64952007Y-128962606D01*
X65179986Y-129023693D01*
X65413989Y-129054500D01*
X65413996Y-129054500D01*
X65650004Y-129054500D01*
X65650011Y-129054500D01*
X65884014Y-129023693D01*
X66111993Y-128962606D01*
X66330049Y-128872284D01*
X66534450Y-128754273D01*
X66721699Y-128610592D01*
X66888592Y-128443699D01*
X66905512Y-128421648D01*
X69311500Y-128421648D01*
X69311500Y-128626351D01*
X69343522Y-128828534D01*
X69406781Y-129023223D01*
X69458385Y-129124500D01*
X69495320Y-129196989D01*
X69499715Y-129205613D01*
X69620028Y-129371213D01*
X69764786Y-129515971D01*
X69886501Y-129604400D01*
X69930390Y-129636287D01*
X70004777Y-129674189D01*
X70112776Y-129729218D01*
X70112778Y-129729218D01*
X70112781Y-129729220D01*
X70217137Y-129763127D01*
X70307465Y-129792477D01*
X70408557Y-129808488D01*
X70509648Y-129824500D01*
X70509649Y-129824500D01*
X70714351Y-129824500D01*
X70714352Y-129824500D01*
X70916534Y-129792477D01*
X71111219Y-129729220D01*
X71293610Y-129636287D01*
X71392072Y-129564751D01*
X71459213Y-129515971D01*
X71459215Y-129515968D01*
X71459219Y-129515966D01*
X71603966Y-129371219D01*
X71603968Y-129371215D01*
X71603971Y-129371213D01*
X71664791Y-129287500D01*
X71724287Y-129205610D01*
X71814872Y-129027827D01*
X71817218Y-129023223D01*
X71817218Y-129023222D01*
X71817220Y-129023219D01*
X71880477Y-128828534D01*
X71912500Y-128626352D01*
X71912500Y-128421648D01*
X71887640Y-128264690D01*
X71880477Y-128219465D01*
X71826080Y-128052049D01*
X71817220Y-128024781D01*
X71817218Y-128024778D01*
X71817218Y-128024776D01*
X71769327Y-127930786D01*
X71724287Y-127842390D01*
X71712691Y-127826429D01*
X71603971Y-127676786D01*
X71459213Y-127532028D01*
X71293613Y-127411715D01*
X71293612Y-127411714D01*
X71293610Y-127411713D01*
X71236653Y-127382691D01*
X71111223Y-127318781D01*
X70916534Y-127255522D01*
X70741995Y-127227878D01*
X70714352Y-127223500D01*
X70509648Y-127223500D01*
X70485329Y-127227351D01*
X70307465Y-127255522D01*
X70112776Y-127318781D01*
X69930386Y-127411715D01*
X69764786Y-127532028D01*
X69620028Y-127676786D01*
X69499715Y-127842386D01*
X69406781Y-128024776D01*
X69343522Y-128219465D01*
X69311500Y-128421648D01*
X66905512Y-128421648D01*
X67032273Y-128256450D01*
X67150284Y-128052049D01*
X67240606Y-127833993D01*
X67301693Y-127606014D01*
X67332500Y-127372011D01*
X67332500Y-127135989D01*
X67301693Y-126901986D01*
X67240606Y-126674007D01*
X67150284Y-126455951D01*
X67150282Y-126455948D01*
X67150280Y-126455943D01*
X67070863Y-126318390D01*
X67032273Y-126251550D01*
X66888592Y-126064301D01*
X66888587Y-126064295D01*
X66721704Y-125897412D01*
X66721697Y-125897406D01*
X66534454Y-125753730D01*
X66534453Y-125753729D01*
X66534450Y-125753727D01*
X66452957Y-125706677D01*
X66330056Y-125635719D01*
X66330045Y-125635714D01*
X66111993Y-125545394D01*
X65884010Y-125484306D01*
X65650020Y-125453501D01*
X65650017Y-125453500D01*
X65650011Y-125453500D01*
X65413989Y-125453500D01*
X65413983Y-125453500D01*
X65413979Y-125453501D01*
X65179989Y-125484306D01*
X64952006Y-125545394D01*
X64733954Y-125635714D01*
X64733943Y-125635719D01*
X64529545Y-125753730D01*
X64342302Y-125897406D01*
X64342295Y-125897412D01*
X64175412Y-126064295D01*
X64175406Y-126064302D01*
X64031730Y-126251545D01*
X63913719Y-126455943D01*
X63913714Y-126455954D01*
X63823394Y-126674006D01*
X63762306Y-126901989D01*
X63731501Y-127135979D01*
X63731500Y-127135995D01*
X61091262Y-127135995D01*
X61077021Y-127064402D01*
X61052001Y-127004000D01*
X62251999Y-127004000D01*
X62251999Y-126154028D01*
X62251998Y-126154013D01*
X62241505Y-126051302D01*
X62186358Y-125884880D01*
X62186356Y-125884875D01*
X62094315Y-125735654D01*
X61970345Y-125611684D01*
X61821124Y-125519643D01*
X61821119Y-125519641D01*
X61654697Y-125464494D01*
X61654690Y-125464493D01*
X61551986Y-125454000D01*
X60702000Y-125454000D01*
X60702000Y-126653998D01*
X60641598Y-126628979D01*
X60516019Y-126604000D01*
X60387981Y-126604000D01*
X60262402Y-126628979D01*
X60202000Y-126653998D01*
X60202000Y-125454000D01*
X59352028Y-125454000D01*
X59352012Y-125454001D01*
X59249302Y-125464494D01*
X59082880Y-125519641D01*
X59082875Y-125519643D01*
X58933654Y-125611684D01*
X58809684Y-125735654D01*
X58717643Y-125884875D01*
X58717641Y-125884880D01*
X58662494Y-126051302D01*
X58662493Y-126051309D01*
X58652000Y-126154013D01*
X56888500Y-126154013D01*
X56888500Y-124371648D01*
X69311500Y-124371648D01*
X69311500Y-124576351D01*
X69343522Y-124778534D01*
X69406781Y-124973223D01*
X69451005Y-125060016D01*
X69499585Y-125155359D01*
X69499715Y-125155613D01*
X69620028Y-125321213D01*
X69764786Y-125465971D01*
X69874105Y-125545394D01*
X69930390Y-125586287D01*
X70035925Y-125640060D01*
X70112776Y-125679218D01*
X70112778Y-125679218D01*
X70112781Y-125679220D01*
X70217137Y-125713127D01*
X70307465Y-125742477D01*
X70378513Y-125753730D01*
X70509648Y-125774500D01*
X70509649Y-125774500D01*
X70714351Y-125774500D01*
X70714352Y-125774500D01*
X70916534Y-125742477D01*
X71111219Y-125679220D01*
X71293610Y-125586287D01*
X71433975Y-125484307D01*
X71459213Y-125465971D01*
X71459215Y-125465968D01*
X71459219Y-125465966D01*
X71603966Y-125321219D01*
X71603968Y-125321215D01*
X71603971Y-125321213D01*
X71669186Y-125231450D01*
X71724287Y-125155610D01*
X71817220Y-124973219D01*
X71880477Y-124778534D01*
X71912500Y-124576352D01*
X71912500Y-124371648D01*
X71892787Y-124247185D01*
X71880477Y-124169465D01*
X71818747Y-123979481D01*
X71817220Y-123974781D01*
X71817218Y-123974778D01*
X71817218Y-123974776D01*
X71769327Y-123880786D01*
X71724287Y-123792390D01*
X71716556Y-123781749D01*
X71603971Y-123626786D01*
X71459213Y-123482028D01*
X71293613Y-123361715D01*
X71293612Y-123361714D01*
X71293610Y-123361713D01*
X71236653Y-123332691D01*
X71111223Y-123268781D01*
X70916534Y-123205522D01*
X70741995Y-123177878D01*
X70714352Y-123173500D01*
X70509648Y-123173500D01*
X70485329Y-123177351D01*
X70307465Y-123205522D01*
X70112776Y-123268781D01*
X69930386Y-123361715D01*
X69764786Y-123482028D01*
X69620028Y-123626786D01*
X69499715Y-123792386D01*
X69406781Y-123974776D01*
X69343522Y-124169465D01*
X69311500Y-124371648D01*
X56888500Y-124371648D01*
X56888500Y-121020500D01*
X56908185Y-120953461D01*
X56960989Y-120907706D01*
X57012500Y-120896500D01*
X112659500Y-120896500D01*
X112726539Y-120916185D01*
G37*
%TD.AperFunction*%
%TD*%
M02*
