%TF.GenerationSoftware,KiCad,Pcbnew,9.0.6*%
%TF.CreationDate,2025-12-19T13:32:14+05:30*%
%TF.ProjectId,Headphone Amplifier,48656164-7068-46f6-9e65-20416d706c69,rev?*%
%TF.SameCoordinates,Original*%
%TF.FileFunction,Legend,Top*%
%TF.FilePolarity,Positive*%
%FSLAX46Y46*%
G04 Gerber Fmt 4.6, Leading zero omitted, Abs format (unit mm)*
G04 Created by KiCad (PCBNEW 9.0.6) date 2025-12-19 13:32:14*
%MOMM*%
%LPD*%
G01*
G04 APERTURE LIST*
%ADD10C,0.150000*%
%ADD11C,0.120000*%
G04 APERTURE END LIST*
D10*
X78319333Y-131264819D02*
X77986000Y-130788628D01*
X77747905Y-131264819D02*
X77747905Y-130264819D01*
X77747905Y-130264819D02*
X78128857Y-130264819D01*
X78128857Y-130264819D02*
X78224095Y-130312438D01*
X78224095Y-130312438D02*
X78271714Y-130360057D01*
X78271714Y-130360057D02*
X78319333Y-130455295D01*
X78319333Y-130455295D02*
X78319333Y-130598152D01*
X78319333Y-130598152D02*
X78271714Y-130693390D01*
X78271714Y-130693390D02*
X78224095Y-130741009D01*
X78224095Y-130741009D02*
X78128857Y-130788628D01*
X78128857Y-130788628D02*
X77747905Y-130788628D01*
X78652667Y-130264819D02*
X79271714Y-130264819D01*
X79271714Y-130264819D02*
X78938381Y-130645771D01*
X78938381Y-130645771D02*
X79081238Y-130645771D01*
X79081238Y-130645771D02*
X79176476Y-130693390D01*
X79176476Y-130693390D02*
X79224095Y-130741009D01*
X79224095Y-130741009D02*
X79271714Y-130836247D01*
X79271714Y-130836247D02*
X79271714Y-131074342D01*
X79271714Y-131074342D02*
X79224095Y-131169580D01*
X79224095Y-131169580D02*
X79176476Y-131217200D01*
X79176476Y-131217200D02*
X79081238Y-131264819D01*
X79081238Y-131264819D02*
X78795524Y-131264819D01*
X78795524Y-131264819D02*
X78700286Y-131217200D01*
X78700286Y-131217200D02*
X78652667Y-131169580D01*
X78573333Y-127200819D02*
X78240000Y-126724628D01*
X78001905Y-127200819D02*
X78001905Y-126200819D01*
X78001905Y-126200819D02*
X78382857Y-126200819D01*
X78382857Y-126200819D02*
X78478095Y-126248438D01*
X78478095Y-126248438D02*
X78525714Y-126296057D01*
X78525714Y-126296057D02*
X78573333Y-126391295D01*
X78573333Y-126391295D02*
X78573333Y-126534152D01*
X78573333Y-126534152D02*
X78525714Y-126629390D01*
X78525714Y-126629390D02*
X78478095Y-126677009D01*
X78478095Y-126677009D02*
X78382857Y-126724628D01*
X78382857Y-126724628D02*
X78001905Y-126724628D01*
X78954286Y-126296057D02*
X79001905Y-126248438D01*
X79001905Y-126248438D02*
X79097143Y-126200819D01*
X79097143Y-126200819D02*
X79335238Y-126200819D01*
X79335238Y-126200819D02*
X79430476Y-126248438D01*
X79430476Y-126248438D02*
X79478095Y-126296057D01*
X79478095Y-126296057D02*
X79525714Y-126391295D01*
X79525714Y-126391295D02*
X79525714Y-126486533D01*
X79525714Y-126486533D02*
X79478095Y-126629390D01*
X79478095Y-126629390D02*
X78906667Y-127200819D01*
X78906667Y-127200819D02*
X79525714Y-127200819D01*
X60539333Y-136503580D02*
X60491714Y-136551200D01*
X60491714Y-136551200D02*
X60348857Y-136598819D01*
X60348857Y-136598819D02*
X60253619Y-136598819D01*
X60253619Y-136598819D02*
X60110762Y-136551200D01*
X60110762Y-136551200D02*
X60015524Y-136455961D01*
X60015524Y-136455961D02*
X59967905Y-136360723D01*
X59967905Y-136360723D02*
X59920286Y-136170247D01*
X59920286Y-136170247D02*
X59920286Y-136027390D01*
X59920286Y-136027390D02*
X59967905Y-135836914D01*
X59967905Y-135836914D02*
X60015524Y-135741676D01*
X60015524Y-135741676D02*
X60110762Y-135646438D01*
X60110762Y-135646438D02*
X60253619Y-135598819D01*
X60253619Y-135598819D02*
X60348857Y-135598819D01*
X60348857Y-135598819D02*
X60491714Y-135646438D01*
X60491714Y-135646438D02*
X60539333Y-135694057D01*
X61491714Y-136598819D02*
X60920286Y-136598819D01*
X61206000Y-136598819D02*
X61206000Y-135598819D01*
X61206000Y-135598819D02*
X61110762Y-135741676D01*
X61110762Y-135741676D02*
X61015524Y-135836914D01*
X61015524Y-135836914D02*
X60920286Y-135884533D01*
X100417333Y-122882819D02*
X100084000Y-122406628D01*
X99845905Y-122882819D02*
X99845905Y-121882819D01*
X99845905Y-121882819D02*
X100226857Y-121882819D01*
X100226857Y-121882819D02*
X100322095Y-121930438D01*
X100322095Y-121930438D02*
X100369714Y-121978057D01*
X100369714Y-121978057D02*
X100417333Y-122073295D01*
X100417333Y-122073295D02*
X100417333Y-122216152D01*
X100417333Y-122216152D02*
X100369714Y-122311390D01*
X100369714Y-122311390D02*
X100322095Y-122359009D01*
X100322095Y-122359009D02*
X100226857Y-122406628D01*
X100226857Y-122406628D02*
X99845905Y-122406628D01*
X101322095Y-121882819D02*
X100845905Y-121882819D01*
X100845905Y-121882819D02*
X100798286Y-122359009D01*
X100798286Y-122359009D02*
X100845905Y-122311390D01*
X100845905Y-122311390D02*
X100941143Y-122263771D01*
X100941143Y-122263771D02*
X101179238Y-122263771D01*
X101179238Y-122263771D02*
X101274476Y-122311390D01*
X101274476Y-122311390D02*
X101322095Y-122359009D01*
X101322095Y-122359009D02*
X101369714Y-122454247D01*
X101369714Y-122454247D02*
X101369714Y-122692342D01*
X101369714Y-122692342D02*
X101322095Y-122787580D01*
X101322095Y-122787580D02*
X101274476Y-122835200D01*
X101274476Y-122835200D02*
X101179238Y-122882819D01*
X101179238Y-122882819D02*
X100941143Y-122882819D01*
X100941143Y-122882819D02*
X100845905Y-122835200D01*
X100845905Y-122835200D02*
X100798286Y-122787580D01*
X78573333Y-135328819D02*
X78240000Y-134852628D01*
X78001905Y-135328819D02*
X78001905Y-134328819D01*
X78001905Y-134328819D02*
X78382857Y-134328819D01*
X78382857Y-134328819D02*
X78478095Y-134376438D01*
X78478095Y-134376438D02*
X78525714Y-134424057D01*
X78525714Y-134424057D02*
X78573333Y-134519295D01*
X78573333Y-134519295D02*
X78573333Y-134662152D01*
X78573333Y-134662152D02*
X78525714Y-134757390D01*
X78525714Y-134757390D02*
X78478095Y-134805009D01*
X78478095Y-134805009D02*
X78382857Y-134852628D01*
X78382857Y-134852628D02*
X78001905Y-134852628D01*
X79430476Y-134662152D02*
X79430476Y-135328819D01*
X79192381Y-134281200D02*
X78954286Y-134995485D01*
X78954286Y-134995485D02*
X79573333Y-134995485D01*
X81621333Y-135741580D02*
X81573714Y-135789200D01*
X81573714Y-135789200D02*
X81430857Y-135836819D01*
X81430857Y-135836819D02*
X81335619Y-135836819D01*
X81335619Y-135836819D02*
X81192762Y-135789200D01*
X81192762Y-135789200D02*
X81097524Y-135693961D01*
X81097524Y-135693961D02*
X81049905Y-135598723D01*
X81049905Y-135598723D02*
X81002286Y-135408247D01*
X81002286Y-135408247D02*
X81002286Y-135265390D01*
X81002286Y-135265390D02*
X81049905Y-135074914D01*
X81049905Y-135074914D02*
X81097524Y-134979676D01*
X81097524Y-134979676D02*
X81192762Y-134884438D01*
X81192762Y-134884438D02*
X81335619Y-134836819D01*
X81335619Y-134836819D02*
X81430857Y-134836819D01*
X81430857Y-134836819D02*
X81573714Y-134884438D01*
X81573714Y-134884438D02*
X81621333Y-134932057D01*
X82002286Y-134932057D02*
X82049905Y-134884438D01*
X82049905Y-134884438D02*
X82145143Y-134836819D01*
X82145143Y-134836819D02*
X82383238Y-134836819D01*
X82383238Y-134836819D02*
X82478476Y-134884438D01*
X82478476Y-134884438D02*
X82526095Y-134932057D01*
X82526095Y-134932057D02*
X82573714Y-135027295D01*
X82573714Y-135027295D02*
X82573714Y-135122533D01*
X82573714Y-135122533D02*
X82526095Y-135265390D01*
X82526095Y-135265390D02*
X81954667Y-135836819D01*
X81954667Y-135836819D02*
X82573714Y-135836819D01*
X89241333Y-135487580D02*
X89193714Y-135535200D01*
X89193714Y-135535200D02*
X89050857Y-135582819D01*
X89050857Y-135582819D02*
X88955619Y-135582819D01*
X88955619Y-135582819D02*
X88812762Y-135535200D01*
X88812762Y-135535200D02*
X88717524Y-135439961D01*
X88717524Y-135439961D02*
X88669905Y-135344723D01*
X88669905Y-135344723D02*
X88622286Y-135154247D01*
X88622286Y-135154247D02*
X88622286Y-135011390D01*
X88622286Y-135011390D02*
X88669905Y-134820914D01*
X88669905Y-134820914D02*
X88717524Y-134725676D01*
X88717524Y-134725676D02*
X88812762Y-134630438D01*
X88812762Y-134630438D02*
X88955619Y-134582819D01*
X88955619Y-134582819D02*
X89050857Y-134582819D01*
X89050857Y-134582819D02*
X89193714Y-134630438D01*
X89193714Y-134630438D02*
X89241333Y-134678057D01*
X90098476Y-134916152D02*
X90098476Y-135582819D01*
X89860381Y-134535200D02*
X89622286Y-135249485D01*
X89622286Y-135249485D02*
X90241333Y-135249485D01*
X101687333Y-131264819D02*
X101354000Y-130788628D01*
X101115905Y-131264819D02*
X101115905Y-130264819D01*
X101115905Y-130264819D02*
X101496857Y-130264819D01*
X101496857Y-130264819D02*
X101592095Y-130312438D01*
X101592095Y-130312438D02*
X101639714Y-130360057D01*
X101639714Y-130360057D02*
X101687333Y-130455295D01*
X101687333Y-130455295D02*
X101687333Y-130598152D01*
X101687333Y-130598152D02*
X101639714Y-130693390D01*
X101639714Y-130693390D02*
X101592095Y-130741009D01*
X101592095Y-130741009D02*
X101496857Y-130788628D01*
X101496857Y-130788628D02*
X101115905Y-130788628D01*
X102020667Y-130264819D02*
X102687333Y-130264819D01*
X102687333Y-130264819D02*
X102258762Y-131264819D01*
X101687333Y-127200819D02*
X101354000Y-126724628D01*
X101115905Y-127200819D02*
X101115905Y-126200819D01*
X101115905Y-126200819D02*
X101496857Y-126200819D01*
X101496857Y-126200819D02*
X101592095Y-126248438D01*
X101592095Y-126248438D02*
X101639714Y-126296057D01*
X101639714Y-126296057D02*
X101687333Y-126391295D01*
X101687333Y-126391295D02*
X101687333Y-126534152D01*
X101687333Y-126534152D02*
X101639714Y-126629390D01*
X101639714Y-126629390D02*
X101592095Y-126677009D01*
X101592095Y-126677009D02*
X101496857Y-126724628D01*
X101496857Y-126724628D02*
X101115905Y-126724628D01*
X102544476Y-126200819D02*
X102354000Y-126200819D01*
X102354000Y-126200819D02*
X102258762Y-126248438D01*
X102258762Y-126248438D02*
X102211143Y-126296057D01*
X102211143Y-126296057D02*
X102115905Y-126438914D01*
X102115905Y-126438914D02*
X102068286Y-126629390D01*
X102068286Y-126629390D02*
X102068286Y-127010342D01*
X102068286Y-127010342D02*
X102115905Y-127105580D01*
X102115905Y-127105580D02*
X102163524Y-127153200D01*
X102163524Y-127153200D02*
X102258762Y-127200819D01*
X102258762Y-127200819D02*
X102449238Y-127200819D01*
X102449238Y-127200819D02*
X102544476Y-127153200D01*
X102544476Y-127153200D02*
X102592095Y-127105580D01*
X102592095Y-127105580D02*
X102639714Y-127010342D01*
X102639714Y-127010342D02*
X102639714Y-126772247D01*
X102639714Y-126772247D02*
X102592095Y-126677009D01*
X102592095Y-126677009D02*
X102544476Y-126629390D01*
X102544476Y-126629390D02*
X102449238Y-126581771D01*
X102449238Y-126581771D02*
X102258762Y-126581771D01*
X102258762Y-126581771D02*
X102163524Y-126629390D01*
X102163524Y-126629390D02*
X102115905Y-126677009D01*
X102115905Y-126677009D02*
X102068286Y-126772247D01*
X77049333Y-122882819D02*
X76716000Y-122406628D01*
X76477905Y-122882819D02*
X76477905Y-121882819D01*
X76477905Y-121882819D02*
X76858857Y-121882819D01*
X76858857Y-121882819D02*
X76954095Y-121930438D01*
X76954095Y-121930438D02*
X77001714Y-121978057D01*
X77001714Y-121978057D02*
X77049333Y-122073295D01*
X77049333Y-122073295D02*
X77049333Y-122216152D01*
X77049333Y-122216152D02*
X77001714Y-122311390D01*
X77001714Y-122311390D02*
X76954095Y-122359009D01*
X76954095Y-122359009D02*
X76858857Y-122406628D01*
X76858857Y-122406628D02*
X76477905Y-122406628D01*
X78001714Y-122882819D02*
X77430286Y-122882819D01*
X77716000Y-122882819D02*
X77716000Y-121882819D01*
X77716000Y-121882819D02*
X77620762Y-122025676D01*
X77620762Y-122025676D02*
X77525524Y-122120914D01*
X77525524Y-122120914D02*
X77430286Y-122168533D01*
X68780819Y-142835238D02*
X68304628Y-143168571D01*
X68780819Y-143406666D02*
X67780819Y-143406666D01*
X67780819Y-143406666D02*
X67780819Y-143025714D01*
X67780819Y-143025714D02*
X67828438Y-142930476D01*
X67828438Y-142930476D02*
X67876057Y-142882857D01*
X67876057Y-142882857D02*
X67971295Y-142835238D01*
X67971295Y-142835238D02*
X68114152Y-142835238D01*
X68114152Y-142835238D02*
X68209390Y-142882857D01*
X68209390Y-142882857D02*
X68257009Y-142930476D01*
X68257009Y-142930476D02*
X68304628Y-143025714D01*
X68304628Y-143025714D02*
X68304628Y-143406666D01*
X67780819Y-142549523D02*
X68780819Y-142216190D01*
X68780819Y-142216190D02*
X67780819Y-141882857D01*
X68780819Y-141025714D02*
X68780819Y-141597142D01*
X68780819Y-141311428D02*
X67780819Y-141311428D01*
X67780819Y-141311428D02*
X67923676Y-141406666D01*
X67923676Y-141406666D02*
X68018914Y-141501904D01*
X68018914Y-141501904D02*
X68066533Y-141597142D01*
X62658666Y-120388819D02*
X62658666Y-121103104D01*
X62658666Y-121103104D02*
X62611047Y-121245961D01*
X62611047Y-121245961D02*
X62515809Y-121341200D01*
X62515809Y-121341200D02*
X62372952Y-121388819D01*
X62372952Y-121388819D02*
X62277714Y-121388819D01*
X63658666Y-121388819D02*
X63087238Y-121388819D01*
X63372952Y-121388819D02*
X63372952Y-120388819D01*
X63372952Y-120388819D02*
X63277714Y-120531676D01*
X63277714Y-120531676D02*
X63182476Y-120626914D01*
X63182476Y-120626914D02*
X63087238Y-120674533D01*
X85685333Y-135741580D02*
X85637714Y-135789200D01*
X85637714Y-135789200D02*
X85494857Y-135836819D01*
X85494857Y-135836819D02*
X85399619Y-135836819D01*
X85399619Y-135836819D02*
X85256762Y-135789200D01*
X85256762Y-135789200D02*
X85161524Y-135693961D01*
X85161524Y-135693961D02*
X85113905Y-135598723D01*
X85113905Y-135598723D02*
X85066286Y-135408247D01*
X85066286Y-135408247D02*
X85066286Y-135265390D01*
X85066286Y-135265390D02*
X85113905Y-135074914D01*
X85113905Y-135074914D02*
X85161524Y-134979676D01*
X85161524Y-134979676D02*
X85256762Y-134884438D01*
X85256762Y-134884438D02*
X85399619Y-134836819D01*
X85399619Y-134836819D02*
X85494857Y-134836819D01*
X85494857Y-134836819D02*
X85637714Y-134884438D01*
X85637714Y-134884438D02*
X85685333Y-134932057D01*
X86018667Y-134836819D02*
X86637714Y-134836819D01*
X86637714Y-134836819D02*
X86304381Y-135217771D01*
X86304381Y-135217771D02*
X86447238Y-135217771D01*
X86447238Y-135217771D02*
X86542476Y-135265390D01*
X86542476Y-135265390D02*
X86590095Y-135313009D01*
X86590095Y-135313009D02*
X86637714Y-135408247D01*
X86637714Y-135408247D02*
X86637714Y-135646342D01*
X86637714Y-135646342D02*
X86590095Y-135741580D01*
X86590095Y-135741580D02*
X86542476Y-135789200D01*
X86542476Y-135789200D02*
X86447238Y-135836819D01*
X86447238Y-135836819D02*
X86161524Y-135836819D01*
X86161524Y-135836819D02*
X86066286Y-135789200D01*
X86066286Y-135789200D02*
X86018667Y-135741580D01*
X107616666Y-121792819D02*
X107616666Y-122507104D01*
X107616666Y-122507104D02*
X107569047Y-122649961D01*
X107569047Y-122649961D02*
X107473809Y-122745200D01*
X107473809Y-122745200D02*
X107330952Y-122792819D01*
X107330952Y-122792819D02*
X107235714Y-122792819D01*
X108045238Y-121888057D02*
X108092857Y-121840438D01*
X108092857Y-121840438D02*
X108188095Y-121792819D01*
X108188095Y-121792819D02*
X108426190Y-121792819D01*
X108426190Y-121792819D02*
X108521428Y-121840438D01*
X108521428Y-121840438D02*
X108569047Y-121888057D01*
X108569047Y-121888057D02*
X108616666Y-121983295D01*
X108616666Y-121983295D02*
X108616666Y-122078533D01*
X108616666Y-122078533D02*
X108569047Y-122221390D01*
X108569047Y-122221390D02*
X107997619Y-122792819D01*
X107997619Y-122792819D02*
X108616666Y-122792819D01*
X89154095Y-121374819D02*
X89154095Y-122184342D01*
X89154095Y-122184342D02*
X89201714Y-122279580D01*
X89201714Y-122279580D02*
X89249333Y-122327200D01*
X89249333Y-122327200D02*
X89344571Y-122374819D01*
X89344571Y-122374819D02*
X89535047Y-122374819D01*
X89535047Y-122374819D02*
X89630285Y-122327200D01*
X89630285Y-122327200D02*
X89677904Y-122279580D01*
X89677904Y-122279580D02*
X89725523Y-122184342D01*
X89725523Y-122184342D02*
X89725523Y-121374819D01*
X90725523Y-122374819D02*
X90154095Y-122374819D01*
X90439809Y-122374819D02*
X90439809Y-121374819D01*
X90439809Y-121374819D02*
X90344571Y-121517676D01*
X90344571Y-121517676D02*
X90249333Y-121612914D01*
X90249333Y-121612914D02*
X90154095Y-121660533D01*
X100925333Y-139646819D02*
X100592000Y-139170628D01*
X100353905Y-139646819D02*
X100353905Y-138646819D01*
X100353905Y-138646819D02*
X100734857Y-138646819D01*
X100734857Y-138646819D02*
X100830095Y-138694438D01*
X100830095Y-138694438D02*
X100877714Y-138742057D01*
X100877714Y-138742057D02*
X100925333Y-138837295D01*
X100925333Y-138837295D02*
X100925333Y-138980152D01*
X100925333Y-138980152D02*
X100877714Y-139075390D01*
X100877714Y-139075390D02*
X100830095Y-139123009D01*
X100830095Y-139123009D02*
X100734857Y-139170628D01*
X100734857Y-139170628D02*
X100353905Y-139170628D01*
X101496762Y-139075390D02*
X101401524Y-139027771D01*
X101401524Y-139027771D02*
X101353905Y-138980152D01*
X101353905Y-138980152D02*
X101306286Y-138884914D01*
X101306286Y-138884914D02*
X101306286Y-138837295D01*
X101306286Y-138837295D02*
X101353905Y-138742057D01*
X101353905Y-138742057D02*
X101401524Y-138694438D01*
X101401524Y-138694438D02*
X101496762Y-138646819D01*
X101496762Y-138646819D02*
X101687238Y-138646819D01*
X101687238Y-138646819D02*
X101782476Y-138694438D01*
X101782476Y-138694438D02*
X101830095Y-138742057D01*
X101830095Y-138742057D02*
X101877714Y-138837295D01*
X101877714Y-138837295D02*
X101877714Y-138884914D01*
X101877714Y-138884914D02*
X101830095Y-138980152D01*
X101830095Y-138980152D02*
X101782476Y-139027771D01*
X101782476Y-139027771D02*
X101687238Y-139075390D01*
X101687238Y-139075390D02*
X101496762Y-139075390D01*
X101496762Y-139075390D02*
X101401524Y-139123009D01*
X101401524Y-139123009D02*
X101353905Y-139170628D01*
X101353905Y-139170628D02*
X101306286Y-139265866D01*
X101306286Y-139265866D02*
X101306286Y-139456342D01*
X101306286Y-139456342D02*
X101353905Y-139551580D01*
X101353905Y-139551580D02*
X101401524Y-139599200D01*
X101401524Y-139599200D02*
X101496762Y-139646819D01*
X101496762Y-139646819D02*
X101687238Y-139646819D01*
X101687238Y-139646819D02*
X101782476Y-139599200D01*
X101782476Y-139599200D02*
X101830095Y-139551580D01*
X101830095Y-139551580D02*
X101877714Y-139456342D01*
X101877714Y-139456342D02*
X101877714Y-139265866D01*
X101877714Y-139265866D02*
X101830095Y-139170628D01*
X101830095Y-139170628D02*
X101782476Y-139123009D01*
X101782476Y-139123009D02*
X101687238Y-139075390D01*
D11*
%TO.C,R3*%
X71152000Y-131204000D02*
X77692000Y-131204000D01*
X71152000Y-131534000D02*
X71152000Y-131204000D01*
X71152000Y-133614000D02*
X71152000Y-133944000D01*
X71152000Y-133944000D02*
X77692000Y-133944000D01*
X77692000Y-131204000D02*
X77692000Y-131534000D01*
X77692000Y-133944000D02*
X77692000Y-133614000D01*
%TO.C,R2*%
X71152000Y-127154000D02*
X77692000Y-127154000D01*
X71152000Y-127484000D02*
X71152000Y-127154000D01*
X71152000Y-129564000D02*
X71152000Y-129894000D01*
X71152000Y-129894000D02*
X77692000Y-129894000D01*
X77692000Y-127154000D02*
X77692000Y-127484000D01*
X77692000Y-129894000D02*
X77692000Y-129564000D01*
%TO.C,C1*%
X68548000Y-135890000D02*
G75*
G02*
X62008000Y-135890000I-3270000J0D01*
G01*
X62008000Y-135890000D02*
G75*
G02*
X68548000Y-135890000I3270000J0D01*
G01*
%TO.C,R5*%
X94266000Y-123358000D02*
X100806000Y-123358000D01*
X94266000Y-123688000D02*
X94266000Y-123358000D01*
X94266000Y-125768000D02*
X94266000Y-126098000D01*
X94266000Y-126098000D02*
X100806000Y-126098000D01*
X100806000Y-123358000D02*
X100806000Y-123688000D01*
X100806000Y-126098000D02*
X100806000Y-125768000D01*
%TO.C,R4*%
X70898000Y-135536000D02*
X77438000Y-135536000D01*
X70898000Y-135866000D02*
X70898000Y-135536000D01*
X70898000Y-137946000D02*
X70898000Y-138276000D01*
X70898000Y-138276000D02*
X77438000Y-138276000D01*
X77438000Y-135536000D02*
X77438000Y-135866000D01*
X77438000Y-138276000D02*
X77438000Y-137946000D01*
%TO.C,C2*%
X80178000Y-136866000D02*
X80515000Y-136866000D01*
X80178000Y-142106000D02*
X80178000Y-136866000D01*
X80515000Y-142106000D02*
X80178000Y-142106000D01*
X82581000Y-136866000D02*
X82918000Y-136866000D01*
X82918000Y-136866000D02*
X82918000Y-142106000D01*
X82918000Y-142106000D02*
X82581000Y-142106000D01*
%TO.C,C4*%
X88278000Y-136866000D02*
X88615000Y-136866000D01*
X88278000Y-142106000D02*
X88278000Y-136866000D01*
X88615000Y-142106000D02*
X88278000Y-142106000D01*
X90681000Y-136866000D02*
X91018000Y-136866000D01*
X91018000Y-136866000D02*
X91018000Y-142106000D01*
X91018000Y-142106000D02*
X90681000Y-142106000D01*
%TO.C,R7*%
X94266000Y-131458000D02*
X100806000Y-131458000D01*
X94266000Y-131788000D02*
X94266000Y-131458000D01*
X94266000Y-133868000D02*
X94266000Y-134198000D01*
X94266000Y-134198000D02*
X100806000Y-134198000D01*
X100806000Y-131458000D02*
X100806000Y-131788000D01*
X100806000Y-134198000D02*
X100806000Y-133868000D01*
%TO.C,R6*%
X94266000Y-127408000D02*
X100806000Y-127408000D01*
X94266000Y-127738000D02*
X94266000Y-127408000D01*
X94266000Y-129818000D02*
X94266000Y-130148000D01*
X94266000Y-130148000D02*
X100806000Y-130148000D01*
X100806000Y-127408000D02*
X100806000Y-127738000D01*
X100806000Y-130148000D02*
X100806000Y-129818000D01*
%TO.C,R1*%
X71152000Y-123104000D02*
X77692000Y-123104000D01*
X71152000Y-123434000D02*
X71152000Y-123104000D01*
X71152000Y-125514000D02*
X71152000Y-125844000D01*
X71152000Y-125844000D02*
X77692000Y-125844000D01*
X77692000Y-123104000D02*
X77692000Y-123434000D01*
X77692000Y-125844000D02*
X77692000Y-125514000D01*
%TO.C,RV1*%
X69170000Y-140154000D02*
X75690000Y-140154000D01*
X69170000Y-143054000D02*
X69170000Y-140154000D01*
X71320000Y-140154000D02*
X73540000Y-140154000D01*
X71320000Y-143874000D02*
X71320000Y-140154000D01*
X73540000Y-140154000D02*
X73540000Y-143874000D01*
X73540000Y-143874000D02*
X71320000Y-143874000D01*
X73896000Y-143874000D02*
X70964000Y-143874000D01*
X75690000Y-140154000D02*
X75690000Y-143054000D01*
%TO.C,J1*%
X57792000Y-121934000D02*
X68192000Y-121934000D01*
X57792000Y-124954000D02*
X68192000Y-124954000D01*
X57792000Y-129854000D02*
X68192000Y-129854000D01*
X57792000Y-131354000D02*
X68192000Y-131354000D01*
X57792000Y-131974000D02*
X57792000Y-121934000D01*
X60152000Y-131974000D02*
X57792000Y-131974000D01*
X68192000Y-121934000D02*
X68192000Y-131974000D01*
X68192000Y-131974000D02*
X60752000Y-131974000D01*
X60892000Y-132584000D02*
X60012000Y-132584000D01*
X60452000Y-131974000D01*
X60892000Y-132584000D01*
G36*
X60892000Y-132584000D02*
G01*
X60012000Y-132584000D01*
X60452000Y-131974000D01*
X60892000Y-132584000D01*
G37*
%TO.C,C3*%
X84228000Y-136866000D02*
X84565000Y-136866000D01*
X84228000Y-142106000D02*
X84228000Y-136866000D01*
X84565000Y-142106000D02*
X84228000Y-142106000D01*
X86631000Y-136866000D02*
X86968000Y-136866000D01*
X86968000Y-136866000D02*
X86968000Y-142106000D01*
X86968000Y-142106000D02*
X86631000Y-142106000D01*
%TO.C,J2*%
X103730000Y-127468000D02*
X105630000Y-127468000D01*
X103730000Y-141708000D02*
X103730000Y-127468000D01*
X105630000Y-123468000D02*
X111870000Y-123468000D01*
X105630000Y-127468000D02*
X105630000Y-123468000D01*
X111870000Y-123468000D02*
X111870000Y-127468000D01*
X111870000Y-127468000D02*
X112170000Y-127468000D01*
X112170000Y-127468000D02*
X112170000Y-141708000D01*
X112170000Y-141708000D02*
X103730000Y-141708000D01*
%TO.C,U1*%
X83456000Y-123130000D02*
X83456000Y-133410000D01*
X83456000Y-133410000D02*
X88756000Y-133410000D01*
X85106000Y-123130000D02*
X83456000Y-123130000D01*
X88756000Y-123130000D02*
X87106000Y-123130000D01*
X88756000Y-133410000D02*
X88756000Y-123130000D01*
X87106000Y-123130000D02*
G75*
G02*
X85106000Y-123130000I-1000000J0D01*
G01*
%TO.C,R8*%
X94266000Y-135508000D02*
X100806000Y-135508000D01*
X94266000Y-135838000D02*
X94266000Y-135508000D01*
X94266000Y-137918000D02*
X94266000Y-138248000D01*
X94266000Y-138248000D02*
X100806000Y-138248000D01*
X100806000Y-135508000D02*
X100806000Y-135838000D01*
X100806000Y-138248000D02*
X100806000Y-137918000D01*
%TD*%
M02*
